<svg xmlns="http://www.w3.org/2000/svg" xmlns:xlink="http://www.w3.org/1999/xlink" xmlns:svgjs="http://svgjs.dev/svgjs" width="303" height="289"><svg width="303" height="289" viewBox="0 0 303 289" fill="none" xmlns="http://www.w3.org/2000/svg"><path fill-rule="evenodd" clip-rule="evenodd" d="M193.791 107.248c-6.617-7.957-11.557-19.316-13.894-31.82l-89.54 213.044h27.394l76.04-181.224zm43.396 6.503c11.161-26.136 16.776-45.936 14.311-74.944-11.41.014-20.95 4.064-27.627 11.71.687 19.41-5.952 39.587-11.676 53.145l-77.347 184.815h28.9l73.439-174.726zm31.919-71.49c.203 28.256-4.846 46.123-15.354 72.608l-72.317 172.234-.578 1.374h25.996l73.621-175.186c2.361-5.888 4.624-11.656 6.349-17.48 1.722-5.73 2.716-10.838 3.043-15.607.557-9.9-3.152-30.104-20.76-37.942zm33.084 14.643c0-31.135-25.345-56.466-56.496-56.466-13.188 0-26.925 4.96-36.02 12.985.104 8.557 2.374 16.57 6.438 22.807 9.815-7.913 21.653-12.087 34.333-12.087 15.305 0 29.857 6.172 38.913 16.502 6.673 7.452 10.437 16.982 12.121 25.246.472-2.946.711-5.949.711-8.987zM200.594 90.837c-7.352-9.762-11.373-21.723-11.373-33.933 0-11.132 3.213-21.775 9.331-31.002.823 9.45 3.859 17.753 9.223 25.26.677 13.917-3.339 28.858-7.181 39.675z" fill="#E4003A"/><path fill-rule="evenodd" clip-rule="evenodd" d="M105.364 46.098H79.368l47.809 113.997 13.046-31.016-34.859-82.981zM53.76 25.89H24.667l79.471 189.022 14.487-34.447L53.76 25.891zM.44 74.57h27.575l67.56 160.71-13.785 32.799L.44 74.568z" fill="#102D69"/></svg><style>@media (prefers-color-scheme:light){:root{filter:none}}@media (prefers-color-scheme:dark){:root{filter:none}}</style></svg>