<svg xmlns="http://www.w3.org/2000/svg" version="1.1" xmlns:xlink="http://www.w3.org/1999/xlink" xmlns:svgjs="http://svgjs.dev/svgjs" width="303" height="289"><svg width="303" height="289" viewBox="0 0 303 289" fill="none" xmlns="http://www.w3.org/2000/svg">
<path fill-rule="evenodd" clip-rule="evenodd" d="M193.791 107.248C187.174 99.2907 182.234 87.9318 179.897 75.4286L90.3564 288.472H117.751L193.791 107.248ZM237.187 113.751C248.348 87.6149 253.963 67.8148 251.498 38.8068C240.088 38.8213 230.548 42.8713 223.871 50.5165C224.558 69.9269 217.919 90.1044 212.195 103.662L134.848 288.477H163.748L237.187 113.751ZM269.106 42.2616C269.309 70.5173 264.26 88.3842 253.752 114.869L181.435 287.103L180.857 288.477H206.853L280.474 113.291C282.835 107.403 285.098 101.635 286.823 95.8116C288.545 90.0802 289.539 84.9729 289.866 80.2044C290.423 70.3044 286.714 50.1003 269.106 42.2616ZM302.19 56.9036C302.19 25.7689 276.845 0.438232 245.694 0.438232C232.506 0.438232 218.769 5.39791 209.674 13.4229C209.778 21.9802 212.048 29.9931 216.112 36.2302C225.927 28.3165 237.765 24.1431 250.445 24.1431C265.75 24.1431 280.302 30.3148 289.358 40.6455C296.031 48.0971 299.795 57.6269 301.479 65.8915C301.951 62.9447 302.19 59.9423 302.19 56.9036ZM200.594 90.8374C193.242 81.0753 189.221 69.114 189.221 56.9036C189.221 45.7721 192.434 35.1294 198.552 25.9019C199.375 35.3519 202.411 43.6552 207.775 51.1624C208.452 65.0786 204.436 80.0205 200.594 90.8374Z" fill="#E4003A"></path>
<path fill-rule="evenodd" clip-rule="evenodd" d="M105.364 46.0978H79.3685L127.177 160.095L140.223 129.079L105.364 46.0978ZM53.7596 25.8914H24.6669L104.138 214.913L118.625 180.466L53.7596 25.8914ZM0.439453 74.5688H28.0153L95.5757 235.279L81.7903 268.078L0.439453 74.5688Z" fill="#102D69"></path>
</svg><style>@media (prefers-color-scheme: light) { :root { filter: none; } }
@media (prefers-color-scheme: dark) { :root { filter: none; } }
</style></svg>