<svg width="16" height="16" viewBox="0 0 16 16" fill="none" xmlns="http://www.w3.org/2000/svg">
<path d="M7.99997 14.8571C11.7871 14.8571 14.8571 11.7871 14.8571 8C14.8571 4.2129 11.7871 1.14285 7.99997 1.14285C4.21287 1.14285 1.14282 4.2129 1.14282 8C1.14282 11.7871 4.21287 14.8571 7.99997 14.8571Z" stroke="white" stroke-width="1.15" stroke-linecap="round" stroke-linejoin="round"/>
<path d="M4.57141 2.06429L7.99998 8" stroke="white" stroke-width="1.15" stroke-linecap="round" stroke-linejoin="round"/>
<path d="M4.57141 13.9357L7.99998 8" stroke="white" stroke-width="1.15" stroke-linecap="round" stroke-linejoin="round"/>
<path d="M14.8571 8H8" stroke="white" stroke-width="1.15" stroke-linecap="round" stroke-linejoin="round"/>
<path d="M7.18567 1.19286C8.47864 1.77226 9.56063 2.73757 10.2832 3.95633C11.0058 5.17509 11.3335 6.58759 11.2214 8" stroke="white" stroke-width="1.15" stroke-linecap="round" stroke-linejoin="round"/>
<path d="M2.50719 12.1143C2.36182 10.7035 2.65745 9.28242 3.35335 8.04668C4.04926 6.81094 5.1112 5.82137 6.39291 5.21428" stroke="white" stroke-width="1.15" stroke-linecap="round" stroke-linejoin="round"/>
<path d="M14.3071 10.7C13.1585 11.5305 11.7808 11.9846 10.3636 12C8.94631 12.0153 7.55911 11.5911 6.39282 10.7857" stroke="white" stroke-width="1.15" stroke-linecap="round" stroke-linejoin="round"/>
</svg>
