<svg width="45" height="16" viewBox="0 0 45 16" fill="none" xmlns="http://www.w3.org/2000/svg">
<path d="M37.764 9.91879V9.10841H37.494V9.00126H38.1397V9.10841H37.872V9.91879H37.764ZM38.3557 9.91879V9.13744L38.592 9.91879H38.6887L38.9317 9.15083V9.91879H39.0353V9.00126H38.8913L38.691 9.6375C38.6708 9.70448 38.6572 9.75136 38.646 9.78485C38.637 9.75583 38.6235 9.71118 38.61 9.6509L38.4098 8.99902H38.25V9.91656H38.3557V9.91879Z" fill="white"/>
<path d="M22.5 12.1267C14.4382 12.1267 6.80625 13.4572 0 15.8326V16C6.957 14.3324 14.5485 13.4126 22.5 13.4126C30.4515 13.4126 38.0452 14.3324 45 16V15.8326C38.196 13.4595 30.564 12.1267 22.5 12.1267Z" fill="white"/>
<path d="M18.4275 0H15.8333V9.92326H18.4275V0Z" fill="white"/>
<path d="M14.9085 0H7.5015V2.20567H14.9085V0Z" fill="white"/>
<path d="M7.5015 3.67462H14.166V5.88029H10.0935V9.92326H7.5015V3.67462Z" fill="white"/>
<path d="M36.5107 4.83326C36.8843 4.54751 37.503 3.92242 37.503 2.91559C37.503 1.08944 36.2947 0.00223245 34.2765 0.00223245H26.0865L24.1852 6.29106H24.156L22.2502 0H19.3522V2.20566H20.2792L22.8757 9.92326H25.461L28.0552 2.20566H33.993C34.7895 2.20566 34.9087 2.72359 34.9087 3.03167C34.9087 3.33975 34.7895 3.85768 33.993 3.85768H29.538V6.06335H34.1055C34.902 6.06335 35.0212 6.58128 35.0212 6.88935C35.0212 7.19743 34.902 7.71536 34.1055 7.71536H29.538V9.92103H34.4812C36.3982 9.92103 37.638 8.75345 37.638 6.95186C37.638 5.6615 36.945 5.11009 36.5107 4.83326Z" fill="white"/>
</svg>
