<svg width="157" height="56" viewBox="0 0 157 56" fill="none" xmlns="http://www.w3.org/2000/svg">
<path fill-rule="evenodd" clip-rule="evenodd" d="M35.0172 23.3063C34.1552 22.2887 33.5116 20.8361 33.2071 19.2371L21.542 46.4816H25.1109L35.0172 23.3063ZM40.6708 24.1379C42.1247 20.7955 42.8563 18.2635 42.5351 14.5539C41.0487 14.5557 39.8059 15.0736 38.936 16.0513C39.0255 18.5336 38.1606 21.1139 37.4149 22.8477L27.3383 46.4822H31.1032L40.6708 24.1379ZM44.829 14.9957C44.8555 18.6091 44.1977 20.8939 42.8289 24.2809L33.4076 46.3065L33.3322 46.4822H36.7189L46.3101 24.0791C46.6177 23.3261 46.9124 22.5885 47.1372 21.8438C47.3616 21.1108 47.4911 20.4577 47.5337 19.8479C47.6062 18.5818 47.123 15.9981 44.829 14.9957ZM49.1392 16.8681C49.1392 12.8866 45.8373 9.64722 41.779 9.64722C40.0609 9.64722 38.2712 10.2815 37.0864 11.3077C37.1 12.402 37.3956 13.4268 37.9252 14.2244C39.2039 13.2123 40.7461 12.6786 42.398 12.6786C44.3919 12.6786 46.2877 13.4679 47.4675 14.789C48.3368 15.7419 48.8272 16.9606 49.0466 18.0175C49.108 17.6407 49.1392 17.2567 49.1392 16.8681ZM35.9035 21.2077C34.9457 19.9593 34.4218 18.4296 34.4218 16.8681C34.4218 15.4446 34.8404 14.0836 35.6375 12.9036C35.7447 14.1121 36.1402 15.1739 36.839 16.1339C36.9273 17.9136 36.4041 19.8244 35.9035 21.2077Z" fill="white"/>
<path fill-rule="evenodd" clip-rule="evenodd" d="M23.4975 15.4861H20.1108L26.3393 30.0644L28.0388 26.098L23.4975 15.4861ZM16.7746 12.9021H12.9844L23.3377 37.0746L25.2251 32.6695L16.7746 12.9021ZM9.82812 19.1271H13.4206L22.2223 39.6791L20.4263 43.8735L9.82812 19.1271Z" fill="white"/>
<path fill-rule="evenodd" clip-rule="evenodd" d="M60.9374 26.5857C65.5609 26.5857 66.9026 24.0694 67.3095 21.0361H63.5727C63.4286 22.2592 62.9738 23.4816 61.2009 23.4816C60.2667 23.4816 59.2606 23.1527 59.2606 21.5769C59.2606 21.3653 59.2606 20.9189 59.3561 20.3072C59.4522 19.625 59.8115 17.2266 59.8594 16.8036C60.1705 14.499 60.9134 13.6287 62.5905 13.6287C63.7882 13.6287 64.2913 14.193 64.2913 15.016C64.2913 15.3455 64.267 15.5333 64.2191 15.8628H67.9566C68.0282 15.2984 68.0761 14.8517 68.0761 14.3582C68.0761 12.5006 66.6628 10.5251 62.8298 10.5251C59.1168 10.5251 56.7933 11.936 56.1226 16.8272L55.739 19.5786C55.5956 20.5659 55.5713 20.801 55.5713 21.624C55.5713 24.799 57.7032 26.5857 60.9374 26.5857Z" fill="white"/>
<path fill-rule="evenodd" clip-rule="evenodd" d="M63.0362 31.0796L58.82 43.3309H58.4127L57.7896 31.0796H54.0527L55.2025 46.4821H61.3352L66.9887 31.0796H63.0362Z" fill="white"/>
<path fill-rule="evenodd" clip-rule="evenodd" d="M97.5932 19.9306H98.3616L101.067 26.2561H105.331L101.763 18.2144L107.027 11.4461L110.35 20.3071L109.487 26.2561H113.225L114.087 20.3071L120.459 10.8542H116.267L112.65 16.897H112.554L110.733 10.8542H103.175L98.7928 16.7327H98.048L98.8868 10.8542H95.1735L92.9697 26.2561H96.683L97.5932 19.9306Z" fill="white"/>
<path fill-rule="evenodd" clip-rule="evenodd" d="M65.0582 9.64718L67.957 6.51953H65.1304L63.1898 8.07113L61.7043 6.51953H59.0693L61.0818 9.64718H65.0582Z" fill="white"/>
<path fill-rule="evenodd" clip-rule="evenodd" d="M92.0355 20.7775C92.0355 19.2256 91.1731 17.5558 88.9451 17.1328L86.2622 16.6149C85.5193 16.4741 85.0405 16.0277 85.0405 15.369C85.0405 14.4516 85.5432 13.4644 87.1245 13.4644C88.3223 13.4644 88.8972 14.0522 88.8972 14.8752C88.8972 15.1339 88.8732 15.3455 88.8493 15.5333H92.5385C92.6101 15.0868 92.6343 14.8282 92.6343 14.4281C92.6583 11.9125 90.7177 10.5251 87.4359 10.5251C83.7467 10.5251 81.3752 12.2413 81.3752 16.0741C81.3752 17.5558 82.1654 19.3899 84.5611 19.8608L86.7889 20.3307C87.6276 20.495 88.1067 20.9189 88.1067 21.6475C88.1067 22.3062 87.747 23.67 85.8307 23.67C84.5372 23.67 83.9862 22.9408 83.9862 22.1648C83.9862 21.8826 84.0341 21.5067 84.0341 21.5067H80.3448C80.2733 21.9297 80.249 22.3532 80.249 22.7291C80.2733 25.104 82.3573 26.5857 85.6391 26.5857C91.0294 26.5857 92.0355 23.2699 92.0355 20.7775Z" fill="white"/>
<path fill-rule="evenodd" clip-rule="evenodd" d="M117.921 6.51929H114.136L111.237 9.64693H114.447L117.921 6.51929Z" fill="white"/>
<path fill-rule="evenodd" clip-rule="evenodd" d="M95.5644 34.254H101.337L101.793 31.0796H92.3063L90.1025 46.4821H99.5891L100.044 43.3074H94.2709L94.7021 40.2274H100.475L100.93 37.053H95.1572L95.5644 34.254Z" fill="white"/>
<path fill-rule="evenodd" clip-rule="evenodd" d="M128.554 39.9687L130.758 34.0191H131.213L131.692 39.9687H128.554ZM128.434 31.0798L122.421 46.4823H126.23L127.571 42.8609H131.859L132.147 46.4823H135.86L134.399 31.0798H128.434Z" fill="white"/>
<path fill-rule="evenodd" clip-rule="evenodd" d="M117.488 37.3111H115.02L115.5 34.0426H117.943C118.806 34.0426 119.237 34.6305 119.237 35.43C119.237 36.4407 118.614 37.3111 117.488 37.3111ZM116.698 43.5193H114.134L114.661 39.9687H117.128C118.111 39.9687 118.686 40.6033 118.686 41.4739C118.686 42.5785 118.063 43.5193 116.698 43.5193ZM120.028 38.5341C121.153 38.2049 122.926 37.0994 122.926 34.4662C122.926 32.4199 121.417 31.0796 119.356 31.0796H112.218L110.014 46.4824H117.464C120.028 46.4824 122.399 44.6947 122.399 41.6376C122.399 39.8744 121.273 38.8163 120.028 38.5341Z" fill="white"/>
<path fill-rule="evenodd" clip-rule="evenodd" d="M141.447 43.3073L143.195 31.0798H139.483L137.278 46.4823H146.094L146.525 43.3073H141.447Z" fill="white"/>
<path fill-rule="evenodd" clip-rule="evenodd" d="M106.453 31.0796L104.896 41.9668C104.8 42.7192 104.273 43.3071 103.195 43.3071H101.495L101.039 46.4821H103.938C106.645 46.4821 108.202 44.9066 108.561 42.4142L110.19 31.0796H106.453Z" fill="white"/>
<path fill-rule="evenodd" clip-rule="evenodd" d="M70.5742 10.8545L68.3701 26.2563H77.8563L78.3118 23.082H72.5382L72.9697 20.0014H78.743L79.1981 16.8273H73.4248L73.832 14.0289H79.6053L80.0604 10.8545H70.5742Z" fill="white"/>
<path fill-rule="evenodd" clip-rule="evenodd" d="M85.6885 31.0796H81.9756L79.7715 46.4821H88.587L89.0182 43.3071H83.9395L85.6885 31.0796Z" fill="white"/>
<path fill-rule="evenodd" clip-rule="evenodd" d="M75.4377 37.6876L75.1023 40.0389C74.719 42.6963 74.0719 43.7074 72.2517 43.7074C71.0055 43.7074 70.1434 43.1901 70.1434 41.5912C70.1434 41.0503 70.1671 40.6503 70.2868 39.8743L70.6228 37.5226C71.0055 34.8662 71.6526 33.8545 73.4734 33.8545C74.719 33.8545 75.5811 34.3718 75.5811 35.9707C75.5811 36.5115 75.5574 36.9116 75.4377 37.6876ZM73.7126 30.751C70.359 30.751 67.7237 31.8793 66.9336 37.1938L66.5739 39.5922C66.4781 40.2744 66.4062 40.956 66.4062 41.5912C66.4062 45.3063 68.7538 46.8115 72.0119 46.8115C75.3415 46.8115 77.9768 45.6829 78.7673 40.3681L79.1266 37.9697C79.2224 37.2875 79.2943 36.6059 79.2943 35.9707C79.2943 32.2555 76.9707 30.751 73.7126 30.751Z" fill="white"/>
</svg>
