<svg width="157" height="56" viewBox="0 0 157 56" fill="none" xmlns="http://www.w3.org/2000/svg">
<path fill-rule="evenodd" clip-rule="evenodd" d="M35.0176 23.3063C34.1555 22.2887 33.5119 20.8361 33.2075 19.2371L21.5424 46.4816H25.1112L35.0176 23.3063ZM40.6711 24.1379C42.1251 20.7955 42.8566 18.2635 42.5355 14.5539C41.049 14.5557 39.8062 15.0736 38.9363 16.0513C39.0258 18.5336 38.161 21.1139 37.4152 22.8477L27.3387 46.4822H31.1036L40.6711 24.1379ZM44.8294 14.9957C44.8559 18.6091 44.1981 20.8939 42.8292 24.2808L33.4079 46.3065L33.3326 46.4822H36.7193L46.3105 24.0791C46.6181 23.3261 46.9128 22.5885 47.1375 21.8438C47.3619 21.1108 47.4915 20.4577 47.534 19.8479C47.6065 18.5818 47.1233 15.9981 44.8294 14.9957ZM49.1396 16.8681C49.1396 12.8865 45.8377 9.6472 41.7793 9.6472C40.0612 9.6472 38.2716 10.2815 37.0868 11.3077C37.1004 12.402 37.396 13.4267 37.9255 14.2244C39.2042 13.2123 40.7464 12.6786 42.3983 12.6786C44.3922 12.6786 46.2881 13.4679 47.4678 14.789C48.3371 15.7419 48.8276 16.9606 49.0469 18.0175C49.1084 17.6407 49.1396 17.2567 49.1396 16.8681ZM35.9039 21.2076C34.946 19.9592 34.4222 18.4296 34.4222 16.8681C34.4222 15.4446 34.8408 14.0836 35.6379 12.9036C35.745 14.112 36.1406 15.1739 36.8394 16.1339C36.9276 17.9135 36.4044 19.8244 35.9039 21.2076Z" fill="#E4003A"/>
<path fill-rule="evenodd" clip-rule="evenodd" d="M23.4975 15.4862H20.1108L26.3393 30.0645L28.0388 26.0981L23.4975 15.4862ZM16.7746 12.9022H12.9844L23.3377 37.0747L25.2251 32.6696L16.7746 12.9022ZM9.82813 19.1272H13.4206L22.2223 39.6792L20.4263 43.8736L9.82813 19.1272Z" fill="#102D69"/>
<path fill-rule="evenodd" clip-rule="evenodd" d="M60.9378 26.5857C65.5613 26.5857 66.9031 24.0694 67.31 21.0361H63.5731C63.4291 22.2591 62.9743 23.4816 61.2013 23.4816C60.2671 23.4816 59.261 23.1527 59.261 21.5769C59.261 21.3653 59.261 20.9189 59.3565 20.3072C59.4527 19.625 59.812 17.2266 59.8599 16.8036C60.171 14.499 60.9139 13.6286 62.591 13.6286C63.7887 13.6286 64.2917 14.193 64.2917 15.016C64.2917 15.3455 64.2675 15.5333 64.2196 15.8628H67.9571C68.0286 15.2984 68.0765 14.8517 68.0765 14.3582C68.0765 12.5006 66.6632 10.5251 62.8302 10.5251C59.1173 10.5251 56.7937 11.936 56.123 16.8271L55.7394 19.5786C55.596 20.5658 55.5717 20.801 55.5717 21.624C55.5717 24.7989 57.7037 26.5857 60.9378 26.5857Z" fill="#102D69"/>
<path fill-rule="evenodd" clip-rule="evenodd" d="M63.0361 31.0797L58.8198 43.331H58.4126L57.7895 31.0797H54.0526L55.2024 46.4822H61.3351L66.9886 31.0797H63.0361Z" fill="#102D69"/>
<path fill-rule="evenodd" clip-rule="evenodd" d="M97.5935 19.9307H98.362L101.067 26.2562H105.331L101.763 18.2145L107.027 11.4463L110.35 20.3072L109.488 26.2562H113.225L114.088 20.3072L120.46 10.8544H116.267L112.65 16.8971H112.554L110.733 10.8544H103.175L98.7932 16.7328H98.0484L98.8871 10.8544H95.1738L92.97 26.2562H96.6833L97.5935 19.9307Z" fill="#102D69"/>
<path fill-rule="evenodd" clip-rule="evenodd" d="M65.058 9.64707L67.9568 6.51942H65.1302L63.1896 8.07103L61.7041 6.51942H59.0692L61.0816 9.64707H65.058Z" fill="#102D69"/>
<path fill-rule="evenodd" clip-rule="evenodd" d="M92.0356 20.7775C92.0356 19.2256 91.1732 17.5558 88.9452 17.1328L86.2623 16.6149C85.5194 16.4741 85.0406 16.0277 85.0406 15.369C85.0406 14.4516 85.5433 13.4644 87.1246 13.4644C88.3223 13.4644 88.8973 14.0522 88.8973 14.8752C88.8973 15.1338 88.8733 15.3455 88.8493 15.5333H92.5386C92.6102 15.0868 92.6344 14.8282 92.6344 14.4281C92.6584 11.9124 90.7178 10.5251 87.436 10.5251C83.7468 10.5251 81.3753 12.2413 81.3753 16.0741C81.3753 17.5558 82.1655 19.3898 84.5612 19.8607L86.789 20.3307C87.6277 20.495 88.1068 20.9189 88.1068 21.6475C88.1068 22.3062 87.7471 23.67 85.8308 23.67C84.5373 23.67 83.9863 22.9407 83.9863 22.1648C83.9863 21.8826 84.0342 21.5067 84.0342 21.5067H80.3449C80.2734 21.9296 80.2491 22.3532 80.2491 22.7291C80.2734 25.104 82.3574 26.5857 85.6392 26.5857C91.0295 26.5857 92.0356 23.2699 92.0356 20.7775Z" fill="#102D69"/>
<path fill-rule="evenodd" clip-rule="evenodd" d="M117.92 6.5193H114.135L111.237 9.64695H114.447L117.92 6.5193Z" fill="#102D69"/>
<path fill-rule="evenodd" clip-rule="evenodd" d="M95.5648 34.254H101.338L101.793 31.0797H92.3067L90.1029 46.4821H99.5894L100.045 43.3075H94.2713L94.7024 40.2275H100.475L100.931 37.0531H95.1576L95.5648 34.254Z" fill="#102D69"/>
<path fill-rule="evenodd" clip-rule="evenodd" d="M128.554 39.9687L130.758 34.0191H131.213L131.692 39.9687H128.554ZM128.434 31.0799L122.421 46.4824H126.23L127.572 42.8609H131.86L132.147 46.4824H135.861L134.399 31.0799H128.434Z" fill="#102D69"/>
<path fill-rule="evenodd" clip-rule="evenodd" d="M117.488 37.3111H115.021L115.5 34.0427H117.943C118.806 34.0427 119.237 34.6305 119.237 35.43C119.237 36.4408 118.614 37.3111 117.488 37.3111ZM116.698 43.5193H114.134L114.661 39.9688H117.129C118.111 39.9688 118.686 40.6033 118.686 41.4739C118.686 42.5785 118.063 43.5193 116.698 43.5193ZM120.028 38.5341C121.153 38.2049 122.926 37.0995 122.926 34.4662C122.926 32.4199 121.417 31.0796 119.357 31.0796H112.218L110.014 46.4824H117.464C120.028 46.4824 122.399 44.6947 122.399 41.6376C122.399 39.8744 121.273 38.8163 120.028 38.5341Z" fill="#102D69"/>
<path fill-rule="evenodd" clip-rule="evenodd" d="M141.447 43.3074L143.195 31.0799H139.483L137.278 46.4824H146.094L146.525 43.3074H141.447Z" fill="#102D69"/>
<path fill-rule="evenodd" clip-rule="evenodd" d="M106.453 31.0797L104.896 41.9669C104.8 42.7194 104.273 43.3072 103.195 43.3072H101.495L101.039 46.4822H103.938C106.645 46.4822 108.202 44.9068 108.561 42.4143L110.19 31.0797H106.453Z" fill="#102D69"/>
<path fill-rule="evenodd" clip-rule="evenodd" d="M70.5742 10.8544L68.37 26.2563H77.8563L78.3117 23.0819H72.5381L72.9696 20.0013H78.7429L79.198 16.8272H73.4247L73.8319 14.0288H79.6052L80.0604 10.8544H70.5742Z" fill="#102D69"/>
<path fill-rule="evenodd" clip-rule="evenodd" d="M85.6881 31.0797H81.9752L79.7711 46.4822H88.5866L89.0177 43.3072H83.9391L85.6881 31.0797Z" fill="#102D69"/>
<path fill-rule="evenodd" clip-rule="evenodd" d="M75.438 37.6876L75.1027 40.0389C74.7194 42.6963 74.0723 43.7074 72.2521 43.7074C71.0058 43.7074 70.1438 43.1901 70.1438 41.5912C70.1438 41.0503 70.1674 40.6503 70.2872 39.8743L70.6232 37.5226C71.0058 34.8662 71.6529 33.8545 73.4738 33.8545C74.7194 33.8545 75.5814 34.3718 75.5814 35.9707C75.5814 36.5115 75.5578 36.9116 75.438 37.6876ZM73.713 30.751C70.3594 30.751 67.7241 31.8793 66.9339 37.1938L66.5743 39.5922C66.4785 40.2744 66.4066 40.956 66.4066 41.5912C66.4066 45.3063 68.7541 46.8115 72.0122 46.8115C75.3419 46.8115 77.9772 45.6829 78.7677 40.3681L79.127 37.9697C79.2228 37.2875 79.2947 36.6059 79.2947 35.9707C79.2947 32.2555 76.9711 30.751 73.713 30.751Z" fill="#102D69"/>
</svg>
