<svg width="16" height="16" viewBox="0 0 16 16" fill="none" xmlns="http://www.w3.org/2000/svg">
<path d="M6.05556 5.6397C6.05556 5.26848 6.05556 5.08287 6.13313 4.97925C6.20074 4.88895 6.30422 4.83245 6.41674 4.82441C6.54585 4.81519 6.70199 4.91556 7.01425 5.1163L10.6858 7.4766C10.9568 7.65079 11.0923 7.73789 11.1391 7.84864C11.18 7.9454 11.18 8.0546 11.1391 8.15136C11.0923 8.26211 10.9568 8.34921 10.6858 8.5234L7.01425 10.8837C6.70199 11.0844 6.54585 11.1848 6.41674 11.1756C6.30422 11.1676 6.20074 11.1111 6.13313 11.0208C6.05556 10.9171 6.05556 10.7315 6.05556 10.3603V5.6397Z" stroke="white" stroke-width="1.15"/>
<path d="M1 4.73333C1 3.42654 1 2.77315 1.25432 2.27402C1.47802 1.83498 1.83498 1.47802 2.27402 1.25432C2.77315 1 3.42654 1 4.73333 1H11.2667C12.5735 1 13.2269 1 13.726 1.25432C14.165 1.47802 14.522 1.83498 14.7457 2.27402C15 2.77315 15 3.42654 15 4.73333V11.2667C15 12.5735 15 13.2269 14.7457 13.726C14.522 14.165 14.165 14.522 13.726 14.7457C13.2269 15 12.5735 15 11.2667 15H4.73333C3.42654 15 2.77315 15 2.27402 14.7457C1.83498 14.522 1.47802 14.165 1.25432 13.726C1 13.2269 1 12.5735 1 11.2667V4.73333Z" stroke="white" stroke-width="1.15"/>
</svg>
