<svg width="78" height="79" viewBox="0 0 78 79" fill="none" xmlns="http://www.w3.org/2000/svg">
<path d="M29 27.3613C29 25.4522 29 24.4976 29.399 23.9647C29.7466 23.5003 30.2789 23.2097 30.8575 23.1684C31.5215 23.121 32.3245 23.6372 33.9304 24.6696L52.8128 36.8082C54.2063 37.7041 54.9031 38.152 55.1438 38.7216C55.3541 39.2192 55.3541 39.7808 55.1438 40.2784C54.9031 40.848 54.2063 41.2959 52.8128 42.1918L33.9304 54.3304C32.3245 55.3628 31.5215 55.879 30.8575 55.8316C30.2789 55.7903 29.7466 55.4997 29.399 55.0353C29 54.5024 29 53.5478 29 51.6387V27.3613Z" stroke="#E4003A" stroke-width="6"/>
<path d="M3 22.7C3 15.9794 3 12.6191 4.30792 10.0521C5.4584 7.79417 7.29417 5.9584 9.55211 4.80792C12.1191 3.5 15.4794 3.5 22.2 3.5H55.8C62.5206 3.5 65.8809 3.5 68.4479 4.80792C70.7058 5.9584 72.5416 7.79417 73.6921 10.0521C75 12.6191 75 15.9794 75 22.7V56.3C75 63.0206 75 66.3809 73.6921 68.9479C72.5416 71.2058 70.7058 73.0416 68.4479 74.1921C65.8809 75.5 62.5206 75.5 55.8 75.5H22.2C15.4794 75.5 12.1191 75.5 9.55211 74.1921C7.29417 73.0416 5.4584 71.2058 4.30792 68.9479C3 66.3809 3 63.0206 3 56.3V22.7Z" stroke="#E4003A" stroke-width="6"/>
</svg>
