<svg width="16" height="17" viewBox="0 0 16 17" fill="none" xmlns="http://www.w3.org/2000/svg">
<path d="M6.76667 6.5V6.4H6.66667H6C4.16065 6.4 2.60442 7.61113 2.08483 9.27925C1.8663 9.14446 1.6088 9.06667 1.33333 9.06667C0.541725 9.06667 -0.1 9.70839 -0.1 10.5C-0.1 11.2916 0.541725 11.9333 1.33333 11.9333C1.6088 11.9333 1.86631 11.8555 2.08483 11.7207C2.60442 13.3889 4.16065 14.6 6 14.6C8.26437 14.6 10.1 12.7644 10.1 10.5C10.1 10.24 10.0758 9.98553 10.0295 9.73881L15.3543 8.59778L15.4333 8.58084V8.5V6.5V6.4H15.3333H8.66667H8.56667V6.5V7.73333H6.76667V6.5ZM5.34862 7.33228C5.52742 7.29572 5.71165 7.2739 5.9 7.26818V8.5V8.6H6H9.33333H9.43333V8.5V7.26667H14.5667V7.88592L9.03828 9.07664L8.91906 9.10232L8.9676 9.21421C9.13853 9.60814 9.23333 10.0429 9.23333 10.5C9.23333 12.2857 7.78572 13.7333 6 13.7333C4.21428 13.7333 2.76667 12.2857 2.76667 10.5C2.76667 8.93749 3.87511 7.63364 5.34862 7.33228ZM7.33333 2.4H7.23333V2.5V5.16667V5.26667H7.33333H8H8.1V5.16667V2.5V2.4H8H7.33333ZM10.7994 3.09586L10.7146 3.04287L10.6616 3.12767L9.24853 5.38913L9.19554 5.47394L9.28034 5.52693L9.84571 5.88021L9.93051 5.9332L9.9835 5.8484L11.3966 3.58693L11.4496 3.50213L11.3648 3.44914L10.7994 3.09586ZM4.65017 3.12767L4.59718 3.04287L4.51237 3.09586L3.94701 3.44914L3.8622 3.50213L3.91519 3.58693L5.32831 5.8484L5.38131 5.9332L5.46611 5.88021L6.03147 5.52693L6.11628 5.47394L6.06329 5.38913L4.65017 3.12767ZM0.766667 10.5C0.766667 10.1847 1.02012 9.93333 1.33333 9.93333C1.64861 9.93333 1.9 10.1868 1.9 10.5C1.9 10.8153 1.64655 11.0667 1.33333 11.0667C1.01806 11.0667 0.766667 10.8132 0.766667 10.5Z" fill="black" stroke="black" stroke-width="0.2"/>
</svg>
