<svg width="17" height="14" viewBox="0 0 17 14" fill="none" xmlns="http://www.w3.org/2000/svg">
<path d="M7.76667 5V4.9H7.66667H7C5.16065 4.9 3.60442 6.11113 3.08483 7.77925C2.8663 7.64446 2.6088 7.56667 2.33333 7.56667C1.54173 7.56667 0.9 8.20839 0.9 9C0.9 9.79161 1.54173 10.4333 2.33333 10.4333C2.6088 10.4333 2.86631 10.3555 3.08483 10.2207C3.60442 11.8889 5.16065 13.1 7 13.1C9.26437 13.1 11.1 11.2644 11.1 9C11.1 8.73998 11.0758 8.48553 11.0295 8.23881L16.3543 7.09778L16.4333 7.08084V7V5V4.9H16.3333H9.66667H9.56667V5V6.23333H7.76667V5ZM6.34862 5.83228C6.52742 5.79572 6.71165 5.7739 6.9 5.76818V7V7.1H7H10.3333H10.4333V7V5.76667H15.5667V6.38592L10.0383 7.57664L9.91906 7.60232L9.9676 7.71421C10.1385 8.10814 10.2333 8.54287 10.2333 9C10.2333 10.7857 8.78572 12.2333 7 12.2333C5.21428 12.2333 3.76667 10.7857 3.76667 9C3.76667 7.43749 4.87511 6.13364 6.34862 5.83228ZM8.33333 0.9H8.23333V1V3.66667V3.76667H8.33333H9H9.1V3.66667V1V0.9H9H8.33333ZM11.7994 1.59586L11.7146 1.54287L11.6616 1.62767L10.2485 3.88913L10.1955 3.97394L10.2803 4.02693L10.8457 4.38021L10.9305 4.4332L10.9835 4.3484L12.3966 2.08693L12.4496 2.00213L12.3648 1.94914L11.7994 1.59586ZM5.65017 1.62767L5.59718 1.54287L5.51237 1.59586L4.94701 1.94914L4.8622 2.00213L4.91519 2.08693L6.32831 4.3484L6.38131 4.4332L6.46611 4.38021L7.03147 4.02693L7.11628 3.97394L7.06329 3.88913L5.65017 1.62767ZM1.76667 9C1.76667 8.68472 2.02012 8.43333 2.33333 8.43333C2.64861 8.43333 2.9 8.68679 2.9 9C2.9 9.31528 2.64655 9.56667 2.33333 9.56667C2.01806 9.56667 1.76667 9.31321 1.76667 9Z" fill="white" stroke="white" stroke-width="0.2"/>
</svg>
