<svg width="111" height="40" viewBox="0 0 111 40" fill="none" xmlns="http://www.w3.org/2000/svg">
<path fill-rule="evenodd" clip-rule="evenodd" d="M24.8607 16.6473C24.2486 15.9205 23.7916 14.8829 23.5754 13.7408L15.293 33.2011H17.8269L24.8607 16.6473ZM28.8748 17.2414C29.9071 14.854 30.4266 13.0453 30.1985 10.3956C29.1431 10.3969 28.2607 10.7669 27.6431 11.4652C27.7066 13.2383 27.0925 15.0814 26.563 16.3198L19.4085 33.2016H22.0816L28.8748 17.2414ZM31.8273 10.7112C31.8461 13.2922 31.379 14.9242 30.4071 17.3435L23.7178 33.0761L23.6643 33.2016H26.0689L32.8789 17.1994C33.0973 16.6615 33.3065 16.1346 33.4661 15.6027C33.6254 15.0792 33.7174 14.6126 33.7476 14.1771C33.7991 13.2727 33.456 11.4272 31.8273 10.7112ZM34.8876 12.0487C34.8876 9.20468 32.5432 6.89087 29.6616 6.89087C28.4418 6.89087 27.1711 7.34391 26.3299 8.07695C26.3395 8.8586 26.5494 9.59054 26.9254 10.1603C27.8333 9.43739 28.9283 9.05617 30.1012 9.05617C31.5169 9.05617 32.863 9.61993 33.7006 10.5636C34.3178 11.2442 34.666 12.1147 34.8218 12.8697C34.8654 12.6005 34.8876 12.3262 34.8876 12.0487ZM25.49 15.1483C24.8099 14.2566 24.4379 13.164 24.4379 12.0487C24.4379 11.0319 24.7351 10.0597 25.3011 9.21684C25.3772 10.08 25.658 10.8385 26.1542 11.5242C26.2168 12.7954 25.8454 14.1603 25.49 15.1483Z" fill="white"/>
<path fill-rule="evenodd" clip-rule="evenodd" d="M16.6821 11.0616H14.2775L18.6998 21.4746L19.9065 18.6415L16.6821 11.0616ZM11.9087 9.21582H9.2176L16.5687 26.4819L17.9087 23.3354L11.9087 9.21582ZM6.97656 13.6622H9.52732L15.7767 28.3422L14.5015 31.3382L6.97656 13.6622Z" fill="white"/>
<path fill-rule="evenodd" clip-rule="evenodd" d="M43.2671 18.9898C46.5498 18.9898 47.5025 17.1924 47.7914 15.0258H45.1382C45.0359 15.8994 44.713 16.7725 43.4542 16.7725C42.7908 16.7725 42.0765 16.5376 42.0765 15.4121C42.0765 15.2609 42.0765 14.942 42.1443 14.5051C42.2126 14.0178 42.4677 12.3047 42.5017 12.0026C42.7226 10.3564 43.2501 9.73474 44.4408 9.73474C45.2912 9.73474 45.6484 10.1378 45.6484 10.7257C45.6484 10.961 45.6312 11.0952 45.5972 11.3305H48.2509C48.3017 10.9274 48.3357 10.6083 48.3357 10.2558C48.3357 8.92899 47.3322 7.51794 44.6107 7.51794C41.9745 7.51794 40.3247 8.52568 39.8484 12.0194L39.5761 13.9847C39.4743 14.6899 39.457 14.8578 39.457 15.4457C39.457 17.7135 40.9708 18.9898 43.2671 18.9898Z" fill="white"/>
<path fill-rule="evenodd" clip-rule="evenodd" d="M44.7535 22.1998L41.7598 30.9508H41.4707L41.0283 22.1998H38.375L39.1914 33.2016H43.5457L47.5598 22.1998H44.7535Z" fill="white"/>
<path fill-rule="evenodd" clip-rule="evenodd" d="M69.2906 14.2361H69.8362L71.757 18.7544H74.7846L72.2513 13.0103L75.9886 8.17581L78.3483 14.5051L77.7358 18.7544H80.3895L81.0018 14.5051L85.5261 7.75305H82.5495L79.9813 12.0693H79.913L78.6202 7.75305H73.2537L70.1423 11.9519H69.6135L70.209 7.75305H67.5726L66.0078 18.7544H68.6443L69.2906 14.2361Z" fill="white"/>
<path fill-rule="evenodd" clip-rule="evenodd" d="M46.1897 6.89077L48.2479 4.65674H46.241L44.8631 5.76503L43.8084 4.65674H41.9375L43.3664 6.89077H46.1897Z" fill="white"/>
<path fill-rule="evenodd" clip-rule="evenodd" d="M65.3452 14.841C65.3452 13.7325 64.7329 12.5398 63.1509 12.2377L61.246 11.8678C60.7186 11.7672 60.3786 11.4483 60.3786 10.9778C60.3786 10.3226 60.7356 9.61739 61.8583 9.61739C62.7087 9.61739 63.1169 10.0373 63.1169 10.6251C63.1169 10.8099 63.0999 10.961 63.0829 11.0952H65.7024C65.7532 10.7763 65.7704 10.5915 65.7704 10.3058C65.7874 8.50888 64.4095 7.51794 62.0794 7.51794C59.46 7.51794 57.7762 8.7438 57.7762 11.4815C57.7762 12.5398 58.3372 13.8499 60.0382 14.1862L61.62 14.5219C62.2155 14.6393 62.5557 14.942 62.5557 15.4625C62.5557 15.933 62.3003 16.9071 60.9397 16.9071C60.0212 16.9071 59.63 16.3862 59.63 15.832C59.63 15.6304 59.6641 15.3619 59.6641 15.3619H57.0446C56.9938 15.664 56.9766 15.9666 56.9766 16.2351C56.9938 17.9314 58.4735 18.9898 60.8036 18.9898C64.6309 18.9898 65.3452 16.6214 65.3452 14.841Z" fill="white"/>
<path fill-rule="evenodd" clip-rule="evenodd" d="M83.7259 4.65662H81.0384L78.9805 6.89065H81.2595L83.7259 4.65662Z" fill="white"/>
<path fill-rule="evenodd" clip-rule="evenodd" d="M67.8507 24.4671H71.9497L72.273 22.1997H65.5374L63.9727 33.2015H70.7083L71.0314 30.9339H66.9323L67.2384 28.7339H71.3374L71.6605 26.4664H67.5616L67.8507 24.4671Z" fill="white"/>
<path fill-rule="evenodd" clip-rule="evenodd" d="M91.2764 28.549L92.8411 24.2993H93.1643L93.5044 28.549H91.2764ZM91.1911 22.1998L86.9219 33.2016H89.6264L90.5788 30.6149H93.6233L93.8276 33.2016H96.4641L95.4264 22.1998H91.1911Z" fill="white"/>
<path fill-rule="evenodd" clip-rule="evenodd" d="M83.4163 26.6508H81.6643L82.0044 24.3162H83.7393C84.3518 24.3162 84.6579 24.7361 84.6579 25.3071C84.6579 26.0291 84.2157 26.6508 83.4163 26.6508ZM82.8551 31.0852H81.035L81.4092 28.5491H83.161C83.8588 28.5491 84.2667 29.0024 84.2667 29.6242C84.2667 30.4132 83.8245 31.0852 82.8551 31.0852ZM85.2194 27.5243C86.0186 27.2892 87.2774 26.4996 87.2774 24.6187C87.2774 23.1571 86.2059 22.1997 84.743 22.1997H79.6743L78.1094 33.2017H83.3993C85.2194 33.2017 86.9032 31.9248 86.9032 29.7411C86.9032 28.4817 86.1038 27.7259 85.2194 27.5243Z" fill="white"/>
<path fill-rule="evenodd" clip-rule="evenodd" d="M100.428 30.9338L101.67 22.1998H99.0339L97.4688 33.2016H103.728L104.034 30.9338H100.428Z" fill="white"/>
<path fill-rule="evenodd" clip-rule="evenodd" d="M75.5823 22.1998L74.4768 29.9764C74.4088 30.5139 74.0346 30.9338 73.269 30.9338H72.0617L71.7383 33.2016H73.7965C75.7184 33.2016 76.8239 32.0763 77.079 30.296L78.2356 22.1998H75.5823Z" fill="white"/>
<path fill-rule="evenodd" clip-rule="evenodd" d="M50.1079 7.75317L48.543 18.7545H55.2784L55.6018 16.4871H51.5024L51.8087 14.2867H55.9079L56.2311 12.0195H52.1319L52.421 10.0206H56.5202L56.8434 7.75317H50.1079Z" fill="white"/>
<path fill-rule="evenodd" clip-rule="evenodd" d="M60.8379 22.1998H58.2017L56.6367 33.2016H62.8959L63.2021 30.9338H59.5961L60.8379 22.1998Z" fill="white"/>
<path fill-rule="evenodd" clip-rule="evenodd" d="M53.5609 26.9197L53.3228 28.5992C53.0507 30.4973 52.5912 31.2196 51.2989 31.2196C50.414 31.2196 49.8019 30.85 49.8019 29.7079C49.8019 29.3217 49.8187 29.0359 49.9037 28.4817L50.1423 26.8019C50.414 24.9044 50.8734 24.1818 52.1663 24.1818C53.0507 24.1818 53.6628 24.5513 53.6628 25.6934C53.6628 26.0797 53.646 26.3654 53.5609 26.9197ZM52.3361 21.965C49.955 21.965 48.0839 22.7709 47.5228 26.567L47.2675 28.2801C47.1995 28.7674 47.1484 29.2542 47.1484 29.7079C47.1484 32.3617 48.8152 33.4368 51.1285 33.4368C53.4927 33.4368 55.3638 32.6306 55.925 28.8344L56.1802 27.1212C56.2482 26.6339 56.2992 26.1471 56.2992 25.6934C56.2992 23.0397 54.6494 21.965 52.3361 21.965Z" fill="white"/>
</svg>
