<svg width="16" height="16" viewBox="0 0 16 16" fill="none" xmlns="http://www.w3.org/2000/svg">
<path d="M11.332 2L7.9987 4.66667L4.66536 2M4.53203 14H11.4654C12.5855 14 13.1455 14 13.5733 13.782C13.9497 13.5903 14.2556 13.2843 14.4474 12.908C14.6654 12.4802 14.6654 11.9201 14.6654 10.8V7.86667C14.6654 6.74656 14.6654 6.18651 14.4474 5.75869C14.2556 5.38236 13.9497 5.0764 13.5733 4.88465C13.1455 4.66667 12.5855 4.66667 11.4654 4.66667H4.53203C3.41193 4.66667 2.85187 4.66667 2.42405 4.88465C2.04773 5.0764 1.74176 5.38236 1.55002 5.75869C1.33203 6.18651 1.33203 6.74656 1.33203 7.86667V10.8C1.33203 11.9201 1.33203 12.4802 1.55002 12.908C1.74176 13.2843 2.04773 13.5903 2.42405 13.782C2.85187 14 3.41193 14 4.53203 14Z" stroke="#102D69" stroke-width="1.15"/>
</svg>
