<svg width="16" height="16" viewBox="0 0 16 16" fill="none" xmlns="http://www.w3.org/2000/svg">
<path d="M2.40002 14.8722C2.82182 15 3.39154 15 4.36 15H11.64C12.6085 15 13.1782 15 13.6 14.8722M2.40002 14.8722C2.30957 14.8448 2.22593 14.8115 2.14662 14.7711C1.75148 14.5698 1.43022 14.2485 1.22889 13.8534C1 13.4042 1 12.8161 1 11.64V4.36C1 3.18389 1 2.59583 1.22889 2.14662C1.43022 1.75148 1.75148 1.43022 2.14662 1.22889C2.59583 1 3.18389 1 4.36 1H11.64C12.8161 1 13.4042 1 13.8534 1.22889C14.2485 1.43022 14.5698 1.75148 14.7711 2.14662C15 2.59583 15 3.18389 15 4.36V11.64C15 12.8161 15 13.4042 14.7711 13.8534C14.5698 14.2485 14.2485 14.5698 13.8534 14.7711C13.7741 14.8115 13.6904 14.8448 13.6 14.8722M2.40002 14.8722C2.40025 14.3057 2.40364 14.0059 2.4538 13.7537C2.67474 12.643 3.54301 11.7747 4.65375 11.5538C4.92422 11.5 5.24948 11.5 5.9 11.5H10.1C10.7505 11.5 11.0758 11.5 11.3463 11.5538C12.457 11.7747 13.3253 12.643 13.5462 13.7537C13.5964 14.0059 13.5998 14.3057 13.6 14.8722M10.8 6.25C10.8 7.7964 9.5464 9.05 8 9.05C6.4536 9.05 5.2 7.7964 5.2 6.25C5.2 4.7036 6.4536 3.45 8 3.45C9.5464 3.45 10.8 4.7036 10.8 6.25Z" stroke="white" stroke-width="1.15"/>
</svg>
