<svg width="171" height="37" viewBox="0 0 171 37" fill="none" xmlns="http://www.w3.org/2000/svg">
<path fill-rule="evenodd" clip-rule="evenodd" d="M25.1895 13.6591C24.3274 12.6415 23.6838 11.1889 23.3793 9.58992L11.7142 36.8344H15.2831L25.1895 13.6591ZM30.843 14.4907C32.2969 11.1483 33.0285 8.61627 32.7073 4.90665C31.2209 4.90851 29.9781 5.42643 29.1082 6.40411C29.1977 8.88636 28.3328 11.4667 27.5871 13.2005L17.5105 36.835H21.2754L30.843 14.4907ZM35.0013 5.34846C35.0277 8.96186 34.3699 11.2467 33.0011 14.6336L23.5798 36.6593L23.5045 36.835H26.8912L36.4823 14.4319C36.79 13.6789 37.0847 12.9413 37.3094 12.1966C37.5338 11.4636 37.6633 10.8105 37.7059 10.2007C37.7784 8.93463 37.2952 6.3509 35.0013 5.34846ZM39.3115 7.22091C39.3115 3.23934 36.0096 0 31.9512 0C30.2331 0 28.4435 0.634254 27.2587 1.66051C27.2722 2.75483 27.5679 3.77954 28.0974 4.57715C29.3761 3.56513 30.9183 3.03142 32.5702 3.03142C34.5641 3.03142 36.46 3.82068 37.6397 5.14179C38.509 6.09472 38.9994 7.31341 39.2188 8.3703C39.2803 7.99346 39.3115 7.6095 39.3115 7.22091ZM26.0758 11.5604C25.1179 10.312 24.5941 8.78241 24.5941 7.22091C24.5941 5.79739 25.0126 4.43638 25.8097 3.25635C25.9169 4.46484 26.3125 5.52667 27.0112 6.48672C27.0995 8.26634 26.5763 10.1771 26.0758 11.5604Z" fill="#E4003A"/>
<path fill-rule="evenodd" clip-rule="evenodd" d="M13.6694 5.83893H10.2827L16.5111 20.4172L18.2106 16.4508L13.6694 5.83893ZM6.94643 3.25488H3.15629L13.5096 27.4274L15.3969 23.0223L6.94643 3.25488ZM0 9.47986H3.59251L12.3941 30.0319L10.5982 34.2263L0 9.47986Z" fill="white"/>
<path d="M50.888 8.04H55.88L56.712 24.712H57.256L62.888 8.04H68.168L60.616 29H52.424L50.888 8.04ZM66.9303 22.344C66.9303 21.48 67.0263 20.552 67.1543 19.624L67.6343 16.36C68.6903 9.128 72.2103 7.592 76.6903 7.592C81.0423 7.592 84.1463 9.64 84.1463 14.696C84.1463 15.56 84.0503 16.488 83.9223 17.416L83.4423 20.68C82.3863 27.912 78.8663 29.448 74.4183 29.448C70.0663 29.448 66.9303 27.4 66.9303 22.344ZM71.9223 22.344C71.9223 24.52 73.0743 25.224 74.7383 25.224C77.1703 25.224 78.0343 23.848 78.5463 20.232L78.9943 17.032C79.1543 15.976 79.1863 15.432 79.1863 14.696C79.1863 12.52 78.0343 11.816 76.3703 11.816C73.9383 11.816 73.0743 13.192 72.5623 16.808L72.1143 20.008C71.9543 21.064 71.9223 21.608 71.9223 22.344ZM88.459 8.04H93.419L91.083 24.68H97.867L97.291 29H85.515L88.459 8.04ZM102.928 8.04H115.6L114.992 12.36H107.28L106.736 16.168H114.448L113.84 20.488H106.128L105.552 24.68H113.264L112.656 29H99.9838L102.928 8.04ZM115.181 29L115.789 24.68H118.061C119.501 24.68 120.205 23.88 120.333 22.856L122.413 8.04H127.405L125.229 23.464C124.749 26.856 122.669 29 119.053 29H115.181ZM128.486 27.368C128.486 26.856 128.614 25.672 129.286 25.064C129.83 24.552 130.566 24.36 131.718 24.36C133.574 24.36 134.374 25.288 134.374 26.44C134.374 26.952 134.246 28.136 133.574 28.744C133.03 29.256 132.294 29.448 131.142 29.448C129.286 29.448 128.486 28.52 128.486 27.368Z" fill="white"/>
<path d="M140.55 29L142.886 12.36H138.374L138.982 8.04H152.966L152.39 12.36H147.878L145.51 29H140.55ZM153.419 8.04H158.411L159.243 24.712H159.787L165.419 8.04H170.699L163.147 29H154.955L153.419 8.04Z" fill="#E4003A"/>
</svg>
