<svg width="16" height="16" viewBox="0 0 16 16" fill="none" xmlns="http://www.w3.org/2000/svg"><g clip-path="url(#clip0_2694_3578)"><path d="M9.02 5.568a2.333 2.333 0 11.627-3.136M4 13.392h1.74c.227 0 .453.026.673.08l1.838.447a2.85 2.85 0 001.218.029l2.033-.396a2.803 2.803 0 001.418-.738l1.439-1.4c.41-.398.41-1.046 0-1.445-.37-.36-.956-.4-1.374-.095l-1.677 1.223a1.41 1.41 0 01-.832.27H8.857h1.03c.581 0 1.052-.458 1.052-1.023v-.205c0-.469-.329-.878-.796-.991l-1.59-.387a3.35 3.35 0 00-.79-.094c-.644 0-1.808.532-1.808.532L4 10.017m9.333-5.684a2.333 2.333 0 11-4.666 0 2.333 2.333 0 014.666 0zm-12 5.4V13.6c0 .373 0 .56.073.703a.667.667 0 00.291.291c.143.073.33.073.703.073h.533c.374 0 .56 0 .703-.073a.667.667 0 00.291-.291C4 14.16 4 13.973 4 13.6V9.733c0-.373 0-.56-.073-.702a.667.667 0 00-.291-.292c-.143-.072-.33-.072-.703-.072H2.4c-.373 0-.56 0-.703.072a.667.667 0 00-.291.292c-.073.142-.073.329-.073.702z" stroke="#fff" stroke-width="1.15"/></g><defs><clipPath id="clip0_2694_3578"><path fill="#fff" d="M0 0h16v16H0z"/></clipPath></defs></svg>