<svg width="45" height="16" viewBox="0 0 45 16" fill="none" xmlns="http://www.w3.org/2000/svg"><path d="M37.764 9.919v-.81h-.27V9h.646v.107h-.268v.81h-.108zm.592 0v-.782l.236.782h.097l.243-.768v.768h.103V9h-.144l-.2.636-.045.148a1.654 1.654 0 01-.036-.134l-.2-.652h-.16v.918h.106v.002zM22.5 12.127c-8.062 0-15.694 1.33-22.5 3.706V16c6.957-1.668 14.549-2.587 22.5-2.587 7.951 0 15.545.92 22.5 2.587v-.167c-6.804-2.373-14.436-3.706-22.5-3.706zM18.427 0h-2.594v9.923h2.594V0zM14.909 0H7.5v2.206h7.407V0zM7.502 3.675h6.664V5.88h-4.072v4.043H7.502V3.675zM36.51 4.833c.374-.285.993-.91.993-1.917 0-1.827-1.208-2.914-3.227-2.914h-8.19l-1.9 6.29h-.03L22.25 0h-2.898v2.206h.927l2.597 7.717h2.585l2.594-7.717h5.938c.796 0 .916.518.916.826 0 .308-.12.826-.916.826h-4.455v2.205h4.567c.797 0 .916.518.916.826 0 .308-.119.826-.916.826h-4.567v2.206h4.943c1.917 0 3.157-1.168 3.157-2.97 0-1.29-.693-1.84-1.127-2.118z" fill="#fff"/></svg>