<svg width="24" height="24" viewBox="0 0 24 24" fill="none" xmlns="http://www.w3.org/2000/svg"><g clip-path="url(#clip0_2694_3617)"><circle cx="12" cy="12" r="12" fill="#E4003A"/><path fill-rule="evenodd" clip-rule="evenodd" d="M15.233 4H8.767A4.772 4.772 0 004 8.766v6.467A4.772 4.772 0 008.766 20h6.467A4.772 4.772 0 0020 15.233V8.767A4.772 4.772 0 0015.233 4zm3.157 11.233a3.157 3.157 0 01-3.157 3.157H8.767a3.157 3.157 0 01-3.156-3.157V8.767A3.157 3.157 0 018.766 5.61h6.467a3.157 3.157 0 013.157 3.156v6.467zM12 7.862A4.143 4.143 0 007.862 12 4.143 4.143 0 0012 16.138 4.143 4.143 0 0016.138 12 4.143 4.143 0 0012 7.862zm0 6.667a2.529 2.529 0 110-5.058 2.529 2.529 0 010 5.058zm5.138-6.636a.992.992 0 11-1.983 0 .992.992 0 011.983 0z" fill="#fff"/></g><defs><clipPath id="clip0_2694_3617"><path fill="#fff" d="M0 0h24v24H0z"/></clipPath></defs></svg>