<svg width="157" height="56" viewBox="0 0 157 56" fill="none" xmlns="http://www.w3.org/2000/svg"><path fill-rule="evenodd" clip-rule="evenodd" d="M35.017 23.306c-.862-1.017-1.505-2.47-1.81-4.069L21.542 46.482h3.569l9.906-23.176zm5.654.832c1.454-3.343 2.185-5.875 1.864-9.584-1.486.002-2.73.52-3.599 1.497.09 2.483-.775 5.063-1.521 6.797L27.338 46.482h3.765l9.568-22.344zm4.158-9.142c.026 3.613-.631 5.898-2 9.285l-9.421 22.026-.076.175h3.387L46.31 24.08c.308-.753.602-1.49.827-2.235.225-.733.354-1.386.397-1.996.072-1.266-.411-3.85-2.705-4.852zm4.31 1.872c0-3.981-3.302-7.22-7.36-7.22-1.718 0-3.508.633-4.693 1.66.014 1.094.31 2.119.84 2.916a7.124 7.124 0 014.472-1.545c1.994 0 3.89.789 5.07 2.11.869.953 1.36 2.172 1.579 3.228.061-.376.092-.76.092-1.149zm-13.236 4.34a7.145 7.145 0 01-1.481-4.34c0-1.423.418-2.784 1.216-3.964a6.296 6.296 0 001.201 3.23c.088 1.78-.435 3.69-.935 5.074zM23.497 15.486h-3.386l6.228 14.578 1.7-3.966-4.542-10.612zm-6.722-2.584h-3.79l10.353 24.173 1.887-4.406-8.45-19.767zm-6.947 6.225h3.593l8.801 20.552-1.796 4.194L9.828 19.128zM60.937 26.586c4.624 0 5.966-2.517 6.373-5.55h-3.737c-.144 1.223-.6 2.446-2.372 2.446-.934 0-1.94-.33-1.94-1.905 0-.212 0-.658.095-1.27.096-.682.456-3.08.503-3.503.311-2.305 1.054-3.175 2.731-3.175 1.198 0 1.701.564 1.701 1.387 0 .33-.024.517-.072.847h3.738c.071-.565.12-1.011.12-1.505 0-1.857-1.414-3.833-5.247-3.833-3.713 0-6.037 1.411-6.707 6.302l-.384 2.752c-.143.987-.168 1.222-.168 2.045 0 3.175 2.132 4.962 5.366 4.962zM63.036 31.08L58.82 43.33h-.407l-.623-12.25h-3.737l1.15 15.402h6.132L66.99 31.08h-3.953zM97.593 19.93h.769l2.705 6.326h4.264l-3.568-8.042 5.264-6.768 3.323 8.861-.863 5.95h3.738l.862-5.95 6.372-9.453h-4.192l-3.617 6.043h-.096l-1.821-6.043h-7.558l-4.382 5.879h-.745l.839-5.879h-3.713L92.97 26.256h3.713l.91-6.325zM65.058 9.647l2.899-3.127H65.13L63.19 8.07 61.704 6.52H59.07l2.013 3.127h3.976zM92.035 20.777c0-1.551-.862-3.221-3.09-3.644l-2.683-.518c-.743-.14-1.222-.587-1.222-1.246 0-.917.503-1.905 2.084-1.905 1.198 0 1.773.588 1.773 1.411 0 .259-.024.47-.048.658h3.69c.071-.446.095-.705.095-1.105.024-2.516-1.916-3.903-5.198-3.903-3.69 0-6.06 1.716-6.06 5.55 0 1.48.79 3.315 3.185 3.786l2.228.47c.839.164 1.318.588 1.318 1.317 0 .658-.36 2.022-2.276 2.022-1.294 0-1.845-.73-1.845-1.505 0-.282.048-.658.048-.658h-3.69a7.418 7.418 0 00-.095 1.222c.024 2.375 2.108 3.857 5.39 3.857 5.39 0 6.397-3.316 6.397-5.808zM117.921 6.52h-3.785l-2.899 3.127h3.21l3.474-3.128zM95.564 34.254h5.773l.456-3.174h-9.487l-2.203 15.402h9.486l.455-3.175h-5.773l.431-3.08h5.773l.455-3.174h-5.773l.407-2.799zM128.554 39.969l2.204-5.95h.455l.479 5.95h-3.138zm-.12-8.89l-6.013 15.403h3.809l1.341-3.621h4.288l.288 3.621h3.713l-1.461-15.402h-5.965zM117.488 37.311h-2.468l.48-3.268h2.443c.863 0 1.294.587 1.294 1.387 0 1.01-.623 1.881-1.749 1.881zm-.79 6.208h-2.564l.527-3.55h2.467c.983 0 1.558.634 1.558 1.505 0 1.105-.623 2.045-1.988 2.045zm3.33-4.985c1.125-.33 2.898-1.435 2.898-4.068 0-2.046-1.509-3.386-3.57-3.386h-7.138l-2.204 15.402h7.45c2.564 0 4.935-1.787 4.935-4.844 0-1.764-1.126-2.822-2.371-3.104zM141.447 43.307l1.748-12.227h-3.712l-2.205 15.402h8.816l.431-3.175h-5.078zM106.453 31.08l-1.557 10.887c-.096.752-.623 1.34-1.701 1.34h-1.7l-.456 3.175h2.899c2.707 0 4.264-1.575 4.623-4.068l1.629-11.334h-3.737zM70.574 10.854L68.37 26.256h9.486l.456-3.174h-5.774l.432-3.08h5.773l.455-3.175h-5.773l.407-2.798h5.773l.455-3.175h-9.486zM85.689 31.08h-3.713l-2.204 15.402h8.815l.431-3.175H83.94l1.75-12.227zM75.438 37.688l-.336 2.35c-.383 2.658-1.03 3.67-2.85 3.67-1.246 0-2.109-.518-2.109-2.117 0-.54.024-.94.144-1.717l.336-2.351c.382-2.657 1.03-3.669 2.85-3.669 1.246 0 2.108.518 2.108 2.117 0 .54-.024.94-.143 1.717zm-1.725-6.937c-3.354 0-5.99 1.128-6.78 6.443l-.36 2.398c-.095.682-.167 1.364-.167 2 0 3.714 2.348 5.22 5.606 5.22 3.33 0 5.965-1.13 6.755-6.444l.36-2.398c.095-.682.167-1.364.167-2 0-3.715-2.323-5.219-5.581-5.219z" fill="#fff"/></svg>