<svg width="157" height="56" viewBox="0 0 157 56" fill="none" xmlns="http://www.w3.org/2000/svg"><path fill-rule="evenodd" clip-rule="evenodd" d="M35.018 23.306c-.862-1.017-1.506-2.47-1.81-4.069L21.542 46.482h3.57l9.906-23.176zm5.653.832c1.454-3.343 2.186-5.875 1.864-9.584-1.486.002-2.729.52-3.599 1.497.09 2.483-.775 5.063-1.52 6.797L27.338 46.482h3.765l9.567-22.344zm4.158-9.142c.027 3.613-.63 5.898-2 9.285l-9.421 22.026-.075.175h3.386L46.31 24.08c.308-.753.603-1.49.828-2.235.224-.733.354-1.386.396-1.996.072-1.266-.41-3.85-2.705-4.852zm4.31 1.872c0-3.981-3.301-7.22-7.36-7.22-1.718 0-3.507.633-4.692 1.66.013 1.094.309 2.119.838 2.916a7.124 7.124 0 014.473-1.545c1.994 0 3.89.789 5.07 2.11.87.953 1.36 2.172 1.579 3.228.061-.376.093-.76.093-1.149zm-13.235 4.34a7.144 7.144 0 01-1.482-4.34c0-1.423.419-2.784 1.216-3.964a6.295 6.295 0 001.201 3.23c.089 1.78-.435 3.69-.935 5.074z" fill="#E4003A"/><path fill-rule="evenodd" clip-rule="evenodd" d="M23.497 15.486h-3.386l6.228 14.578 1.7-3.966-4.542-10.612zm-6.722-2.584h-3.79l10.353 24.173 1.887-4.405-8.45-19.768zm-6.947 6.225h3.593l8.801 20.552-1.796 4.195L9.828 19.127zM60.938 26.586c4.623 0 5.965-2.517 6.372-5.55h-3.737c-.144 1.223-.599 2.446-2.372 2.446-.934 0-1.94-.33-1.94-1.905 0-.212 0-.658.095-1.27.097-.682.456-3.08.504-3.503.311-2.305 1.054-3.175 2.731-3.175 1.198 0 1.7.564 1.7 1.387 0 .33-.023.517-.071.847h3.737c.072-.565.12-1.011.12-1.505 0-1.857-1.414-3.833-5.247-3.833-3.713 0-6.036 1.411-6.707 6.302l-.384 2.752c-.143.987-.167 1.222-.167 2.045 0 3.175 2.132 4.962 5.366 4.962zM63.036 31.08L58.82 43.33h-.407L57.79 31.08h-3.737l1.15 15.402h6.132L66.99 31.08h-3.953zM97.594 19.93h.768l2.705 6.326h4.264l-3.568-8.041 5.264-6.769 3.323 8.861-.862 5.95h3.737l.863-5.95 6.372-9.453h-4.193l-3.617 6.043h-.096l-1.821-6.043h-7.558l-4.382 5.879h-.745l.84-5.879h-3.714L92.97 26.256h3.713l.91-6.325zM65.058 9.647l2.899-3.128H65.13l-1.94 1.552-1.486-1.552H59.07l2.013 3.128h3.976zM92.036 20.777c0-1.551-.863-3.221-3.09-3.644l-2.684-.518c-.743-.14-1.221-.587-1.221-1.246 0-.917.502-1.905 2.084-1.905 1.197 0 1.772.588 1.772 1.411 0 .259-.024.47-.048.658h3.69c.071-.446.095-.705.095-1.105.024-2.516-1.916-3.903-5.198-3.903-3.69 0-6.06 1.716-6.06 5.55 0 1.48.79 3.315 3.185 3.786l2.228.47c.839.164 1.318.588 1.318 1.317 0 .658-.36 2.022-2.276 2.022-1.294 0-1.845-.73-1.845-1.505 0-.282.048-.658.048-.658h-3.69a7.417 7.417 0 00-.095 1.222c.024 2.375 2.108 3.857 5.39 3.857 5.39 0 6.397-3.316 6.397-5.808zM117.92 6.52h-3.785l-2.898 3.127h3.21l3.473-3.128zM95.565 34.254h5.773l.455-3.174h-9.486l-2.204 15.402h9.486l.456-3.175h-5.774l.431-3.08h5.773l.456-3.174h-5.773l.407-2.799zM128.554 39.969l2.204-5.95h.455l.479 5.95h-3.138zm-.12-8.89l-6.013 15.403h3.809l1.342-3.621h4.288l.287 3.621h3.714l-1.462-15.402h-5.965zM117.488 37.311h-2.467l.479-3.268h2.443c.863 0 1.294.587 1.294 1.387 0 1.01-.623 1.881-1.749 1.881zm-.79 6.208h-2.564l.527-3.55h2.468c.982 0 1.557.634 1.557 1.505 0 1.105-.623 2.045-1.988 2.045zm3.33-4.985c1.125-.33 2.898-1.434 2.898-4.068 0-2.046-1.509-3.386-3.569-3.386h-7.139l-2.204 15.402h7.45c2.564 0 4.935-1.787 4.935-4.844 0-1.764-1.126-2.822-2.371-3.104zM141.447 43.307l1.748-12.227h-3.712l-2.205 15.402h8.816l.431-3.175h-5.078zM106.453 31.08l-1.557 10.887c-.096.752-.623 1.34-1.701 1.34h-1.7l-.456 3.175h2.899c2.707 0 4.264-1.575 4.623-4.068l1.629-11.334h-3.737zM70.574 10.854L68.37 26.256h9.486l.456-3.174h-5.774l.432-3.08h5.773l.455-3.175h-5.773l.407-2.798h5.773l.455-3.175h-9.486zM85.688 31.08h-3.713l-2.204 15.402h8.816l.43-3.175H83.94l1.75-12.227zM75.438 37.688l-.335 2.35c-.384 2.658-1.03 3.67-2.85 3.67-1.247 0-2.11-.518-2.11-2.117 0-.54.024-.94.144-1.717l.336-2.351c.383-2.657 1.03-3.669 2.85-3.669 1.246 0 2.108.518 2.108 2.117 0 .54-.023.94-.143 1.717zm-1.725-6.937c-3.354 0-5.989 1.128-6.78 6.443l-.359 2.398c-.096.682-.167 1.364-.167 2 0 3.714 2.347 5.22 5.605 5.22 3.33 0 5.965-1.13 6.756-6.444l.359-2.398c.096-.682.168-1.364.168-2 0-3.715-2.324-5.219-5.582-5.219z" fill="#102D69"/></svg>