<svg width="78" height="79" viewBox="0 0 78 79" fill="none" xmlns="http://www.w3.org/2000/svg"><path d="M29 27.361c0-1.909 0-2.863.399-3.396a2 2 0 011.459-.797c.663-.047 1.466.47 3.072 1.502l18.883 12.138c1.393.896 2.09 1.344 2.33 1.914a2 2 0 010 1.556c-.24.57-.937 1.018-2.33 1.914L33.93 54.33c-1.605 1.033-2.409 1.549-3.072 1.502a2 2 0 01-1.459-.797C29 54.502 29 53.548 29 51.64V27.36z" stroke="#E4003A" stroke-width="6"/><path d="M3 22.7c0-6.72 0-10.08 1.308-12.648a12 12 0 015.244-5.244C12.12 3.5 15.48 3.5 22.2 3.5h33.6c6.72 0 10.08 0 12.648 1.308a12 12 0 015.244 5.244C75 12.62 75 15.98 75 22.7v33.6c0 6.72 0 10.08-1.308 12.648a12 12 0 01-5.244 5.244C65.88 75.5 62.52 75.5 55.8 75.5H22.2c-6.72 0-10.08 0-12.648-1.308a12 12 0 01-5.244-5.244C3 66.38 3 63.02 3 56.3V22.7z" stroke="#E4003A" stroke-width="6"/></svg>