<svg width="16" height="16" viewBox="0 0 16 16" fill="none" xmlns="http://www.w3.org/2000/svg"><path d="M6.056 5.64c0-.372 0-.557.077-.66a.389.389 0 01.284-.156c.129-.009.285.092.597.292l3.672 2.36c.27.175.406.262.453.373.041.096.041.206 0 .302-.047.111-.182.198-.453.372l-3.672 2.36c-.312.201-.468.302-.597.293a.389.389 0 01-.284-.155c-.077-.104-.077-.29-.077-.66V5.64z" stroke="#fff" stroke-width="1.15"/><path d="M1 4.733c0-1.306 0-1.96.254-2.459.224-.439.581-.796 1.02-1.02C2.774 1 3.427 1 4.734 1h6.533c1.306 0 1.96 0 2.459.254.439.224.796.581 1.02 1.02.254.5.254 1.153.254 2.46v6.533c0 1.306 0 1.96-.254 2.459-.224.439-.581.796-1.02 1.02-.5.254-1.153.254-2.46.254H4.734c-1.306 0-1.96 0-2.459-.254a2.334 2.334 0 01-1.02-1.02C1 13.226 1 12.573 1 11.266V4.734z" stroke="#fff" stroke-width="1.15"/></svg>