<svg width="202" height="115" viewBox="0 0 202 115" fill="none" xmlns="http://www.w3.org/2000/svg"><path d="M75.907 9.522l-.1.4-.2.28-.14.08-.883.08-.12.1-.1.161-.06.24-.06.721-.08.34-.16.301-.181.24-.22.16-.261.06-.24-.06-1.544-1.601-.22-.1-.16.04-.1.24-.341 1.922-.38.36-.221.381-.06.24v.481l-.04.2-.08.16-.662.642-.12.16-.541 1.402-.421.26-.14.16-.1.18-.04.2.04.261 1.663 5.247 2.104 1.742.22 1.062-.2.14-.2.34-.06.381v.28l-.04.381-.1.36-.101.2-.18.14-.241.141-.862.721-.44.22-.301-.06-.4-.18-.241-.04-.1.1-.04.18.06.18.18.601v.18l-.02.441.18.641-.02.28-.16.22-.2.541-.241.34-.24.141-.22.04-.522-.04-.842.08-.22.06-.24.16-.642.541-.38.14-.962-.36-2.325.4-.601-.08-.681-.24-.742-.16-1.222.04-.36.1-.241.1-.12.2-.06.2-.04.461.04.28-.08.341-.161.26-.24.1-.241.02-.4-.02-.282.1-1.763 1.102-.36.46-.16.181-.342.26-.2.04-.22-.08-.2-.16-.241-.1-.24.02-2.826 1.482-.521.14h-.14l-.301-.14-.2-.04h-.321l-.24.08-.321.22-.28.28-1.263.822-1.744.72-.34.201-.16.2-.401.621-.281.681-.28.36-.341.24-.762.762-.3.14-.461.12-.36.2-.322.441-.62.46-.402-.02-1.342-.32-.26-.14-.201-.2-.32-.46-.261-.301-.36-.32-.622-.441-.22-.22-.08-.14.1-.301.44-.56.22-.401-.08-.381-.2-.5-.62-.962-.221-.46-.1-.381.14-.44.02-.24-.04-.482-.1-.6-.06-.541v-.3l.06-1.002-.02-.4-.04-.4-.16-.622-.141-.3-.2-.22-.441-.24-.842-.221-.902-.04-.741-.16-.361-.28-.22-.281-.2-.4-.141-.2-.18-.141-1.944-.22-.501-.28-.982-.842.641-.62.42-.501.181-.861.2-1.883.241-.18.24-.06.261.06.22.18.261.06.28.04.281-.02.28-.08.822-.3 1.563.1.722-.54.42-.782 1.003-2.643.56.06.482.34.5.22.622-.32.3-.941.18-.3 1.103-.802.18-.18.02-.18.08-.04.361.12.16.18.421.701.18.24.662.34.561-.14.501-.46.5-.64.301-.161.18-.22.02-.28-.16-.381.482-.38.4-.501.12-.641-.34-.701 1.202-.741 1.343-.26 2.665.02.561-.12 1.122-.421.642-.06 1.362.16.521-.12.862-.521.18-.02.18-.06.201-.28.02-.24-.08-.341-.04-.4.12-.441.28-.34.261-.02.28.1.381-.06.301-.221.44-.58.322-.241.58-.12 1.083.14.56-.04 4.61-2.123.36-.34.542-.822.32-.3 1.062-.24 2.325.2.882-.741.16-1.182-.782-.44-1.082-.34-.761-.742.02-.5.26-.16.04-.1-.58-.24-1.003-.141-.34-.22.32-.481.421-1.342.701-.74.942-.141 1.102.36.22.2.161.261.2.26.321.18h.32l.822-.36 1.083.06.34-.18.24-.64.181.4.06.28.1.28.28.381.361.26.802.2.36.281.362.44.22.361.1.46-.06.722-.22.56-.361.661-.16.581.34.26 1.643-.68.341.02.16.52-.16.621-.5 1.182-.101.84z" fill="#ECECEC" stroke="#fff" stroke-linecap="round" stroke-linejoin="round"/><path d="M40.301 45.11l.36.92v.441l-.2.481-.12.32v.2l.1.14.16.061.301.02.32-.08.602-.34.32-.04.401.16.481.12.521.24 1.423 1.382.26.18.542.06.4-.04.401-.1.24-.02.301.02.561.16.321.16.26.16.762.862.2.16.18.1.983.3.18.12.12.181.1.38 1.543.802.261.26.14.22-.06.16v.4l.04.241.3.982.02.22-.04.2-.36.16-.36.04-.14.22v.802l-.061.3-.36.941.02.3.1.461-.02.22-.301 1.022-.04.24-.02.26.12.181.28.12.22.12.061.16.02.14-.1.2-.741.822-.221.22-.22.12-.882.2-.36.161-.341.22-.341.34-.16.201-.08.22.12.2.44.401.04.16-.04.14-.24.14-.18.14v.06l.38.241.1.24-.06.12-.26.261-.02.16.08.36.1.161.16.1.281.12.2.14.261.3.1.241.06.24-.02 1.142.04.46.08.281.1.2.281.36.2.301.06.32v.26l-.08.442-.22.68v.421l.421.941.38 1.462.04.4-.04.221-.2.861-.06.701.08.56.16.802.04.38-.04.3-.14.281-.56.962-.261.58-.16.581-.22.5-.161.12-.501.321-.26.28-.04.321.18.44v.261l-.04.16-.1.18-.281.421-.02.18.04.16.12.16.4.421.141.32-.02.18-.16.141-.24.08-.321.2-.26.26-.782 1.483-.28.4-.241.1-.361-.06-.28.12-.301.361-.381.981-.12.661.02.48.08.481-.02.401-.08.26-.14.24-.642.642-.681 1.06-.641 1.383.04.42-.2-.04-.401.2-.281.481-.32.801-.682-.34-.942-.681-.841-.781-.421-.701-.02-1.262-.34-.78-1.243-1.282-.902-1.222-.36-.3-.602-.24-1.784-.081-.841-.48-.461-.762-.4-.9L29.96 83.9l-.36-.2-.963-1.142-.12-.42-.04-.44-.18-.361-.501-.22-.842-.882-.42-.36-.502-.26-1.142-.32-.4.14.14.58-.562.08-1.743-.26-.581-.22-.461-.481-.982-2.183-.601-.6-1.363-.662-.561-.48-.34-.641-.16-.741-.121-2.263-.22-.18-.301.04-.34-.1-.322-.341-.24-.34-.18-.401-.18-.54-.12-.541-.141-1.022-.22-.48-.301-.34-.701-.401-.301-.36.16-.481-.32-.18.26-.541-.04-.621-.24-.481-.401-.22-.982-.46-.461-.321-.42-.38-.622-.882-.3-.58-.141-.481.34-.701 1.223-.521.481-.48.08-.742.02-.96.18-.642.602.18.22-.72.681-1.262.241-.701.08-.881 1.403.26.28-.06.22-.12.802-.801.16-.08h.161l.882.32.5.06.421-.08.14-.08.903-1.062.2-.1 2.284.04.662.681.22.1.1-.04.742-.54.32-.06.802.4.48.12.181-.06.14-.16.381-1.943.12-.24.16-.14 2.746-1.482.641-.701.301-.2.14-.02 2.044.4 1.042 1.182.401.16.38-.02.161-.06.12-.12.04-.18-.34-1.362-.02-.26v-.24l.06-.181.12-.12 1.724-.38.12-.121-.02-.18-.2-.48-.08-.281-.02-.28.02-.281.12-.24.18-.2.32-.14.26.3.321.46.2.2.261.14 1.343.321.4.02.622-.46z" fill="#102D69" stroke="#fff" stroke-linecap="round" stroke-linejoin="round"/><path d="M140.414 67.098l-.12.541-.141.34-.16.18-.18.06-.942-.24-.221.08-.08.18.04.261.101.32.4.681 1.263 1.262.08.26-.08.1-.341.16-.06.201.02.24.08.32.722 1.883.04.26v.241l-.04.22-.101.24-.14.201-.18.2-.14.2.02.22.16.241 1.603 1.242h.24l.281-.12.261-.2.46-.541.361-.541.08-.24.02-.28-.02-.301-.08-.28-.2-.541-.541-.901-.06-.361.04-.54.12-.281.18-.16.261-.06.28.02 1.163.48.2.18.361.581.28.681.181 1.062.1.24.16.24 1.363 1.342.18.36.04.24-.04.882.08.24.181.22.481.281 1.102.34.601.581.561.841.361.822.04.32v.26l-.06.3-.041.1-.48.862-.061.3.02.38.261.882.401.841.381.54.781.461.12.12.1.18.081.261.02.26-.06.22-.121.181-.38.26-.802.3-.14.141-.762 1.102-.461.4-.04.2.06.22.161.2.22.181.541.24h.521l1.443-.5.22.02.161.12.08.22.02.3-.08 1.403.06.24.12.18.16.14 1.223.561 1.823.38.141.1.12.18.14.481.1.641 1.042.44.541.441.321.481.18.12.221.02.24-.04.942-.52.862.12.681.28.12.1.181.32.16.421.08.48.1.201.181.14 1.603.46.28.201.241.28.18.361.281.801.22 1.021-3.266 1.282-1.082-.16-.902-.961-.441-.201-.701.201-1.122.741-.521.1-3.367-1.722-1.423-.381-1.322.3-1.583 1.162-.281.401-.16.861-.441.54-1.002.882-.742 1.241-1.482 4.326-.341.621-.481.561-.06.861-1.022-1.202-.421-2.964-.701-.981-.481-.04-1.142.4-.562.08-.541-.2-1.082-.721-.441-.16-1.122.06-.481-.08-.38-.28-.221-.541-.1-.641-.241-.541-.561-.22-.541-.06-1.783-.521-.501-.32-.261-.1-.28.04-.541.22-.301.02-.842-.12-.521.34-1.502 2.584-.321.3-.461.14-.18-.06-.381-.32-.621.1-.02.02-4.148-.621-2.726.18-1.563-.681-2.986-2.182-.04-.221v-.3l-.16-.2-.501.12-.02-.461-.22-.2-.341-.02-.381.08.321-.401-.261.02-.22-.1-.321-.24-.561-.04-.2-.08-.161-.24-.12-.541-.16-.14h-.902l-.26.08-1.062.54-.481.161h-.682l-.681-.161-2.285-1.281-1.763-.701.08-.42.12-.281.101-.36.461-1.142.14-.46v-.201l.08-.2.14-.12.181-.04.2.02.2.12.221.18.561.901.18.08.161-.02.16-.14.24-.34.08-.2.221-.261.3-.24.181-.08h.22l.201.08.881.76.181.06.18-.02 2.144-1.942.822-.38 1.022.1.2-.1.141-.2.16-.641.1-.2.16-.14.141-.061.28.02.12.04.762-.961.22-.12.201.02.16.2.12.28.141.18.16.14.361.1.881-.04.181-.08.521-.4.14-.04 2.044.34.3-.1.241-.2.621-.921.12-.1 2.084-.681.642-.781.2-.46.06-.201v-.22l-.06-.2-.24-.581-.04-.4.06-.221.12-.24.421-.501.14-.24.06-.24v-.221l-.06-.2-.12-.16-.141-.12-.38-.201-.12-.16-.061-.22-.04-.26.04-.562.141-.56.1-.2.14-.14.641-.261.081-.1.04-.14-.081-.32-.2-.381-.08-.38.02-.281.06-.32.12-.281.301-.5.381-.381 2.585-1.582.12-.22.02-.281-.04-.32-.541-1.743-.06-.32-.08-2.083-.161-.6v-.221l.08-.14.141-.1.881-.16.121-.14.08-.221.06-.26.02-.28-.04-.281-.06-.26-.1-.22-.822-.802-.06-.2v-.24l.361-.922.14-.52.06-.501.721.06 3.507-.34.261-.22.1-.18.04-.301.04-.38.16-.201.261-.12h1.563l.24.06.361.18.281.04.982-.08.741.06.701.26 1.483.741.321-.06z" fill="#ECECEC" stroke="#fff" stroke-linecap="round" stroke-linejoin="round"/><path d="M187.685 77.573l-.06 1.602-1.784 1.422-3.988 1.542-.861.841-.722 1.162-.541 1.362-.38 1.502-.101 1.201.04 2.303-.2.982-.621 1.041-.862.821-.982.44-1.583-.12-.721.12-.621.401-.381.781-.201.661-.22 1.402-.24.62-.542.522-.561.04-.641-.1-.721.12-.481.4-1.022 1.763-.521.42-2.405.961-.22-1.021-.281-.801-.18-.36-.241-.28-.28-.201-1.603-.46-.181-.14-.1-.201-.08-.48-.16-.421-.181-.32-.12-.1-.681-.281-.862-.12-.942.52-.24.04-.221-.02-.18-.12-.321-.48-.541-.441-1.042-.44-.1-.642-.14-.48-.12-.18-.141-.1-1.823-.381-1.223-.56-.16-.141-.12-.18-.06-.24.08-1.402-.02-.3-.08-.221-.161-.12-.22-.02-1.443.5h-.521l-.541-.24-.22-.18-.161-.2-.06-.22.04-.201.461-.4.762-1.102.14-.14.801-.3.381-.261.12-.18.06-.22-.02-.26-.08-.261-.1-.18-.12-.12-.782-.461-.38-.54-.401-.842-.261-.881-.02-.38.06-.301.481-.861.04-.1.161.3.2.18.14.04.141-.06.12-.14.08-.22.14-.841.08-.24.121-.16.22-.061 1.924-.04.22.02.121-.08.4-.52 1.022-.982.101-.12.26-.561-.26-.32-.241-.762.04-.78.14-.742.722.1.461.18.741.622.621.34.261.04 1.262.581.301.06.18-.06.181-.16.16-.26.26-.541.281-.28.381-.221.521-.22.22-.06 2.104.04.221-.02.18-.08.221-.26.06-.201v-.2l-.06-.28-.201-.461-.04-.18.04-.14.12-.1.361-.141.341-.04.441.02 2.605.52.781-.34-.08-.5v-.441l.08-.44.201-.241.38-.22.221-.28.2-.561.12-.2.141-.14.14-.06h.16l.161.06.14.12.28.32.181.08.36.04.421-.1.461-1.202 1.303.02.22.2.08.18.121.582.12.22.16.16.2.12.261.04 4.609-.46.28.12.882.64.201.06 2.244-.02.521.18.14.181.621 1.322.201.22.501.32.18.22.14.241.081.3.24 1.302.1.26.141.201.16.12.18.08h.321z" fill="#ECECEC" stroke="#fff" stroke-linecap="round" stroke-linejoin="round"/><path d="M158.104 36.537l.461 2.744-.041.22-.08.24-.12.22-.16.221-.201.18-.2.08h-.2l-.421-.26-.181-.02-.16.06-.16.14-.682 1.002-2.384 1.341-.401.461-.14.28-.1.32-.061.702-.06.24-.3.48-.08.18-.02.201.34 1.362v.22l-.02.2-.1.2-1.763 2.484-.121.22-.08.26-.02.261.02.26.06.24.121.241.821.801.08.28-.06.14-.841 1.122-.081.22-.06.26-.14 1.683.02.2.08.16.12.16.401.161 1.263.18.14.08.06.12.08.481.08.14.121.12 2.524 1.282.201.02.842-.46.2-.04.22.08 2.265 2.463.441.22 1.503.08.681-.52.16-.08h.161l1.082.74.761.06 1.082-.36.842.42.681.582.14.2.041.2-.161 1.522.02.3.1.24.161.181.2.06.201-.04.541-.36.16-.06.18.04.161.18.901 1.902.201.2.922.441.801.681.321.42.1.241.14.5.06.581.842.22.361.281.461.52-.461 1.202-.421.1-.361-.04-.18-.08-.281-.32-.14-.12-.16-.06h-.161l-.14.06-.14.14-.12.2-.201.56-.22.281-.381.22-.2.24-.081.442v.44l.081.5-.782.341-2.605-.52-.441-.02-.341.04-.36.14-.12.1-.041.14.041.18.2.46.06.281v.2l-.06.2-.221.261-.18.08-.22.02-2.104-.04-.221.06-.521.22-.381.22-.28.281-.261.541-.16.26-.18.16-.181.06-.3-.06-1.263-.58-.26-.04-.621-.34-.742-.621-.461-.18-.721-.1-.14.74-.041.781.241.761.26.32-.26.561-.1.12-1.022.982-.401.52-.12.08-.221-.02-1.923.04-.221.06-.12.16-.08.241-.141.841-.08.22-.12.14-.14.06-.14-.04-.201-.18-.16-.3.06-.3v-.26l-.04-.321-.361-.821-.561-.841-.601-.581-1.102-.34-.481-.28-.181-.221-.08-.24.04-.882-.04-.24-.18-.36-1.363-1.342-.16-.24-.1-.24-.181-1.062-.28-.681-.361-.58-.2-.181-1.162-.48-.281-.02-.261.06-.18.16-.12.28-.04.54.06.361.541.901.2.541.081.28.02.3-.02.281-.081.24-.36.541-.461.54-.261.201-.28.12h-.241l-1.603-1.241-.16-.24-.02-.221.14-.2.18-.2.141-.2.1-.241.04-.22v-.24l-.04-.261-.722-1.883-.08-.32-.02-.24.06-.2.341-.16.08-.1-.08-.261-1.262-1.262-.401-.68-.1-.321-.04-.26.08-.18.22-.081.942.24.18-.06.161-.18.14-.34.12-.541.281-.32.18-.681.08-.922.08-.32.902-.961-.22-1.542-.281-.441-.481-.18-.16-.16-.1-.26-.081-.782-1.222-2.483-.481-.721-.16-.34-.06-.381.04-.36.481-1.022-.04-1.101.02-1.242-.02-.28-.221-.882-.12-1.021-.14-.44-.201-.361-.02-.22.101-.24.781-.461.621-.641.902-.661.14-.12.121-.36-.061-.461-.18-.5.04-.482.742-2.503 1.122-2.864.32-.08.281-.26.501-.681.341-.24.26-.02.561.2.261-.02.08-.16-.02-.561.08-.14.441.02.18.12.14.28.301.46.361.141.2-.4-.06-.601-.381-.5-.06-1.142-.3-.822-.542-.6-.721-.42-.561-.562-.281-.9-.22-.982-.341-.861-.941-1.402v-.641l.801-.5.681.1 1.263.76.681-.08 3.046.861.321.18.681.582.381.2.421.02.901-.2.341.12-.06.12.1.5.181.601.18.4.28.321 1.042.661.702.2 1.383-.04.621.26-.541.221.18.34.261.24-.041.602.061.6.2.461.401.3.32-.84.662-.06z" fill="#ECECEC" stroke="#fff" stroke-linecap="round" stroke-linejoin="round"/><path d="M140.395 67.1l-.321.06-1.483-.742-.701-.26-.741-.06-.982.08-.281-.04-.361-.18-.24-.06h-1.563l-.261.12-.16.2-.04.38-.04.3-.1.181-.261.22-3.507.34-.721-.06-.561-.18-1.223-.78-1.042-.38-.32-.241-.201-.3-.18-.341-.281-.32-.38-.321-1.102-.741-.882-.44-.601-.18-.762-.04-.641.06-.321-.08-.22-.141-.18-.44-.201-.22-.341-.181-.681-.14-.441-.16-.4-.2-.401-.281-.201-.08-.18-.02-.2.24-.141.36-.1.18-.14.12-.341.121-.14.08-.441.5-.301.201h-.28l-.321-.1-.4-.18-.261.04-.2.1-.762-.2-.461-.942-.401-.56-.48-.38-.762-.381-.12-.1-.08-.16-.06-.461-.101-.22-.16-.16-.421-.261-.781-.2-1.343-1.062-.521-.14-2.264.18-.161-.08-.32-.36-.762-1.242-.561-.661-1.282-.861.04-.36.12-.481.14-.44.1-.521.02-.922.02-.18.181-.54-.04-.221-.281-.34-.22-.18-.201-.1-.4-.1-.221-.181-1.082-1.042-.22-.14-1.002-.32-.682-.46-.22-.221-.34-.54.14-.221.54-.26.602-.16.28.02.06-.642v-.16l-.16-.76v-.241l.12-.28.481-.481 1.623.62.241-.02 1.783-1.702.582-.28.44-.04 1.163.58h.441l.901-.26.161.04 1.202.822.22.06.181-.06.16-.18.381-1.262.14-.28.18-.241 1.483-.42.141.06.12.16.28 1.181.201.481.24.28.12.04.161-.08 1.883-1.862.281-.12 1.242-.04.822.26.16.12.08.18.041.24v.942l.06.28.14.26.24.16 1.704.341.16.14.22.461.301.44.361.321.32.18.261.06.12.1.461.601.14.1.341.08 1.142.982.441-.32.461-.18 2.645-.261.401-.2.18-.18.141-.2.12-.261.12-.581.14-.2.161-.14 3.066-1.462.16-.22.08-.281.04-.62.06-.281.08-.22.121-.16.16-.08 3.126 1 1.022.942 1.242.66 1.203-.1.902-1.241.661-.48.361-.502.32-.64.541-.801.661-.561.582-.1.601.04.36-.08-1.122 2.864-.741 2.503-.04.48.18.501.06.46-.12.361-.14.12-.902.661-.621.641-.782.46-.1.241.02.22.2.36.141.441.12 1.022.22.88.02.281-.02 1.242.041 1.101-.481 1.022-.041.36.061.38.16.341.481.721 1.222 2.484.08.78.101.26.16.161.481.18.28.44.221 1.543-.902.961-.08.32-.08.922-.181.68-.28.321zM27.171 30.209l.982.84.5.281 1.945.22.18.14.14.2.2.401.221.28.36.281.742.16.902.04.842.22.44.241.201.22.14.3.16.621.04.401.02.4-.06 1.002v.3l.06.541.1.6.04.481-.02.24-.14.441.1.38.221.462.621.96.2.501.081.38-.22.401-.441.561-.1.3.08.14.22.221.621.44.361.321-.32.14-.181.2-.12.24-.02.281.02.28.08.281.2.48.02.18-.12.121-1.723.38-.12.12-.06.18v.241l.02.26.34 1.362-.04.18-.12.12-.16.06-.381.02-.401-.16-1.042-1.18-2.044-.401-.14.02-.3.2-.642.7-2.745 1.483-.16.14-.121.24-.38 1.943-.141.16-.18.06-.481-.12-.802-.4-.32.06-.742.54-.1.04-.22-.1-.662-.68-2.284-.04-.2.1-.902 1.06-.14.08-.422.081-.5-.06-.882-.32h-.16l-.16.08-.803.8-.22.12-.28.06-1.403-.26-.18-.34-.421-.16-1.203-.721.02-.5.2-.622-.06-.66-.5-.481-1.103-.12-.44-.44h-.04l-4.47-2.404-.1-.28v-.421l-.06-.48-.26-.461-.44-.36-.462-.281-.42-.38-.261-.701-.02-.681.22-1.062-.1-.68-.22-.562-.341-.52-.721-.781L1.4 38.48l-.3-.541.36-.56.32-.201.2-.22.041-.601-.1-.661-.24-.4L1 34.573l2.164.16.561.401.18.44v.782l.1.36.342.3.42.14.862.02.2.121.1.16-.02.22-.12.26-.24.161-.04.1.12.2.521.521.12.18.12.3.08.502.361 1.281.301.46.5.06.422-.3v-.4l-.18-.5-.08-.562.08-.82.16-.441.58-.741.081-.741.24-.36.341-.24.34-.341.903-1.683.32-.32.882-.48.34-.321.1-.06.281.02.12-.08.06-.16-.06-.441.14-.44.101-.221 1.042-.901 1.182-.36 2.225-.16 1.583.28.38-.04.321-.321.661-1.021.381-.36.481-.181.481-.04.521.08.18-.06.421-.28.26-.06.241.08 2.746 1.662 1.022.06.24-.24zM85.183 69.98l.421.461.12.2.08.22v.221l-.12.2-.2.14-1.042.321-.18.1-.06.18.44 1.603.08.74-.04.842-.62 2.463v.32l.08.28.12.221.5.48.141.261v.22l-.06.942.04.22.08.24.16.22 1.103 1.042.56.34.261.04.28-.08.502-.48.26-.08.26.02.462.28.66.64.863.582.781 1.04 1.182.762h.12l.14-.08.522-.801.14-.1.16-.06.18.02 1.564.82.12.08.34.08 1.444.181.24.1.18.24.12.381.06.721.06.42.101.301.14.2 1.403 1.322.26.1.622-.1 1.403.26.42-.04 1.143-.46.22-.02.12.08 1.403 1.402.18.24.061.28-.081.1-.28.18-.201.06-.641.04-.16.02-.16.261-.061.52-.06.221-.14.3-.962 1.142-.14.18-.12.541.08.3.24.06.1.1.241.521.18.12.201.04.461.04.36.08.261.221.16.22.02.16v.2l-.14.462-.461 1.141-.1.36-.12.28-.081.421-.681-.26-1.463-1.262-.621-.38-1.323-.44-1.422-.722-.662-.18-1.382-.02-.14-.1-.14-.22-.141-.2h-.22l-.12.2-.081.6-.1.24-.401.481-.16.1-2.245.621-.6-.02.2-.64.02-.621-.14-.601-.201-.641-2.305-.18-1.643-.581-.661.1-.08.06-.06.16.04.441-.401.961-.02 1.282.12 1.382v1.242l-.621 2.803-.22.581-.06.3.06.281.14.36.2.381-.34.781-.602.06-1.543-.641-1.543-.2-.44.16-.18.441-.121.54-.28.521-.161.861-1.543 1.362-.561.921-.12 1.202.02 1.362-.14 1.161-.602.601-.48-.02-.241-.301-.18-.42-.301-.421-.2-.04-.461.16-.22-.04-.101-.18v-.3l-.04-.281-.18-.18-.461.04-.882.441-.44.1-.362-.1-1.182-.621-.701-.821-.441.28-.661 1.783-.461.48-1.543.661-.582.481-.24.08-.28.04-2.946-1.041-4.188-.461-1.002-.441-.24-.22-.522-.621-.12-.26-.14-.601.06-.14.16-.06.2-.421.08-.06.16.02.121-.04.06-.28-.08-.261-.18-.12-.2-.1-.14-.14-.201-.36-.481-.762-.26-.28-2.005-1.101-.64-.541-.542-.421-.561-.3-1.182-.32-.581-.601-1.423-2.864-.702-1.061-.4-.241-1.103-.18-.56-.26-.522-.501-.46-.701-.301-.821-.08-.861-.541.06-.501-.26-.501-.421-.521-.3-.481-.12-.04-.421.64-1.382.682-1.061.642-.641.14-.24.08-.26.02-.402-.08-.48-.02-.48.12-.662.38-.98.301-.361.28-.12.362.06.24-.1.28-.401.782-1.482.26-.26.321-.2.24-.08.161-.141.02-.18-.14-.32-.401-.421-.12-.16-.04-.16.02-.18.28-.421.1-.18.04-.16v-.261l-.18-.44.04-.321.26-.28.502-.321.16-.12.22-.5.16-.582.261-.58.561-.962.14-.28.04-.3-.04-.381-.16-.801-.08-.56.06-.702.2-.86.04-.221-.04-.4-.38-1.463-.42-.94 1.723-1.002h.3l.34.24.161.06.621.02.361.12.18.12.521.3.26.04.301-.04.542-.28.38-.24 1.423-.44.16-.16.16-.521.161-.32.18-.16.341-.181.2-.04.22.04.301.16.361.28.18.06.562.04.38.14.782.02 1.723-.22.581-.24.541-.54.26-.12.362-.08h.46l.361.1.26.18.1.3.121.18.34.12.241.22.2.301.14.12.221.1.22.02.301-.04 1.383-.78.24-.04.381-.02.381.1.501.26.541.08 3.286-.14.381.1-.04.26.06.18.702.1.32-.04.32-.08.702-.46.441-.44.2-.101.962-.2.401-.32.2-.281.06-1.202.06-.28.181-.36.2-.301.381-.32.24-.02.161.18.22.28.261.2.862.26.16.141.1.18.04.4.14.1.301.04.581-.12.361.14.18.121.26.641.121.18.3.3.261.14.2-.04z" fill="#ECECEC" stroke="#fff" stroke-linecap="round" stroke-linejoin="round"/><path d="M128.665 67.58l-.061.5-.14.521-.361.922v.24l.061.2.821.801.1.22.06.26.041.281-.02.28-.061.26-.08.221-.12.14-.882.16-.14.1-.08.141v.22l.16.601.08 2.083.06.32.542 1.743.04.32-.02.28-.121.22-2.585 1.583-.38.38-.301.5-.12.281-.06.32-.02.281.08.38.2.381.08.32-.04.14-.08.1-.641.261-.141.14-.1.2-.14.561-.04.561.04.26.06.22.12.161.381.2.14.12.121.16.06.2v.221l-.06.24-.141.24-.42.501-.121.24-.06.221.04.4.241.581.06.2v.221l-.06.2-.201.46-.641.782-2.084.68-.12.101-.621.921-.241.2-.3.1-2.044-.34-.141.04-.521.4-.18.08-.882.04-.361-.1-.16-.14-.14-.18-.12-.28-.161-.2-.2-.02-.22.12-.762.961-.12-.04-.281-.02-.14.06-.16.14-.101.2-.16.641-.14.2-.201.1-1.021-.1-.822.381-2.144 1.943-.181.02-.18-.06-.882-.761-.2-.08h-.221l-.18.08-.3.24-.221.26-.08.2-.241.341-.16.14-.16.02-.18-.08-.562-.901-.22-.18-.2-.12-.201-.02-.18.04-.14.12-.081.2-.02-.16-.16-.22-.26-.22-.361-.08-.461-.04-.2-.041-.181-.12-.24-.52-.1-.101-.241-.06-.08-.3.12-.541.14-.18.962-1.142.141-.3.06-.22.06-.521.16-.26.16-.02.642-.04.2-.06.281-.181.08-.1-.06-.28-.181-.24-1.402-1.403-.121-.08-.22.02-1.142.46-.421.04-1.403-.26-.621.1-.26-.1-1.403-1.321-.14-.2-.1-.3-.06-.421-.061-.722-.12-.38-.18-.24-.241-.1-1.443-.18-.34-.08-.12-.08-1.564-.822-.18-.02-.16.06-.14.1-.522.801-.14.08h-.12l-1.183-.76-.781-1.042-.862-.58-.661-.642-.461-.28-.26-.02-.261.08-.501.48-.28.08-.261-.04-.561-.34-1.102-1.041-.16-.22-.08-.24-.04-.221.06-.941v-.22l-.141-.26-.501-.481-.12-.22-.08-.281v-.32l.62-2.464.04-.841-.08-.741-.44-1.602.06-.18.18-.1 1.042-.32.2-.141.121-.2v-.22l-.08-.221-.12-.2-.421-.46.24-.101.341-.3.12-.22.14-.361.18-.28.562-.3.12-.221-.1-.36.02-.12.14-.201.14-.02.241.02 1.162.5.32.02.402-.04.701-.22.862.02.5.22.842-.14 2.305-1.121.08-.54-.08-.501-.14-.401-.16-.26-.161-.18-1.343-1.002-.14-.18-.04-.2.08-.34.14-.241.682-.781.24-.36.08-.181.08-.38.16-.361.241-.26.24-.08.161.02.38.24.161.04.24-.04 1.203-.721 1.042-.4 1.042-.942.18-.1.762.12.4-.08.241-.12.18-.16.101-.16.08-.2.12-.742.1-.36.241-.44.32-.301.301-.1.12-.12.04-.24-.02-.481.04-.381 1.283.861.561.661.761 1.242.321.36.16.08 2.265-.18.521.14 1.342 1.062.782.2.421.26.16.16.1.22.06.461.08.16.121.1.761.381.481.38.401.562.461.94.761.201.201-.1.26-.04.401.18.321.1h.28l.301-.2.441-.5.14-.08.341-.121.14-.12.1-.18.14-.36.201-.241.18.02.2.08.401.28.401.2.441.16.681.141.341.18.2.22.181.441.22.14.321.08.641-.06.761.04.602.18.881.441 1.102.741.381.32.281.321.18.34.2.3.321.241 1.042.38 1.222.782.562.18zM76.664 43.748l.1.2.2.24.201.121.621.2.18.14.12.22.04.241-.08.3-.24.34-.841.802-.08.14-.04.16.16.38.06.261-.04.42.02.12.18.441v.22l-.22.441-.662.16-1.062.06-.52-.06-.421-.1-.14-.08-.281.02-.28.08-.482.361-.44.4-.181.1-1.323.421-2.124.38-1.242.521-.421-.1-.16-.18-.04-.28.06-.761-.1-.34-.802-.922-.2-.38-.16-.561-.221-.42-.722-.922-.1-.14-.02-.22.18-.521-.02-.2-.26-.24-.541-.341-.14-.18.02-.14.1-.14.561-.341 1.403-.521h.34l.742.32.14.02.18-.04.16-.1.161-.24-.08-.5.08-.261.12-.1 3.908-1.142 1.463-.16.32.06.341.2.461.481.36.28.141.16.1.301.12.2.22.1.702.18.22.16.201.281z" fill="#ECECEC" stroke="#fff" stroke-linecap="round" stroke-linejoin="round"/><path fill-rule="evenodd" clip-rule="evenodd" d="M91.404 25.503l-.06-.18-1.062-.942-.3-.58-.261-1.362-.761.2-.421-.12-.18-.18-.562-.661-.16-.12-.16-.04-.702.06-.24-.12-.28-.241-.221-.02-.2.04-.341.16h-.24l-.301-.12-.16-.02-.14.06-.121.14-.34.561-.161.22-.621.521-.3.38-.322.621-.2.28-.26.221-.481.26-.22.16-.362.341-.26.2-1.082.521-1.202.801-2.646.681-.52.06-.261-.04-.14-.18-.1-.52-.1-.241-.141-.08-.2-.02-.461.02-.561-.08-1.323.02-.32.1-.201.14-.2.34-.06.38v.281l-.04.38-.1.361-.101.2-.18.14-.24.14-.862.722-.441.22-.3-.06-.402-.18-.24-.04-.1.1-.04.18.06.18.18.601v.18l-.02.441.18.64-.02.281-.16.22-.2.541-.24.34-.241.14-.22.041-.522-.04-.841.08-.22.06-.241.16-.642.541-.38.14-.962-.36-2.325.4-.6-.08-.682-.24-.742-.16-1.222.04-.36.1-.241.1-.12.2-.06.2-.04.461.04.28-.08.34-.161.261-.24.1-.241.02-.4-.02-.281.1-1.764 1.102-.36.46-.16.18-.341.261-.2.04-.221-.08-.2-.16-.241-.1-.24.02-2.826 1.482-.521.14h-.14l-.301-.14-.2-.04h-.321l-.24.08-.321.22-.28.28-1.263.822-1.743.72-.341.2-.16.201-.401.62-.28.682-.281.36-.341.24-.761.762-.301.14-.461.12-.36.2-.321.44.36.922v.44l-.2.481-.12.32v.201l.1.14.16.06.3.02.322-.08.6-.34.321-.04.401.16.481.12.521.24 1.423 1.382.26.18.541.06.401-.04.4-.1.241-.02.301.02.561.16.32.16.261.161.762.861.2.16.18.1.982.3.18.121.12.18.101.38 1.543.802.26.26.14.22-.06.16v.401l.04.24.302.982.02.22-.04.2-.361.16-.361.04-.14.221v.801l-.06.3-.361.942.02.3.1.46-.02.221-.3 1.021-.04.24-.02.261.12.18.28.12.22.12.06.16.02.141-.1.2-.74.821-.221.22-.22.12-.882.201-.361.16-.34.22-.342.341-.16.2-.08.22.12.2.441.401.04.16-.04.14-.24.141-.18.14v.06l.38.24.1.24-.06.121-.26.26-.02.16.08.361.1.16.16.1.28.12.201.14.26.301.1.24.061.24-.02 1.142.04.46.08.281.1.2.281.361.2.3.06.32v.261l-.08.44-.22.682v.42l1.723-1.001h.3l.341.24.16.06.622.02.36.12.181.12.521.301.26.04.301-.04.541-.28.381-.24 1.423-.441.16-.16.16-.521.16-.32.181-.16.34-.181.201-.04.22.04.301.16.36.28.181.06.561.04.381.14.782.021 1.723-.22.581-.24.541-.541.26-.12.361-.08h.461l.36.1.261.18.1.3.12.18.341.12.241.22.2.301.14.12.221.1.22.02.301-.04 1.383-.78.24-.04.381-.02.38.1.502.26.54.08 3.287-.14.38.1-.04.26.06.18.702.1.32-.04.322-.08.7-.46.442-.44.2-.1.962-.201.4-.32.201-.28.06-1.203.06-.28.18-.36.201-.3.38-.321.241-.02.16.18.221.28.26.2.862.261.16.14.1.18.04.401.141.1.3.04.582-.12.36.14.181.12.26.641.12.18.301.3.26.141.201-.04.24-.1.341-.3.12-.22.14-.361.181-.28.561-.301.12-.22-.1-.36.02-.121.14-.2.14-.02.241.02 1.163.5.32.02.401-.04.701-.22.862.02.501.22.842-.14 2.304-1.121.08-.541-.08-.5-.14-.401-.16-.26-.16-.18-1.343-1.002-.14-.18-.04-.2.08-.341.14-.24.681-.781.24-.361.08-.18.08-.38.161-.361.24-.26.241-.08.16.02.381.24.16.04.241-.04 1.202-.721 1.042-.4 1.042-.942.18-.1.762.12.401-.08.24-.12.181-.16.1-.16.08-.201.12-.741.101-.36.24-.441.321-.3.3-.1.121-.12.04-.241-.02-.48.04-.381.04-.36.12-.481.14-.44.1-.522.02-.92.02-.181.181-.54-.04-.221-.281-.34-.22-.18-.201-.1-.4-.101-.221-.18-1.082-1.042-.22-.14-1.002-.32-.682-.46-.22-.221-.34-.54.14-.221.54-.26.602-.16.28.02.06-.642v-.16l-.16-.76v-.241l.12-.28.481-.481.08-.12-.02-.2-.12-.28-.38-.582-.281-.34-.22-.24-.482-.32-.16-.261.02-.22.04-.14.481-.501.12-.2.1-.301-.06-.26-.46-1.322-.12-.48-.08-.381v-.621l-.1-.801-.101-.26-.12-.26-.26-.221-.181-.1h-.22l-1.223.14-.802-.18-.26-.02-.561.12h-.421l-.16-.08-.16-.18-.1-.24-.081-.522-.12-.38-.26-.4-.181-.18-.18-.121-1.463-.64-.08-.041-.06-.18-.04-.3.04-.681.18-.601.24-.36.26-.461.101-.26.04-.381-.02-.46-.26-1.863-.16-.42-.201-.361-.08-.28.02-.381.1-.24.2-.321.02-.18zm-14.94 17.965l.201.28.1.2.2.24.201.12.621.201.18.14.12.22.04.241-.08.3-.24.34-.841.802-.08.14-.04.16.16.38.06.261-.04.42.02.12.18.441v.22l-.22.441-.662.16-1.062.06-.52-.06-.421-.1-.14-.08-.281.02-.28.08-.482.36-.44.401-.181.1-1.323.421-2.124.38-1.242.521-.421-.1-.16-.18-.04-.28.06-.761-.1-.34-.802-.922-.2-.38-.16-.561-.221-.42-.722-.922-.1-.14-.02-.22.18-.521-.02-.2-.26-.24-.541-.341-.14-.18.02-.14.1-.141.561-.34 1.403-.521h.34l.742.32.14.02.18-.04.16-.1.161-.24-.08-.5.08-.261.12-.1 3.908-1.142 1.463-.16.32.06.341.2.461.48.36.281.141.16.1.3.12.201.22.1.702.18.22.16z" fill="#ECECEC"/><path d="M91.344 25.323l.475-.159a.5.5 0 00-.143-.216l-.332.375zm.06.18l.497.055a.5.5 0 00-.022-.213l-.475.158zm-1.122-1.122l-.444.23a.498.498 0 00.113.145l.331-.375zm-.3-.58l-.492.093a.5.5 0 00.047.136l.444-.23zm-.261-1.362l.491-.094a.5.5 0 00-.618-.39l.127.484zm-.761.2l-.138.48a.5.5 0 00.265.003l-.127-.483zm-.421-.12l-.354.353a.5.5 0 00.216.128l.138-.481zm-.18-.18l-.382.323.028.03.353-.354zm-.562-.661l.381-.324a.498.498 0 00-.08-.076l-.3.4zm-.16-.12l.3-.4a.502.502 0 00-.179-.086l-.121.486zm-.16-.04l.12-.486a.5.5 0 00-.163-.013l.043.498zm-.702.06l-.223.447a.5.5 0 00.266.05l-.043-.497zm-.24-.12l-.325.38a.5.5 0 00.101.067l.224-.448zm-.28-.241l.325-.38a.5.5 0 00-.28-.118l-.046.498zm-.221-.02l.045-.498a.5.5 0 00-.143.008l.098.49zm-.2.04l-.099-.49a.498.498 0 00-.114.038l.212.452zm-.341.16v.5a.499.499 0 00.213-.047l-.213-.453zm-.24 0l-.186.465a.5.5 0 00.185.035v-.5zm-.301-.12l.185-.464a.497.497 0 00-.123-.032l-.062.496zm-.16-.02l.061-.496a.5.5 0 00-.258.037l.196.46zm-.14.06l-.198-.46a.499.499 0 00-.182.135l.38.325zm-.121.14l-.38-.325a.492.492 0 00-.047.066l.427.26zm-.34.561l.403.294a.473.473 0 00.024-.034l-.428-.26zm-.161.22l.321.384a.504.504 0 00.083-.09l-.404-.294zm-.621.521l-.322-.383a.498.498 0 00-.07.073l.392.31zm-.3.38l-.393-.31a.493.493 0 00-.052.081l.444.23zm-.322.621l.407.291a.505.505 0 00.038-.061l-.445-.23zm-.2.28l.323.383a.5.5 0 00.084-.091l-.407-.291zm-.26.221l.238.44a.495.495 0 00.085-.058l-.323-.382zm-.481.26l-.238-.44a.5.5 0 00-.056.036l.294.404zm-.22.16l-.295-.404a.52.52 0 00-.049.041l.343.364zm-.362.341l.305.397a.5.5 0 00.039-.033l-.344-.364zm-.26.2l.217.45a.5.5 0 00.088-.053l-.305-.397zm-1.082.521l-.217-.45a.5.5 0 00-.06.034l.277.416zm-1.202.801l.124.484a.501.501 0 00.153-.068l-.277-.416zm-2.646.681l.058.497a.516.516 0 00.067-.013l-.125-.484zm-.52.06l-.077.494a.5.5 0 00.134.003l-.058-.497zm-.261-.04l-.395.307a.5.5 0 00.319.187l.076-.494zm-.14-.18l-.491.094a.5.5 0 00.096.213l.395-.307zm-.1-.52l.49-.095a.494.494 0 00-.03-.098l-.46.192zm-.1-.241l.46-.193a.5.5 0 00-.213-.241l-.248.434zm-.141-.08l.248-.434a.5.5 0 00-.198-.064l-.05.498zm-.2-.02l.05-.498a.486.486 0 00-.072-.002l.022.5zm-.461.02l-.071.495c.03.004.061.006.092.004l-.021-.5zm-.561-.08l.07-.495a.499.499 0 00-.078-.005l.008.5zm-1.323.02l-.008-.5a.5.5 0 00-.141.022l.149.478zm-.32.1l-.15-.477a.499.499 0 00-.137.067l.286.41zm-.201.14l-.287-.41a.498.498 0 00-.144.156l.431.254zm-.2.34l-.431-.253a.5.5 0 00-.063.175l.494.078zm-.06.38l-.494-.077a.497.497 0 00-.007.078h.5zm0 .281l.497.053a.483.483 0 00.002-.053h-.5zm-.04.38l.481.135a.492.492 0 00.016-.082l-.498-.052zm-.1.361l.446.224a.506.506 0 00.035-.09l-.482-.134zm-.101.2l.307.395a.5.5 0 00.14-.17l-.447-.225zm-.18.14l.252.433a.51.51 0 00.055-.038l-.307-.394zm-.24.14l-.253-.431a.495.495 0 00-.069.048l.321.384zm-.862.722l.223.447a.501.501 0 00.097-.064l-.32-.383zm-.441.22l-.098.49a.5.5 0 00.321-.043l-.223-.447zm-.3-.06l-.206.456c.034.016.07.027.107.034l.098-.49zm-.402-.18l.205-.456a.505.505 0 00-.123-.037l-.082.493zm-.24-.04l.082-.493a.5.5 0 00-.436.14l.354.353zm-.1.1l-.354-.354a.5.5 0 00-.135.245l.489.109zm-.04.18l-.489-.108a.5.5 0 00.014.266l.474-.158zm.06.18l.478-.143a.397.397 0 00-.004-.015l-.474.158zm.18.601h.5a.5.5 0 00-.021-.144l-.479.144zm0 .18l.5.023v-.023h-.5zm-.02.441l-.5-.023a.5.5 0 00.019.159l.481-.136zm.18.64l.499.037a.497.497 0 00-.017-.172l-.482.136zm-.02.281l.405.294a.501.501 0 00.094-.258l-.499-.036zm-.16.22l-.404-.294a.503.503 0 00-.065.12l.469.174zm-.2.541l.408.289a.5.5 0 00.06-.115l-.468-.174zm-.24.34l.25.433a.5.5 0 00.157-.144l-.408-.288zm-.241.14l.089.493a.5.5 0 00.163-.06l-.252-.432zm-.22.041l-.04.498a.497.497 0 00.129-.006l-.09-.492zm-.522-.04l.038-.499a.49.49 0 00-.085.001l.047.498zm-.841.08l-.048-.498a.5.5 0 00-.084.016l.132.482zm-.22.06l-.132-.482a.499.499 0 00-.146.066l.277.416zm-.241.16l-.278-.416a.492.492 0 00-.045.034l.323.382zm-.642.541l.173.47a.5.5 0 00.15-.088l-.323-.382zm-.38.14l-.176.468a.5.5 0 00.348.001l-.172-.469zm-.962-.36l.175-.468a.5.5 0 00-.26-.025l.085.493zm-2.325.4l-.066.496a.5.5 0 00.151-.003l-.085-.493zm-.6-.08l-.167.472c.032.011.066.02.1.024l.066-.496zm-.682-.24l.166-.472a.517.517 0 00-.06-.017l-.106.489zm-.742-.16l.106-.49a.505.505 0 00-.122-.01l.016.5zm-1.222.04l-.016-.5a.507.507 0 00-.118.018l.134.482zm-.36.1l-.135-.482a.525.525 0 00-.058.02l.192.462zm-.241.1l-.193-.462a.5.5 0 00-.236.205l.429.257zm-.12.2l-.43-.257a.5.5 0 00-.05.114l.48.143zm-.06.2l-.48-.143a.499.499 0 00-.019.1l.498.044zm-.04.461l-.499-.043a.5.5 0 00.003.114l.495-.07zm.04.28l.486.115a.5.5 0 00.008-.185l-.495.07zm-.08.34l.425.263a.498.498 0 00.06-.148l-.486-.114zm-.161.261l.192.462a.5.5 0 00.234-.2l-.426-.262zm-.24.1l.041.499a.5.5 0 00.15-.037l-.191-.462zm-.241.02l-.025.5.067-.001-.042-.499zm-.4-.02l.024-.499a.5.5 0 00-.193.029l.168.47zm-.281.1l-.168-.47a.497.497 0 00-.097.046l.265.424zm-1.764 1.102l-.265-.424a.499.499 0 00-.128.116l.393.308zm-.36.46l.373.333a.456.456 0 00.02-.024l-.394-.308zm-.16.18l.303.398a.495.495 0 00.07-.065l-.374-.332zm-.341.261l.098.49a.5.5 0 00.205-.092l-.303-.398zm-.2.04l-.172.47a.501.501 0 00.27.02l-.099-.49zm-.221-.08l-.313.39a.5.5 0 00.142.08l.17-.47zm-.2-.16l.312-.39a.496.496 0 00-.12-.072l-.193.462zm-.241-.1l.192-.462a.501.501 0 00-.234-.037l.042.499zm-.24.02l-.042-.498a.5.5 0 00-.19.055l.231.443zm-2.826 1.482l.13.483a.494.494 0 00.102-.04l-.232-.443zm-.521.14v.5a.5.5 0 00.13-.017l-.13-.483zm-.14 0l-.212.453a.5.5 0 00.212.047v-.5zm-.301-.14l.211-.453a.499.499 0 00-.113-.037l-.098.49zm-.2-.04l.098-.49a.503.503 0 00-.098-.01v.5zm-.321 0v-.5a.499.499 0 00-.158.025l.158.475zm-.24.08l-.159-.474a.5.5 0 00-.125.062l.283.412zm-.321.22l-.283-.412a.498.498 0 00-.07.059l.353.353zm-.28.28l.272.42a.503.503 0 00.08-.066l-.353-.353zm-1.263.822l.191.462a.51.51 0 00.081-.043l-.272-.42zm-1.743.72l-.192-.462a.516.516 0 00-.062.032l.254.43zm-.341.2l-.254-.43a.5.5 0 00-.137.118l.39.313zm-.16.201l-.39-.312a.52.52 0 00-.03.04l.42.272zm-.401.62l-.42-.27a.5.5 0 00-.043.08l.463.19zm-.28.682l.394.307a.5.5 0 00.068-.117l-.463-.19zm-.281.36l.288.409a.5.5 0 00.106-.102l-.394-.307zm-.341.24l-.288-.408a.496.496 0 00-.065.055l.353.354zm-.761.762l.21.453a.5.5 0 00.143-.1l-.353-.353zm-.301.14l.126.484a.505.505 0 00.085-.031l-.211-.453zm-.461.12l-.126-.484a.499.499 0 00-.117.047l.243.437zm-.36.2l-.243-.437a.5.5 0 00-.162.143l.404.294zm-.321.44l-.405-.293a.5.5 0 00-.06.476l.465-.182zm.36.922h.5a.5.5 0 00-.034-.182l-.466.182zm0 .44l.462.193a.5.5 0 00.038-.192h-.5zm-.2.481l-.462-.192a.483.483 0 00-.006.017l.468.175zm-.12.32l-.468-.175a.501.501 0 00-.032.176h.5zm0 .201h-.5a.5.5 0 00.093.29l.407-.29zm.1.14l-.407.29a.5.5 0 00.232.178l.175-.468zm.16.06l-.175.469a.503.503 0 00.142.03l.033-.499zm.3.02l-.032.5a.502.502 0 00.154-.015l-.121-.485zm.322-.08l.12.485a.504.504 0 00.126-.05l-.246-.435zm.6-.34l-.061-.496a.5.5 0 00-.185.06l.247.436zm.321-.04l.186-.465a.5.5 0 00-.248-.032l.062.497zm.401.16l-.185.464c.02.008.042.015.064.021l.121-.485zm.481.12l.21-.454a.491.491 0 00-.089-.031l-.121.485zm.521.24l.348-.358a.5.5 0 00-.139-.096l-.209.454zm1.423 1.382l-.349.359c.02.02.042.037.064.052l.285-.41zm.26.18l-.284.412a.5.5 0 00.23.085l.054-.497zm.541.06l-.055.497c.035.004.07.005.105.001l-.05-.498zm.401-.04l.05.498a.51.51 0 00.071-.012l-.12-.486zm.4-.1l-.04-.498a.5.5 0 00-.08.013l.12.485zm.241-.02l.034-.499a.517.517 0 00-.075.001l.041.498zm.301.02l.137-.48a.505.505 0 00-.104-.019l-.033.5zm.561.16l.224-.447a.502.502 0 00-.087-.033l-.137.48zm.32.16l.263-.425a.48.48 0 00-.039-.021l-.223.447zm.261.161l.375-.331a.499.499 0 00-.113-.095l-.262.426zm.762.861l-.375.331a.5.5 0 00.063.06l.312-.39zm.2.16l-.312.39a.509.509 0 00.07.047l.242-.437zm.18.1l-.242.438c.03.017.063.03.096.04l.146-.477zm.982.3l.278-.415a.498.498 0 00-.131-.062l-.147.478zm.18.121l.417-.277a.498.498 0 00-.14-.14l-.276.417zm.12.18l.484-.127a.5.5 0 00-.067-.15l-.416.277zm.101.38l-.483.128a.5.5 0 00.253.316l.23-.443zm1.543.802l.354-.354a.498.498 0 00-.123-.09l-.23.444zm.26.26l.422-.268a.504.504 0 00-.068-.085l-.353.353zm.14.22l.469.176a.5.5 0 00-.046-.444l-.422.268zm-.06.16l-.467-.175a.5.5 0 00-.032.176h.5zm0 .401h-.5c0 .028.003.055.008.083l.493-.083zm.04.24l-.492.083a.487.487 0 00.015.064l.478-.146zm.302.982l.497-.045a.498.498 0 00-.02-.102l-.477.147zm.02.22l.49.098a.5.5 0 00.007-.143l-.498.045zm-.04.2l.202.457a.5.5 0 00.288-.358l-.49-.099zm-.361.16l.055.498c.05-.006.1-.02.148-.04l-.203-.457zm-.361.04l-.055-.496a.5.5 0 00-.367.228l.422.269zm-.14.221l-.422-.269a.5.5 0 00-.078.269h.5zm0 .801l.49.098a.498.498 0 00.01-.098h-.5zm-.06.3l.467.18a.497.497 0 00.023-.081l-.49-.099zm-.361.942l-.467-.18a.5.5 0 00-.032.213l.499-.033zm.02.3l-.499.033a.488.488 0 00.01.073l.489-.106zm.1.46l.498.046a.501.501 0 00-.01-.152l-.488.107zm-.02.221l.48.141a.504.504 0 00.018-.096l-.498-.045zm-.3 1.021l-.48-.14a.513.513 0 00-.014.058l.494.082zm-.04.24l-.494-.082a.5.5 0 00-.005.044l.498.039zm-.02.261l-.5-.038a.5.5 0 00.084.316l.415-.278zm.12.18l-.416.278a.5.5 0 00.219.182l.197-.46zm.28.12l.24-.439a.504.504 0 00-.043-.02l-.197.46zm.22.12l.469-.175a.499.499 0 00-.23-.263l-.238.439zm.06.16l.496-.07a.5.5 0 00-.027-.105l-.468.176zm.02.141l.448.224a.5.5 0 00.048-.295l-.495.071zm-.1.2l.372.335a.5.5 0 00.076-.111l-.447-.224zm-.74.821l.353.354a.444.444 0 00.017-.019l-.37-.335zm-.221.22l.239.44a.499.499 0 00.114-.086l-.353-.353zm-.22.12l.11.488a.501.501 0 00.129-.048l-.24-.44zm-.882.201l-.111-.487a.501.501 0 00-.092.03l.203.457zm-.361.16l-.203-.457a.51.51 0 00-.069.037l.272.42zm-.34.22l-.272-.42a.497.497 0 00-.082.067l.353.354zm-.342.341l-.353-.354a.48.48 0 00-.037.042l.39.312zm-.16.2l-.39-.312a.5.5 0 00-.08.141l.47.171zm-.08.22l-.47-.17a.5.5 0 00.041.428l.43-.257zm.12.2l-.428.258c.025.042.056.08.092.113l.336-.37zm.441.401l.485-.121a.5.5 0 00-.149-.249l-.336.37zm.04.16l.481.138a.5.5 0 00.004-.259l-.485.122zm-.04.14l.252.433a.5.5 0 00.229-.295l-.48-.137zm-.24.141l-.252-.432a.502.502 0 00-.055.037l.307.395zm-.18.14l-.307-.395a.5.5 0 00-.194.395h.5zm0 .06h-.5a.5.5 0 00.232.423l.267-.423zm.38.24l.462-.192a.5.5 0 00-.195-.23l-.267.423zm.1.24l.447.225a.5.5 0 00.015-.416l-.462.192zm-.06.121l.354.354a.5.5 0 00.093-.13l-.447-.224zm-.26.26l-.354-.353a.5.5 0 00-.143.291l.497.062zm-.02.16l-.496-.062a.502.502 0 00.008.171l.488-.108zm.08.361l-.488.109a.5.5 0 00.064.156l.424-.265zm.1.16l-.424.265c.04.065.095.12.16.16l.264-.425zm.16.1l-.265.424a.488.488 0 00.068.036l.197-.46zm.28.12l.287-.41a.498.498 0 00-.09-.049l-.196.46zm.201.14l.378-.327a.501.501 0 00-.091-.082l-.287.41zm.26.301l.462-.192a.5.5 0 00-.084-.135l-.377.327zm.1.24l.486-.12a.505.505 0 00-.024-.072l-.461.192zm.061.24l.5.01a.5.5 0 00-.015-.13l-.485.12zm-.02 1.142l-.5-.009c0 .018 0 .035.002.053l.498-.044zm.04.46l-.498.044a.503.503 0 00.017.094l.481-.137zm.08.281l-.48.138c.008.03.02.058.033.086l.447-.224zm.1.2l-.447.224c.015.03.033.058.053.084l.394-.307zm.281.361l.416-.277a.473.473 0 00-.022-.03l-.394.307zm.2.3l.492-.092a.5.5 0 00-.076-.185l-.416.278zm.06.32h.5a.5.5 0 00-.008-.091l-.492.092zm0 .261l.492.09a.497.497 0 00.008-.09h-.5zm-.08.44l.476.155a.49.49 0 00.016-.065l-.492-.09zm-.22.682l-.476-.154a.5.5 0 00-.024.154h.5zm0 .42h-.5a.5.5 0 00.751.433l-.251-.433zm1.723-1.001v-.5a.5.5 0 00-.251.068l.251.432zm.3 0l.29-.409a.5.5 0 00-.29-.091v.5zm.341.24l-.288.409a.5.5 0 00.113.06l.175-.469zm.16.06l-.175.469c.051.019.105.03.16.031l.016-.5zm.622.02l.158-.474a.5.5 0 00-.142-.025l-.016.5zm.36.12l.278-.416a.5.5 0 00-.12-.058l-.157.474zm.181.12l-.277.417a.523.523 0 00.027.017l.25-.433zm.521.301l-.25.433a.5.5 0 00.174.061l.076-.494zm.26.04l-.075.494a.497.497 0 00.142.002l-.066-.496zm.301-.04l.066.496a.498.498 0 00.164-.052l-.23-.444zm.541-.28l.23.444a.516.516 0 00.037-.022l-.267-.422zm.381-.24l-.148-.478a.502.502 0 00-.119.055l.267.422zm1.423-.441l.148.477a.5.5 0 00.205-.124l-.353-.353zm.16-.16l.353.353a.5.5 0 00.125-.206l-.478-.147zm.16-.521l-.447-.224a.498.498 0 00-.03.077l.477.147zm.16-.32l-.331-.374a.501.501 0 00-.115.15l.447.223zm.181-.16l-.234-.443a.5.5 0 00-.098.069l.332.373zm.34-.181l-.097-.49a.5.5 0 00-.136.048l.234.442zm.201-.04l.09-.492a.5.5 0 00-.188.002l.098.49zm.22.04l.236-.441a.497.497 0 00-.146-.05l-.09.491zm.301.16l.307-.394a.502.502 0 00-.072-.047l-.235.441zm.36.28l-.306.395a.498.498 0 00.149.08l.158-.474zm.181.06l-.158.475c.04.013.08.022.123.024l.035-.498zm.561.04l.173-.468a.504.504 0 00-.137-.03l-.036.499zm.381.14l-.173.47a.5.5 0 00.16.03l.013-.5zm.782.021l-.013.5c.025 0 .05 0 .076-.004l-.063-.496zm1.723-.22l.063.496a.5.5 0 00.128-.034l-.191-.462zm.581-.24l.191.461a.5.5 0 00.162-.108l-.353-.354zm.541-.541l-.21-.454a.5.5 0 00-.143.1l.353.354zm.26-.12l-.108-.489a.498.498 0 00-.1.034l.209.454zm.361-.08v-.5a.5.5 0 00-.108.011l.108.488zm.461 0l.134-.482a.499.499 0 00-.134-.019v.5zm.36.1l.285-.412a.501.501 0 00-.15-.07l-.134.481zm.261.18l.475-.159a.5.5 0 00-.19-.252l-.285.41zm.1.3l-.474.158a.5.5 0 00.059.12l.416-.278zm.12.18l-.415.278a.5.5 0 00.25.194l.166-.472zm.341.12l.338-.368a.5.5 0 00-.171-.103l-.167.472zm.241.22l.416-.277a.497.497 0 00-.078-.09l-.338.368zm.2.301l-.416.278a.5.5 0 00.091.102l.325-.38zm.14.12l-.325.38a.5.5 0 00.119.076l.207-.456zm.221.1l-.207.456a.5.5 0 00.162.043l.045-.499zm.22.02l-.045.498a.5.5 0 00.112-.002l-.067-.495zm.301-.04l.066.496a.5.5 0 00.18-.06l-.246-.435zm1.383-.78l-.082-.494a.498.498 0 00-.164.058l.246.435zm.24-.04l-.026-.5a.498.498 0 00-.056.006l.082.493zm.381-.02l.127-.484a.502.502 0 00-.153-.016l.026.5zm.38.1l.231-.444a.505.505 0 00-.103-.04l-.127.484zm.502.26l-.23.444c.048.025.102.042.156.05l.074-.494zm.54.08l-.073.495a.499.499 0 00.095.005l-.021-.5zm3.287-.14l.127-.484a.502.502 0 00-.148-.016l.021.5zm.38.1l.495.076a.5.5 0 00-.367-.56l-.127.484zm-.04.26l-.493-.076a.5.5 0 00.02.234l.474-.158zm.06.18l-.473.159a.5.5 0 00.403.336l.07-.495zm.702.1l-.07.496a.5.5 0 00.132 0l-.062-.495zm.32-.04l.063.497a.514.514 0 00.06-.011l-.122-.485zm.322-.08l.12.486a.503.503 0 00.154-.068l-.274-.417zm.7-.46l.275.418a.502.502 0 00.08-.065l-.354-.353zm.442-.44l-.224-.448a.499.499 0 00-.13.094l.354.353zm.2-.1l-.102-.49a.498.498 0 00-.121.042l.223.447zm.962-.201l.102.49a.5.5 0 00.21-.1l-.312-.39zm.4-.32l.313.39a.505.505 0 00.095-.1l-.407-.29zm.201-.28l.407.29a.5.5 0 00.093-.266l-.5-.025zm.06-1.203l-.489-.104a.5.5 0 00-.01.08l.5.025zm.06-.28l-.447-.224a.496.496 0 00-.041.12l.488.104zm.18-.36l-.415-.278a.499.499 0 00-.031.054l.447.224zm.201-.3l-.322-.383a.502.502 0 00-.094.105l.416.277zm.38-.321l-.04-.499a.5.5 0 00-.281.116l.322.383zm.241-.02l.374-.332a.5.5 0 00-.415-.166l.041.498zm.16.18l.394-.309a.546.546 0 00-.02-.023l-.373.332zm.221.28l-.393.31a.504.504 0 00.088.087l.305-.397zm.26.2l-.304.397a.502.502 0 00.16.082l.145-.478zm.862.261l.33-.376a.5.5 0 00-.185-.103l-.145.479zm.16.14l.438-.243a.5.5 0 00-.108-.133l-.33.376zm.1.18l.498-.05a.5.5 0 00-.06-.192l-.437.242zm.04.401l-.497.05a.5.5 0 00.207.357l.29-.407zm.141.1l-.29.407a.5.5 0 00.224.089l.066-.496zm.3.04l-.065.496a.5.5 0 00.167-.006l-.101-.49zm.582-.12l.181-.466a.5.5 0 00-.282-.024l.1.49zm.36.14l.278-.416a.496.496 0 00-.096-.05l-.181.466zm.181.12l.463-.188a.5.5 0 00-.186-.228l-.277.416zm.26.641l-.463.189a.5.5 0 00.047.089l.416-.278zm.12.18l-.415.278c.018.027.039.053.062.076l.354-.354zm.301.3l-.353.355a.497.497 0 00.116.086l.237-.44zm.26.141l-.236.44a.5.5 0 00.335.05l-.098-.49zm.201-.04l.098.49a.5.5 0 00.094-.028l-.192-.462zm.24-.1l.193.461a.5.5 0 00.138-.086l-.33-.375zm.341-.3l.331.374a.5.5 0 00.108-.135l-.439-.24zm.12-.22l.44.239a.482.482 0 00.026-.059l-.465-.18zm.14-.361l-.42-.27a.502.502 0 00-.045.088l.466.182zm.181-.28l-.236-.442a.499.499 0 00-.184.17l.42.271zm.561-.301l.236.44a.5.5 0 00.203-.2l-.439-.24zm.12-.22l.44.24a.5.5 0 00.042-.374l-.481.134zm-.1-.36l-.493-.083a.5.5 0 00.012.216l.481-.134zm.02-.121l-.41-.287a.499.499 0 00-.083.205l.493.082zm.14-.2l-.07-.495a.5.5 0 00-.339.208l.41.287zm.14-.02l.042-.499a.501.501 0 00-.112.004l.07.495zm.241.02l.198-.46a.5.5 0 00-.156-.039l-.042.499zm1.163.5l-.198.46a.5.5 0 00.166.04l.032-.5zm.32.02l-.03.5a.497.497 0 00.08-.002l-.05-.498zm.401-.04l.05.498a.496.496 0 00.1-.02l-.15-.478zm.701-.22l.012-.5a.499.499 0 00-.161.023l.15.477zm.862.02l.201-.458a.5.5 0 00-.19-.042l-.01.5zm.501.22l-.201.458a.5.5 0 00.283.035l-.082-.493zm.842-.14l.082.493a.498.498 0 00.136-.043l-.218-.45zm2.304-1.121l.219.45a.5.5 0 00.276-.377l-.495-.073zm.08-.541l.495.073a.506.506 0 000-.152l-.495.079zm-.08-.5l.494-.08a.502.502 0 00-.022-.086l-.472.165zm-.14-.401l.472-.166a.495.495 0 00-.046-.096l-.426.262zm-.16-.26l.425-.263a.502.502 0 00-.052-.07l-.373.332zm-.16-.18l.373-.333a.501.501 0 00-.075-.069l-.299.401zm-1.343-1.002l-.395.307c.028.035.06.067.096.094l.299-.401zm-.14-.18l-.49.098a.501.501 0 00.095.209l.394-.307zm-.04-.2l-.487-.115a.5.5 0 00-.004.212l.49-.098zm.08-.341l-.432-.252a.502.502 0 00-.055.137l.486.115zm.14-.24l-.377-.33a.5.5 0 00-.055.078l.432.252zm.681-.781l.377.328a.498.498 0 00.039-.051l-.416-.277zm.24-.361l.416.277a.502.502 0 00.041-.074l-.456-.203zm.08-.18l.458.203a.504.504 0 00.032-.1l-.49-.103zm.08-.38l-.456-.204a.502.502 0 00-.032.1l.489.103zm.161-.361l-.367-.34a.501.501 0 00-.09.137l.457.203zm.24-.26l-.157-.475a.499.499 0 00-.21.135l.368.34zm.241-.08l.062-.497a.5.5 0 00-.22.022l.158.474zm.16.02l.267-.423a.5.5 0 00-.205-.074l-.062.496zm.381.24l-.267.422c.045.029.094.05.146.063l.121-.485zm.16.04l-.12.485a.5.5 0 00.203.008l-.083-.493zm.241-.04l.082.493a.499.499 0 00.175-.064l-.257-.43zm1.202-.721l-.18-.467a.507.507 0 00-.077.038l.257.429zm1.042-.4l.18.466a.499.499 0 00.156-.096l-.336-.37zm1.042-.942l-.242-.437a.494.494 0 00-.093.066l.335.37zm.18-.1l.079-.494a.5.5 0 00-.321.057l.243.437zm.762.12l-.078.494a.5.5 0 00.176-.004l-.098-.49zm.401-.08l.098.49a.48.48 0 00.125-.043l-.223-.447zm.24-.12l.224.447a.511.511 0 00.109-.073l-.333-.374zm.181-.16l.332.373a.513.513 0 00.092-.108l-.424-.265zm.1-.16l.424.264a.475.475 0 00.04-.079l-.464-.186zm.08-.201l.464.186a.487.487 0 00.03-.106l-.494-.08zm.12-.741l-.481-.134a.497.497 0 00-.012.054l.493.08zm.101-.36l-.439-.24a.456.456 0 00-.043.106l.482.133zm.24-.441l-.342-.365a.506.506 0 00-.097.125l.439.24zm.321-.3l-.158-.475a.49.49 0 00-.184.11l.342.365zm.3-.1l.158.474a.5.5 0 00.196-.12l-.354-.355zm.121-.12l.353.353a.498.498 0 00.14-.271l-.493-.083zm.04-.241l.493.082a.508.508 0 00.006-.103l-.499.02zm-.02-.48l-.498-.053a.596.596 0 00-.002.073l.5-.02zm.04-.381l-.497-.055-.001.002.498.053zm.04-.36l-.485-.122a.373.373 0 00-.012.066l.497.055zm.12-.481l-.477-.152a.322.322 0 00-.008.03l.485.122zm.14-.44l.477.15a.561.561 0 00.014-.056l-.491-.095zm.1-.522l.491.095a.393.393 0 00.009-.084l-.5-.01zm.02-.92l-.496-.056a.331.331 0 00-.003.044l.499.011zm.02-.181l-.474-.158a.456.456 0 00-.022.103l.496.055zm.181-.54l.474.157a.496.496 0 00.018-.247l-.492.09zm-.04-.221l.492-.09a.51.51 0 00-.106-.228l-.386.318zm-.281-.34l.386-.319a.524.524 0 00-.069-.069l-.317.388zm-.22-.18l.316-.388a.478.478 0 00-.093-.06l-.223.447zm-.201-.1l.224-.448a.512.512 0 00-.102-.038l-.122.485zm-.4-.101l-.317.387c.057.047.124.08.195.098l.122-.485zm-.221-.18l-.347.36.031.027.316-.387zm-1.082-1.042l.347-.36a.468.468 0 00-.079-.062l-.268.422zm-.22-.14l.268-.422a.498.498 0 00-.116-.054l-.152.476zm-1.002-.32l-.28.414a.5.5 0 00.127.062l.153-.476zm-.682-.46l-.353.353a.507.507 0 00.073.06l.28-.414zm-.22-.221l-.423.266a.5.5 0 00.07.087l.353-.353zm-.34-.54l-.422-.27a.5.5 0 00-.002.536l.423-.267zm.14-.221l-.217-.45a.5.5 0 00-.205.181l.422.269zm.54-.26l-.128-.484a.5.5 0 00-.088.033l.217.45zm.602-.16l.035-.5a.5.5 0 00-.164.016l.129.483zm.28.02l-.035.498a.5.5 0 00.533-.452l-.498-.047zm.06-.642l.498.047a.485.485 0 00.002-.047h-.5zm0-.16h.5a.503.503 0 00-.01-.103l-.49.103zm-.16-.76h-.5c0 .034.004.068.01.102l.49-.103zm0-.241l-.46-.197a.5.5 0 00-.04.197h.5zm.12-.28l-.353-.354a.502.502 0 00-.106.156l.46.197zm.481-.481l.354.353a.489.489 0 00.062-.076l-.416-.277zm.08-.12l.416.277a.5.5 0 00.082-.327l-.498.05zm-.02-.2l.498-.05a.5.5 0 00-.038-.148l-.46.197zm-.12-.28l.46-.198a.506.506 0 00-.042-.077l-.418.274zm-.38-.582l.418-.274a.516.516 0 00-.033-.044l-.386.318zm-.281-.34l.386-.318a.415.415 0 00-.018-.02l-.368.338zm-.22-.24l.368-.339a.5.5 0 00-.091-.078l-.278.416zm-.482-.32l-.425.261a.5.5 0 00.148.154l.277-.416zm-.16-.261l-.498-.046a.5.5 0 00.072.308l.426-.262zm.02-.22l-.48-.138a.498.498 0 00-.018.092l.498.045zm.04-.14l-.36-.347a.5.5 0 00-.12.209l.48.137zm.481-.501l.36.346a.502.502 0 00.069-.089l-.429-.257zm.12-.2l.43.257a.5.5 0 00.045-.1l-.475-.158zm.1-.301l.475.158a.5.5 0 00.013-.27l-.487.112zm-.06-.26l.488-.113a.492.492 0 00-.015-.052l-.472.165zm-.46-1.322l-.485.121a.55.55 0 00.013.044l.472-.165zm-.12-.48l-.49.102a.49.49 0 00.004.018l.485-.12zm-.08-.381h-.5c0 .034.003.069.01.103l.49-.103zm0-.621h.5a.495.495 0 00-.005-.062l-.496.062zm-.1-.801l.495-.062a.496.496 0 00-.03-.118l-.466.18zm-.101-.26l.466-.18a.467.467 0 00-.012-.03l-.454.21zm-.12-.26l.454-.21a.5.5 0 00-.132-.173l-.322.382zm-.26-.221l.322-.382a.501.501 0 00-.08-.055l-.243.437zm-.181-.1l.242-.438a.5.5 0 00-.242-.062v.5zm-.22 0v-.5a.516.516 0 00-.058.003l.057.497zm-1.223.14l-.11.488a.499.499 0 00.167.009l-.057-.497zm-.802-.18l.11-.488a.49.49 0 00-.071-.01l-.039.498zm-.26-.02l.038-.499a.498.498 0 00-.143.01l.105.489zm-.561.12v.5c.035 0 .07-.004.105-.011l-.105-.49zm-.421 0l-.224.447a.5.5 0 00.224.053v-.5zm-.16-.08l-.374.332a.497.497 0 00.15.115l.224-.447zm-.16-.18l-.462.192a.497.497 0 00.088.14l.373-.333zm-.1-.24l-.495.075c.006.04.017.08.033.117l.461-.193zm-.081-.522l.494-.076a.502.502 0 00-.017-.074l-.477.15zm-.12-.38l.477-.15a.5.5 0 00-.058-.123l-.42.273zm-.26-.4l.418-.273a.496.496 0 00-.065-.081l-.354.353zm-.181-.18l.353-.355a.507.507 0 00-.076-.062l-.277.416zm-.18-.121l.277-.416a.507.507 0 00-.077-.042l-.2.458zm-1.463-.64l-.224.446a.598.598 0 00.023.011l.2-.458zm-.08-.041l-.475.158a.5.5 0 00.251.29l.224-.448zm-.06-.18l-.496.066a.5.5 0 00.021.092l.474-.158zm-.04-.3l-.5-.03a.5.5 0 00.004.096l.495-.067zm.04-.681l-.48-.144a.5.5 0 00-.02.114l.5.03zm.18-.601l-.416-.278a.505.505 0 00-.063.134l.479.144zm.24-.36l.416.277a.56.56 0 00.02-.032l-.436-.246zm.26-.461l.436.246a.5.5 0 00.031-.067l-.466-.18zm.101-.26l.467.179a.5.5 0 00.03-.127l-.497-.053zm.04-.381l.497.052a.51.51 0 00.003-.074l-.5.022zm-.02-.46l.5-.023a.502.502 0 00-.005-.047l-.495.07zm-.26-1.863l.495-.07a.499.499 0 00-.028-.108l-.468.178zm-.16-.42l.466-.179a.495.495 0 00-.03-.065l-.437.243zm-.201-.361l-.48.137c.01.037.024.072.043.106l.437-.243zm-.08-.28l-.5-.027a.5.5 0 00.019.164l.48-.138zm.02-.381l-.462-.193a.5.5 0 00-.038.166l.5.027zm.1-.24l-.424-.266a.51.51 0 00-.038.073l.462.192zm.2-.321l.424.265a.5.5 0 00.073-.21l-.497-.055zM76.665 43.748l.447-.224a.507.507 0 00-.04-.067l-.407.291zm-.2-.28l.406-.291a.499.499 0 00-.112-.114l-.294.405zm.3.48l-.447.224a.496.496 0 00.063.097l.384-.32zm.2.24l-.383.32c.036.044.078.08.127.11l.257-.43zm.201.12l-.257.43c.033.02.067.035.104.047l.153-.476zm.621.201l.307-.395a.5.5 0 00-.153-.08l-.154.475zm.18.14l.44-.24a.5.5 0 00-.133-.154l-.306.394zm.12.22l.494-.082a.499.499 0 00-.054-.157l-.44.24zm.04.241l.484.129a.5.5 0 00.01-.211l-.493.082zm-.08.3l.41.289a.498.498 0 00.074-.16l-.483-.129zm-.24.34l.345.363a.502.502 0 00.064-.074l-.409-.288zm-.841.802l-.345-.362a.503.503 0 00-.09.114l.435.248zm-.08.14l-.435-.248a.5.5 0 00-.05.127l.484.121zm-.04.16l-.486-.121a.5.5 0 00.025.315l.46-.194zm.16.38l.487-.112a.512.512 0 00-.026-.081l-.461.194zm.06.261l.498.048a.5.5 0 00-.011-.16l-.487.112zm-.04.42l-.498-.047a.498.498 0 00.005.13l.493-.082zm.02.12l-.493.083a.495.495 0 00.03.107l.463-.19zm.18.441h.5a.5.5 0 00-.037-.189l-.463.19zm0 .22l.447.224a.5.5 0 00.053-.223h-.5zm-.22.441l.117.486a.5.5 0 00.33-.262l-.447-.224zm-.662.16l.029.5a.5.5 0 00.09-.014l-.119-.486zm-1.062.06l-.057.497a.499.499 0 00.086.003l-.029-.5zm-.52-.06l-.116.487c.019.005.038.008.058.01l.057-.497zm-.421-.1l-.248.435a.498.498 0 00.132.052l.116-.487zm-.14-.08l.247-.434a.5.5 0 00-.283-.064l.035.498zm-.281.02l-.036-.498a.502.502 0 00-.102.017l.138.481zm-.28.08l-.138-.48a.5.5 0 00-.163.08l.3.4zm-.482.36l-.3-.4a.498.498 0 00-.036.03l.336.37zm-.44.401l.242.438a.5.5 0 00.094-.068l-.337-.37zm-.181.1l.151.477a.504.504 0 00.092-.04l-.243-.436zm-1.323.421l.089.492a.492.492 0 00.063-.015l-.152-.477zm-2.124.38l-.088-.492a.494.494 0 00-.105.032l.193.46zm-1.242.521l-.116.487a.5.5 0 00.31-.026l-.194-.46zm-.421-.1l-.374.332a.5.5 0 00.258.155l.116-.487zm-.16-.18l-.495.07a.5.5 0 00.121.262l.374-.332zm-.04-.28l-.499-.04a.5.5 0 00.004.11l.495-.07zm.06-.761l.498.039a.5.5 0 00-.019-.18l-.48.14zm-.1-.34l.48-.142a.5.5 0 00-.103-.187l-.377.328zm-.802-.922l-.442.233c.018.034.04.066.065.095l.377-.328zm-.2-.38l-.481.137a.5.5 0 00.038.095l.443-.233zm-.16-.561l.48-.138a.49.49 0 00-.038-.094l-.443.232zm-.221-.42l.443-.233a.488.488 0 00-.05-.076l-.393.308zm-.722-.922l-.406.29a.443.443 0 00.013.018l.394-.308zm-.1-.14l-.498.045a.5.5 0 00.092.245l.406-.29zm-.02-.22l-.472-.164a.498.498 0 00-.026.209l.498-.046zm.18-.521l.473.163a.499.499 0 00.025-.213l-.497.05zm-.02-.2l.498-.05a.5.5 0 00-.158-.318l-.34.367zm-.26-.24l.339-.368a.492.492 0 00-.073-.056l-.266.423zm-.541-.341l-.395.307c.036.046.08.085.129.116l.266-.423zm-.14-.18l-.495-.071a.5.5 0 00.1.377l.395-.307zm.02-.14l-.407-.291a.498.498 0 00-.088.22l.495.07zm.1-.141l-.26-.427a.5.5 0 00-.147.136l.407.291zm.561-.34l-.174-.47a.497.497 0 00-.085.042l.259.428zm1.403-.521v-.5c-.06 0-.119.01-.174.031l.174.469zm.34 0l.199-.46a.5.5 0 00-.199-.04v.5zm.742.32l-.198.46c.04.017.083.029.127.035l.07-.495zm.14.02l-.07.495c.06.009.12.006.178-.007l-.108-.488zm.18-.04l.109.488a.5.5 0 00.156-.064l-.264-.424zm.16-.1l.266.424a.5.5 0 00.15-.146l-.415-.278zm.161-.24l.416.277a.5.5 0 00.078-.356l-.494.079zm-.08-.5l-.478-.148a.5.5 0 00-.016.226l.494-.079zm.08-.261l-.32-.384a.5.5 0 00-.158.237l.478.147zm.12-.1l-.14-.48a.5.5 0 00-.18.096l.32.384zm3.908-1.142l-.055-.497a.5.5 0 00-.085.017l.14.48zm1.463-.16l.092-.492a.5.5 0 00-.147-.005l.055.497zm.32.06l.254-.431a.498.498 0 00-.162-.06l-.092.491zm.341.2l.361-.346a.499.499 0 00-.108-.085l-.253.431zm.461.48l-.36.347a.5.5 0 00.053.049l.307-.395zm.36.281l.377-.33a.51.51 0 00-.07-.065l-.306.395zm.141.16l.474-.158a.501.501 0 00-.098-.17l-.376.328zm.1.3l-.474.16a.497.497 0 00.046.098l.428-.257zm.12.201l-.428.258a.5.5 0 00.222.197l.206-.455zm.22.1l-.206.456a.5.5 0 00.082.029l.125-.485zm.702.18l.294-.404a.502.502 0 00-.17-.08l-.124.485zm15.1-17.985l-.474.159.06.18.474-.158.475-.158-.06-.18-.475.158zm-1.062-.94l-.331.373 1.062.942.331-.374.332-.375-1.062-.94-.332.373zm-.3-.582l-.445.23.301.581.444-.23.444-.23-.3-.58-.445.23zm-.261-1.361l-.491.094.26 1.361.492-.093.49-.095-.26-1.361-.491.094zm-.761.2l.127.483.761-.2-.127-.483-.127-.484-.762.2.128.484zm-.421-.12l-.138.48.421.12.138-.48.137-.48-.421-.121-.137.48zm-.18-.18l-.354.353.18.18.354-.353.353-.354-.18-.18-.354.354zm-.562-.661l-.38.323.56.661.381-.323.382-.324-.562-.66-.38.323zm-.16-.12l-.3.4.16.12.3-.4.3-.4-.16-.12-.3.4zm-.16-.04l-.121.485.16.04.121-.485.121-.486-.16-.04-.121.485zm-.702.06l.043.498.701-.06-.042-.499-.043-.498-.701.06.042.498zm-.24-.12l-.224.447.24.12.224-.447.224-.448-.24-.12-.224.447zm-.28-.241l-.326.38.28.24.326-.38.325-.38-.28-.24-.326.38zm-.221-.02l-.045.498.22.02.045-.498.045-.498-.22-.02-.045.498zm-.2.04l.097.49.2-.04-.097-.49-.098-.49-.2.04.097.49zm-.341.16l.213.453.34-.16-.213-.453-.212-.452-.341.16.213.452zm-.24 0v.5h.24v-1h-.24v.5zm-.301-.12l-.186.464.3.12.186-.464.186-.464-.3-.12-.186.464zm-.16-.02l-.063.496.16.02.063-.496.062-.496-.16-.02-.063.496zm-.14.06l.196.46.14-.06-.197-.46-.196-.46-.14.06.196.46zm-.121.14l.38.326.12-.14-.38-.326-.38-.325-.12.14.38.325zm-.34.561l.427.26.34-.561-.427-.26-.427-.26-.341.562.427.26zm-.161.22l.404.295.16-.22-.404-.295-.404-.294-.16.22.404.294zm-.621.521l.32.383.622-.52-.321-.384-.321-.383-.621.52.32.384zm-.3.38l.392.31.3-.38-.392-.31-.393-.31-.3.38.392.31zm-.322.621l.445.23.32-.621-.444-.23-.444-.229-.32.621.444.23zm-.2.28l.407.291.2-.28-.407-.29-.406-.291-.2.28.406.29zm-.26.221l.323.382.26-.22-.323-.382-.323-.382-.26.22.323.382zm-.481.26l.238.44.48-.26-.237-.44-.238-.44-.481.26.238.44zm-.22.16l.293.405.22-.16-.293-.405-.294-.404-.22.16.293.405zm-.362.341l.344.364.36-.34-.343-.364-.343-.364-.36.34.343.364zm-.26.2l.305.397.26-.2-.305-.397-.304-.396-.26.2.304.396zm-1.082.521l.217.45 1.082-.52-.217-.45-.217-.451-1.082.52.217.451zm-1.202.801l.277.416 1.202-.8-.277-.417-.277-.416-1.203.801.278.416zm-2.646.681l.125.484 2.645-.68-.124-.485-.125-.484-2.645.68.124.485zm-.52.06l.057.497.52-.06-.057-.497-.057-.497-.52.06.056.497zm-.261-.04l-.076.494.26.04.076-.494.076-.494-.26-.04-.076.494zm-.14-.18l-.395.307.14.18.395-.307.394-.307-.14-.18-.394.307zm-.1-.52l-.492.094.1.52.492-.094.49-.095-.1-.52-.49.094zm-.1-.241l-.462.192.1.24.461-.192.462-.192-.1-.24-.462.192zm-.141-.08l-.248.434.14.08.248-.434.248-.434-.14-.08-.248.434zm-.2-.02l-.05.497.2.02.05-.497.05-.498-.2-.02-.05.498zm-.461.02l.021.5.461-.02-.021-.5-.022-.5-.461.02.022.5zm-.561-.08l-.071.495.561.08.07-.495.071-.495-.56-.08-.071.495zm-1.323.02l.008.5 1.322-.02-.007-.5-.008-.5-1.323.02.008.5zm-.32.1l.148.477.321-.1-.149-.477-.15-.478-.32.1.15.478zm-.201.14l.287.41.2-.14-.287-.41-.286-.41-.2.14.286.41zm-.2.34l.43.254.2-.34-.43-.254-.43-.254-.201.34.43.254zm-.06.38l.493.079.06-.38-.493-.079-.494-.078-.06.38.493.079zm0 .281h.5v-.28h-1v.28h.5zm-.04.38l.497.053.04-.38-.498-.053-.497-.052-.04.38.497.053zm-.1.361l.48.134.101-.36-.482-.134-.481-.134-.1.36.481.134zm-.101.2l.447.224.1-.2-.447-.224-.447-.223-.1.2.447.223zm-.18.14l.306.395.18-.14-.306-.395-.307-.394-.18.14.307.395zm-.24.14l.251.433.24-.14-.251-.432-.252-.432-.24.14.251.432zm-.862.722l.32.383.862-.72-.32-.384-.322-.384-.861.721.32.384zm-.441.22l.223.447.441-.22-.224-.447-.223-.447-.44.22.223.447zm-.3-.06l-.099.49.3.06.099-.49.098-.49-.3-.06-.099.49zm-.402-.18l-.205.456.401.18.205-.456.205-.456-.4-.18-.206.456zm-.24-.04l-.082.493.24.04.082-.493.082-.493-.24-.04-.082.493zm-.1.1l.353.354.1-.1-.353-.354-.354-.354-.1.1.354.354zm-.04.18l.488.109.04-.18-.488-.11-.489-.108-.04.18.489.11zm.06.18l.474-.158-.06-.18-.475.158-.474.158.06.18.475-.158zm.18.601l.479-.144-.18-.6-.48.143-.478.144.18.601.479-.144zm0 .18h.5v-.18h-1v.18h.5zm-.02.441l.5.023.02-.44-.5-.024-.5-.022-.02.44.5.023zm.18.64l.482-.135-.18-.64-.482.135-.481.136.18.64.481-.135zm-.02.281l.499.036.02-.28-.499-.036-.498-.036-.02.28.498.036zm-.16.22l.404.295.16-.22-.404-.295-.404-.294-.16.22.404.294zm-.2.541l.468.174.2-.54-.468-.175-.469-.173-.2.54.469.174zm-.24.34l.407.29.241-.341-.408-.289-.409-.288-.24.34.408.289zm-.241.14l.252.433.24-.14-.252-.432-.252-.432-.24.14.252.432zm-.22.041l.089.492.22-.04-.09-.492-.089-.492-.22.04.09.492zm-.522-.04l-.038.498.52.04.04-.498.037-.499-.52-.04-.039.499zm-.841.08l.047.498.842-.08-.048-.498-.047-.498-.842.08.047.498zm-.22.06l.13.482.221-.06-.132-.482-.13-.482-.221.06.131.482zm-.241.16l.277.416.24-.16-.277-.416-.277-.416-.24.16.277.416zm-.642.541l.323.382.641-.54-.322-.383-.323-.382-.64.54.321.383zm-.38.14l.172.47.381-.14-.173-.47-.172-.47-.381.141.173.47zm-.962-.36l-.176.468.962.36.176-.468.175-.468-.962-.36-.175.468zm-2.325.4l.085.493 2.325-.4-.085-.493-.085-.493-2.325.4.085.493zm-.6-.08l-.067.496.601.08.066-.496.066-.495-.6-.08-.067.495zm-.682-.24l-.167.471.682.24.166-.47.166-.472-.68-.24-.167.47zm-.742-.16l-.105.488.741.16.106-.488.105-.489-.741-.16-.106.489zm-1.222.04l.016.5 1.223-.04-.017-.5-.016-.5-1.222.04.016.5zm-.36.1l.133.482.36-.1-.133-.482-.134-.482-.36.1.133.482zm-.241.1l.192.462.24-.1-.192-.462-.192-.462-.24.1.192.462zm-.12.2l.428.258.12-.2-.428-.258-.429-.257-.12.2.428.257zm-.06.2l.478.144.06-.2-.479-.144-.478-.143-.06.2.478.144zm-.04.461l.497.043.04-.46-.498-.043-.498-.044-.04.46.498.044zm.04.28l.494-.07-.04-.28-.495.07-.495.07.04.281.495-.07zm-.08.34l.486.115.08-.34-.487-.114-.486-.115-.08.34.486.115zm-.161.261l.426.262.16-.26-.426-.262-.425-.262-.16.26.425.262zm-.24.1l.192.462.24-.1-.192-.462-.192-.461-.24.1.191.461zm-.241.02l.041.499.241-.02-.041-.499-.042-.498-.24.02.041.498zm-.4-.02l-.026.5.401.02.025-.5.025-.499-.4-.02-.026.5zm-.281.1l.168.471.28-.1-.168-.47-.168-.471-.28.1.168.47zm-1.764 1.102l.265.424 1.764-1.101-.265-.425-.265-.424-1.764 1.102.265.424zm-.36.46l.393.309.36-.46-.393-.309-.393-.308-.361.46.394.309zm-.16.18l.373.333.16-.18-.373-.332-.374-.333-.16.18.373.333zm-.341.261l.303.398.34-.26-.303-.398-.303-.397-.341.26.303.397zm-.2.04l.097.49.2-.04-.097-.49-.099-.49-.2.04.098.49zm-.221-.08l-.171.47.22.08.171-.47.17-.47-.22-.08-.17.47zm-.2-.16l-.313.39.2.16.313-.39.312-.39-.2-.16-.313.39zm-.241-.1l-.192.461.24.1.192-.461.193-.462-.24-.1-.193.462zm-.24.02l.04.498.241-.02-.041-.498-.042-.498-.24.02.041.498zm-2.826 1.482l.232.443 2.826-1.482-.233-.443-.232-.443-2.825 1.482.232.443zm-.521.14l.13.483.52-.14-.13-.483-.129-.483-.521.14.13.483zm-.14 0v.5h.14v-1h-.14v.5zm-.301-.14l-.211.453.3.14.212-.453.21-.453-.3-.14-.211.453zm-.2-.04l-.098.49.2.04.098-.49.098-.49-.2-.04-.098.49zm-.321 0v.5h.32v-1h-.32v.5zm-.24.08l.158.474.24-.08-.158-.474-.158-.475-.24.08.157.475zm-.321.22l.283.412.32-.22-.282-.412-.284-.412-.32.22.283.412zm-.28.28l.353.354.28-.28-.353-.354-.353-.353-.281.28.353.354zm-1.263.822l.273.419 1.262-.821-.273-.42-.272-.419-1.263.822.273.419zm-1.743.72l.19.463 1.744-.721-.191-.462-.191-.462-1.744.72.191.463zm-.341.2l.253.432.34-.2-.252-.431-.254-.431-.34.2.253.43zm-.16.201l.39.313.16-.2-.39-.313-.39-.313-.16.2.39.313zm-.401.62l.42.272.4-.62-.42-.272-.42-.271-.4.62.42.272zm-.28.682l.462.19.28-.68-.462-.191-.463-.19-.28.68.462.19zm-.281.36l.394.307.28-.36-.394-.307-.394-.307-.28.36.394.307zm-.341.24l.288.41.34-.241-.287-.409-.289-.408-.34.24.288.409zm-.761.762l.353.353.761-.76-.353-.354-.353-.354-.762.761.354.354zm-.301.14l.211.453.3-.14-.21-.453-.212-.453-.3.14.21.453zm-.461.12l.126.484.461-.12-.126-.484-.126-.484-.461.12.126.484zm-.36.2l.242.437.36-.2-.242-.437-.243-.437-.36.2.242.437zm-.321.44l.404.295.32-.44-.404-.295-.404-.294-.32.44.404.295zm.36.922l.466-.182-.36-.922-.466.183-.466.182.36.921.466-.182zm0 .44h.5v-.44h-1v.44h.5zm-.2.481l.461.193.2-.48-.46-.193-.462-.193-.2.48.461.193zm-.12.32l.468.176.12-.32-.468-.176-.468-.175-.12.32.468.176zm0 .201h.5v-.2h-1v.2h.5zm.1.14l.407-.29-.1-.14-.407.29-.407.29.1.14.407-.29zm.16.06l.176-.468-.16-.06-.176.468-.175.468.16.06.175-.468zm.3.02l.034-.499-.3-.02-.034.5-.033.498.3.02.034-.499zm.322-.08l-.122-.485-.32.08.12.485.122.485.32-.08-.12-.485zm.6-.34l-.246-.435-.6.34.245.435.247.435.601-.34-.246-.435zm.321-.04l-.062-.496-.32.04.062.496.062.496.32-.04-.062-.496zm.401.16l.186-.464-.401-.16-.186.464-.185.464.4.16.186-.464zm.481.12l.121-.485-.48-.12-.122.485-.121.485.48.12.122-.485zm.521.24l.21-.454-.522-.24-.209.454-.21.454.522.24.209-.454zm1.423 1.382l.348-.358-1.423-1.382-.348.358-.348.359 1.422 1.382.349-.359zm.26.18l.285-.41-.26-.181-.285.411-.285.411.26.18.285-.41zm.541.06l.056-.496-.542-.06-.055.496-.055.497.541.06.055-.497zm.401-.04l-.05-.497-.4.04.05.497.05.498.4-.04-.05-.498zm.4-.1l-.12-.485-.401.1.121.486.121.485.401-.1-.121-.486zm.241-.02l-.041-.498-.24.02.04.498.042.499.24-.02-.04-.499zm.301.02l.033-.499-.3-.02-.034.5-.033.498.3.02.034-.499zm.561.16l.137-.48-.56-.16-.138.48-.137.481.56.16.138-.48zm.32.16l.224-.447-.32-.16-.224.448-.223.447.32.16.224-.447zm.261.161l.262-.426-.26-.16-.262.426-.262.426.26.16.262-.426zm.762.861l.374-.331-.761-.861-.375.331-.374.331.761.861.375-.33zm.2.16l.312-.39-.2-.16-.312.39-.313.39.2.16.313-.39zm.18.1l.243-.437-.18-.1-.243.437-.243.438.18.1.243-.438zm.982.3l.147-.477-.982-.3-.147.477-.146.479.982.3.146-.478zm.18.121l.278-.416-.18-.12-.278.416-.277.416.18.12.278-.416zm.12.18l.417-.277-.12-.18-.416.277-.416.278.12.18.416-.278zm.101.38l.484-.127-.1-.38-.484.127-.484.128.1.38.484-.127zm1.543.802l.23-.444-1.542-.801-.23.444-.231.444 1.543.8.23-.443zm.26.26l.354-.353-.26-.26-.354.353-.353.353.26.26.354-.353zm.14.22l.423-.268-.14-.22-.422.268-.422.269.14.22.422-.269zm-.06.16l.469.176.06-.16-.468-.175-.468-.176-.06.16.468.176zm0 .401h.5v-.4h-1v.4h.5zm.04.24l.494-.082-.04-.24-.493.082-.493.083.04.24.493-.082zm.302.982l.477-.147-.3-.98-.478.146-.478.146.3.981.479-.146zm.02.22l.497-.045-.02-.22-.497.045-.498.045.02.22.498-.045zm-.04.2l.49.099.04-.2-.49-.099-.49-.098-.04.2.49.098zm-.361.16l.203.458.36-.16-.203-.458-.203-.456-.36.16.203.457zm-.361.04l.055.498.36-.04-.054-.497-.055-.497-.361.04.055.497zm-.14.221l.422.269.14-.22-.422-.27-.422-.268-.14.22.422.269zm0 .801h.5v-.801h-1v.801h.5zm-.06.3l.49.099.06-.3-.49-.099-.49-.098-.06.3.49.098zm-.361.942l.467.179.36-.942-.466-.179-.467-.178-.361.94.467.18zm.02.3l.499-.033-.02-.3-.5.033-.498.033.02.3.499-.033zm.1.46l.489-.106-.1-.46-.489.106-.489.106.1.461.49-.106zm-.02.221l.498.045.02-.22-.498-.045-.498-.046-.02.22.498.046zm-.3 1.021l.48.142.3-1.022-.48-.141-.48-.141-.3 1.021.48.141zm-.04.24l.493.083.04-.24-.493-.083-.494-.082-.04.24.493.083zm-.02.261l.498.038.02-.26-.499-.038-.498-.039-.02.26.498.039zm.12.18l.416-.277-.12-.18-.417.277-.415.278.12.18.416-.278zm.28.12l.197-.46-.28-.12-.197.46-.197.46.28.12.197-.46zm.22.12l.24-.438-.22-.12-.24.438-.24.44.221.12.24-.44zm.06.16l.469-.175-.06-.16-.468.176-.468.175.06.16.468-.175zm.02.141l.496-.07-.02-.141-.495.07-.495.072.02.14.495-.071zm-.1.2l.448.224.1-.2-.447-.224-.447-.224-.1.2.447.224zm-.74.821l.37.335.742-.82-.371-.336-.372-.335-.741.821.371.335zm-.221.22l.353.354.22-.22-.353-.354-.353-.353-.22.22.353.354zm-.22.12l.239.44.22-.12-.24-.44-.239-.438-.22.12.24.439zm-.882.201l.11.488.882-.2-.11-.488-.111-.488-.882.2.11.488zm-.361.16l.203.457.36-.16-.202-.457-.203-.457-.361.16.203.457zm-.34.22l.27.42.341-.22-.271-.42-.272-.42-.34.22.271.42zm-.342.341l.354.354.34-.34-.353-.354-.353-.354-.34.34.352.354zm-.16.2l.39.313.16-.2-.39-.313-.39-.312-.16.2.39.312zm-.08.22l.47.172.08-.22-.47-.172-.47-.17-.08.22.47.17zm.12.2l.429-.257-.12-.2-.429.258-.429.257.12.2.43-.257zm.441.401l.336-.37-.44-.4-.337.37-.336.37.44.4.337-.37zm.04.16l.485-.12-.04-.161-.485.121-.485.122.04.16.485-.121zm-.04.14l.48.138.041-.14-.48-.137-.481-.138-.04.14.48.138zm-.24.141l.252.432.24-.14-.252-.432-.252-.432-.24.14.252.432zm-.18.14l.306.395.18-.14-.306-.395-.307-.395-.18.14.306.395zm0 .06h.5v-.06h-1v.06h.5zm.38.24l.267-.422-.38-.24-.268.422-.267.423.381.24.267-.422zm.1.24l.462-.192-.1-.24-.462.193-.461.192.1.24.461-.192zm-.06.121l.447.224.06-.12-.447-.224-.447-.224-.06.12.447.224zm-.26.26l.353.354.26-.26-.353-.354-.353-.354-.26.26.353.354zm-.02.16l.496.063.02-.16-.496-.063-.497-.062-.02.16.497.063zm.08.361l.488-.108-.08-.36-.488.108-.489.108.08.36.489-.108zm.1.16l.424-.265-.1-.16-.424.265-.424.265.1.16.424-.265zm.16.1l.265-.424-.16-.1-.265.424-.265.424.16.1.265-.424zm.28.12l.198-.459-.28-.12-.198.46-.197.459.281.12.197-.46zm.201.14l.287-.409-.2-.14-.287.41-.287.41.2.14.287-.41zm.26.301l.378-.327-.26-.3-.378.327-.377.327.26.3.378-.327zm.1.24l.462-.192-.1-.24-.461.192-.462.193.1.24.462-.192zm.061.24l.485-.12-.06-.24-.485.12-.485.122.06.24.485-.121zm-.02 1.142l.5.01.02-1.142-.5-.01-.5-.008-.02 1.141.5.01zm.04.46l.498-.042-.04-.461-.498.043-.498.044.04.46.498-.043zm.08.281l.481-.137-.08-.28-.48.137-.482.137.08.28.481-.137zm.1.2l.448-.223-.1-.2-.448.223-.447.224.1.2.447-.223zm.281.361l.395-.307-.281-.36-.395.307-.394.307.28.36.395-.307zm.2.3l.416-.277-.2-.3-.416.277-.416.278.2.3.416-.278zm.06.32l.492-.091-.06-.32-.492.091-.491.093.06.32.492-.092zm0 .261h.5v-.26h-1v.26h.5zm-.08.44l.492.09.08-.44-.492-.09-.492-.09-.08.441.492.09zm-.22.682l.476.154.22-.681-.476-.154-.475-.154-.22.68.475.155zm0 .42h.5v-.42h-1v.42h.5zm1.723-1.001l-.251-.432-1.723 1.001.25.432.252.433 1.723-1.002-.25-.432zm.3 0v-.5h-.3v1h.3v-.5zm.341.24l.289-.408-.34-.24-.29.408-.287.409.34.24.288-.409zm.16.06l.176-.468-.16-.06-.175.468-.176.468.16.06.176-.468zm.622.02l.016-.5-.621-.02-.016.5-.016.5.62.02.017-.5zm.36.12l.159-.474-.361-.12-.158.474-.158.475.36.12.159-.475zm.181.12l.277-.415-.18-.12-.277.415-.277.417.18.12.277-.416zm.521.301l.25-.433-.521-.3-.25.433-.25.433.521.3.25-.433zm.26.04l.077-.494-.26-.04-.077.494-.076.494.26.04.077-.494zm.301-.04l-.066-.495-.3.04.066.495.066.496.3-.04-.066-.496zm.541-.28l-.23-.444-.54.28.23.444.23.444.54-.28-.23-.444zm.381-.24l-.267-.423-.38.24.266.423.267.422.38-.24-.266-.423zm1.423-.441l-.148-.478-1.423.44.148.478.148.478 1.423-.44-.148-.478zm.16-.16l-.353-.354-.16.16.353.354.353.353.16-.16-.353-.353zm.16-.521l-.477-.147-.16.52.477.148.478.147.16-.521-.478-.147zm.16-.32l-.447-.224-.16.32.447.224.448.224.16-.32-.447-.225zm.181-.16l-.332-.374-.18.16.332.373.332.374.18-.16-.332-.374zm.34-.181l-.233-.442-.34.18.233.442.234.442.34-.18-.233-.442zm.201-.04l-.098-.49-.2.04.098.49.098.49.2-.04-.098-.49zm.22.04l.09-.492-.22-.04-.09.492-.09.492.221.04.09-.492zm.301.16l.235-.441-.3-.16-.235.441-.236.441.3.16.236-.44zm.36.28l.308-.394-.361-.28-.307.394-.307.395.361.28.307-.394zm.181.06l.158-.474-.18-.06-.158.475-.158.474.18.06.158-.474zm.561.04l.036-.498-.561-.04-.036.499-.035.498.56.04.036-.498zm.381.14l.173-.468-.381-.14-.173.469-.172.469.38.14.173-.47zm.782.021l.012-.5-.781-.02-.013.5-.013.5.782.02.013-.5zm1.723-.22l-.064-.496-1.723.22.063.496.064.496 1.723-.22-.063-.496zm.581-.24l-.191-.463-.581.24.19.463.192.462.581-.24-.191-.463zm.541-.541l-.353-.354-.541.54.353.354.353.354.541-.54-.353-.354zm.26-.12l-.209-.455-.26.12.21.455.209.454.26-.12-.21-.454zm.361-.08l-.108-.489-.36.08.108.489.108.488.36-.08-.108-.489zm.461 0v-.5h-.46v1h.46v-.5zm.36.1l.135-.482-.361-.1-.134.481-.134.482.361.1.134-.482zm.261.18l.285-.411-.26-.18-.285.41-.285.412.26.18.285-.411zm.1.3l.475-.158-.1-.3-.475.158-.474.158.1.3.475-.158zm.12.18l.417-.277-.12-.18-.416.277L66 70.4l.12.18.416-.278zm.341.12l.167-.471-.34-.12-.167.471-.166.472.34.12.166-.472zm.241.22l.338-.368-.24-.22-.339.368-.337.37.24.22.338-.37zm.2.301l.416-.277-.2-.3-.416.277-.416.277.2.3.416-.277zm.14.12l.326-.38-.14-.12-.326.38-.325.38.14.12.326-.38zm.221.1l.207-.455-.22-.1-.207.455-.207.456.22.1.207-.456zm.22.02l.046-.497-.22-.02-.046.498-.045.498.22.02.046-.498zm.301-.04l-.066-.495-.3.04.066.496.066.495.3-.04-.066-.495zm1.383-.78l-.246-.436-1.383.781.246.436.246.435 1.383-.781-.246-.436zm.24-.04l-.082-.494-.24.04.082.493.082.494.24-.04-.082-.494zm.381-.02l-.026-.5-.381.02.026.5.026.499.381-.02-.026-.5zm.38.1l.128-.484-.38-.1-.128.483-.127.484.38.1.128-.483zm.502.26l.23-.444-.5-.26-.231.444-.23.443.5.26.23-.443zm.54.08l.074-.495-.541-.08-.073.495-.073.495.54.08.074-.495zm3.287-.14l-.021-.5-3.287.14.022.5.021.5 3.286-.14-.02-.5zm.38.1l.128-.484-.38-.1-.128.484-.127.483.38.1.128-.483zm-.04.26l.495.076.04-.26-.494-.076-.494-.076-.04.26.494.076zm.06.18l.475-.158-.06-.18-.474.158-.475.159.06.18.475-.159zm.702.1l.071-.494-.701-.1-.071.495-.07.494.7.1.071-.494zm.32-.04l-.061-.496-.32.04.061.497.062.496.32-.04-.061-.496zm.322-.08l-.122-.485-.32.08.12.486.122.485.32-.08-.12-.485zm.7-.46l-.274-.418-.7.46.274.419.274.417.701-.46-.274-.418zm.442-.44l-.354-.354-.44.44.353.354.353.353.441-.44-.353-.354zm.2-.1l-.223-.448-.2.1.223.447.223.448.2-.1-.223-.448zm.962-.201l-.102-.49-.962.2.102.49.102.49.962-.2-.102-.49zm.4-.32l-.311-.391-.401.32.312.39.312.391.401-.32-.312-.39zm.201-.28l-.407-.292-.2.28.407.291.407.291.2-.28-.407-.29zm.06-1.203l-.499-.025-.06 1.202.5.025.499.025.06-1.202-.5-.025zm.06-.28l-.488-.105-.06.28.488.106.49.104.06-.28-.49-.105zm.18-.36l-.446-.224-.18.36.446.224.448.224.18-.36-.447-.224zm.201-.3l-.416-.278-.2.3.416.278.416.277.2-.3-.416-.278zm.38-.321l-.321-.383-.38.32.321.383.322.383.38-.32-.321-.383zm.241-.02l-.041-.498-.24.02.04.498.042.498.24-.02-.04-.498zm.16.18l.374-.332-.16-.18-.374.332-.373.332.16.18.374-.332zm.221.28l.393-.309-.22-.28-.393.309-.393.309.22.28.393-.309zm.26.2l.305-.396-.26-.2-.305.396-.305.397.26.2.306-.396zm.862.261l.145-.479-.862-.26-.144.479-.145.478.862.26.144-.478zm.16.14l.33-.376-.16-.14-.33.376-.329.376.16.14.33-.376zm.1.18l.438-.242-.1-.18-.437.242-.437.243.1.18.437-.243zm.04.401l.498-.05-.04-.4-.497.05-.498.05.04.4.498-.05zm.141.1l.29-.407-.14-.1-.29.407-.29.407.14.1.29-.407zm.3.04l.067-.496-.3-.04-.067.496-.066.496.3.04.067-.496zm.582-.12l-.101-.49-.582.12.102.49.101.49.581-.12-.101-.49zm.36.14l.182-.466-.361-.14-.181.466-.181.466.36.14.182-.466zm.181.12l.277-.416-.18-.12-.277.416-.278.416.18.12.278-.416zm.26.641l.464-.188-.26-.641-.464.188-.463.189.26.64.464-.188zm.12.18l.417-.277-.12-.18-.416.277-.417.278.12.18.417-.278zm.301.3l.354-.353-.3-.3-.354.353-.354.354.3.3.354-.353zm.26.141l.238-.44-.26-.14-.238.44-.237.44.26.14.238-.44zm.201-.04l-.098-.49-.2.04.098.49.098.49.2-.04-.098-.49zm.24-.1l-.192-.462-.24.1.192.462.192.462.24-.1-.191-.462zm.341-.3l-.33-.376-.341.3.33.376.331.375.341-.3-.33-.376zm.12-.22l-.438-.24-.12.22.438.24.44.239.12-.22-.44-.24zm.14-.361l-.465-.182-.14.36.466.182.465.181.14-.36-.465-.181zm.181-.28l-.42-.271-.18.28.42.27.42.271.18-.28-.42-.27zm.561-.301l-.236-.44-.56.3.235.44.236.441.561-.3-.236-.441zm.12-.22l-.438-.24-.12.22.438.24.44.24.12-.22-.44-.24zm-.1-.36l-.481.133.1.36.481-.133.482-.134-.1-.36-.482.133zm.02-.121l-.493-.082-.02.12.493.082.493.082.02-.12-.493-.082zm.14-.2l-.409-.287-.14.2.41.287.409.287.14-.2-.41-.287zm.14-.02l-.07-.495-.14.02.07.495.071.495.14-.02-.07-.495zm.241.02l.042-.499-.24-.02-.042.499-.042.498.24.02.042-.498zm1.163.5l.197-.459-1.162-.5-.198.459-.197.459 1.162.5.198-.459zm.32.02l.031-.499-.32-.02-.031.5-.031.498.32.02.031-.499zm.401-.04l-.05-.497-.4.04.05.497.049.498.4-.04-.049-.498zm.701-.22l-.15-.477-.7.22.149.477.15.477.701-.22-.15-.477zm.862.02l.012-.5-.862-.02-.012.5-.011.5.862.02.011-.5zm.501.22l.201-.457-.5-.22-.202.457-.201.458.5.22.202-.458zm.842-.14l-.082-.493-.842.14.082.493.082.493.842-.14-.082-.493zm2.304-1.121l-.219-.45-2.304 1.122.219.45.218.449 2.305-1.122-.219-.45zm.08-.541l-.494-.073-.08.54.494.074.495.073.08-.54-.495-.074zm-.08-.5l-.494.078.08.501.494-.08.494-.078-.08-.5-.494.078zm-.14-.401l-.472.165.14.4.472-.165.472-.165-.14-.4-.472.165zm-.16-.26l-.426.262.16.26.426-.262.426-.262-.16-.26-.426.261zm-.16-.18l-.374.331.16.18.374-.332.373-.332-.16-.18-.374.332zm-1.343-1.002l-.3.4 1.343 1.002.3-.4.298-.402-1.342-1.001-.3.4zm-.14-.18l-.395.307.14.18.395-.307.394-.307-.14-.18-.395.307zm-.04-.2l-.49.097.04.2.49-.097.49-.099-.04-.2-.49.098zm.08-.341l-.487-.115-.08.34.486.115.487.115.08-.34-.487-.115zm.14-.24l-.432-.252-.14.24.431.252.432.252.14-.24-.431-.252zm.681-.781l-.377-.33-.681.782.377.328.377.33.68-.782-.376-.328zm.24-.361l-.415-.277-.24.36.415.278.416.277.24-.36-.415-.278zm.08-.18l-.456-.203-.08.18.457.203.456.203.08-.18-.456-.203zm.08-.38l-.488-.104-.08.38.489.104.489.103.08-.38-.49-.104zm.161-.361l-.457-.203-.16.36.457.203.457.203.16-.36-.457-.203zm.24-.26l-.367-.34-.24.26.367.34.367.339.241-.26-.367-.34zm.241-.08l-.158-.475-.24.08.158.474.158.475.24-.08-.158-.475zm.16.02l.062-.497-.16-.02-.062.496-.062.496.16.02.062-.496zm.381.24l.267-.423-.38-.24-.268.422-.266.423.38.24.267-.422zm.16.04l.122-.485-.16-.04-.122.485-.121.485.16.04.121-.485zm.241-.04l-.082-.494-.24.04.081.494.083.493.24-.04-.082-.493zm1.202-.721l-.257-.43-1.202.722.257.429.257.428 1.202-.72-.257-.43zm1.042-.4l-.18-.468-1.041.401.18.467.179.466 1.042-.4-.18-.467zm1.042-.942l-.335-.371-1.042.941.335.371.336.371 1.041-.941-.335-.371zm.18-.1l-.242-.437-.18.1.242.437.243.437.18-.1-.242-.437zm.762.12l.078-.494-.761-.12-.078.494-.078.494.761.12.078-.494zm.401-.08l-.098-.49-.4.08.097.49.098.49.401-.08-.098-.49zm.24-.12l-.223-.448-.24.12.223.448.223.447.241-.12-.224-.447zm.181-.16l-.332-.374-.18.16.331.374.333.373.18-.16-.332-.373zm.1-.16l-.424-.266-.1.16.424.266.424.265.1-.16-.424-.266zm.08-.201l-.464-.186-.08.2.464.186.464.186.08-.2-.464-.186zm.12-.741l-.493-.08-.12.74.493.081.494.08.12-.74-.494-.081zm.101-.36l-.482-.134-.1.36.481.134.482.134.1-.36-.481-.135zm.24-.441l-.439-.24-.24.441.439.24.438.24.241-.442-.439-.239zm.321-.3l-.342-.365-.321.3.342.365.342.365.321-.3-.342-.365zm.3-.1l-.158-.475-.3.1.158.475.158.474.3-.1-.158-.475zm.121-.12l-.354-.354-.12.12.353.353.354.354.12-.12-.353-.354zm.04-.241l-.494-.082-.04.24.494.082.493.083.04-.24-.493-.083zm-.02-.48l-.5.02.02.48.5-.02.499-.02-.02-.481-.499.02zm.04-.381l-.498-.053-.04.38.498.053.497.053.04-.38-.497-.053zm.04-.36l-.497-.056-.04.36.497.056.497.055.04-.36-.497-.056zm.12-.481l-.485-.122-.12.481.485.121.485.122.12-.481-.485-.121zm.14-.44l-.476-.153-.141.441.477.152.476.151.141-.44-.477-.152zm.1-.522l-.491-.094-.1.52.491.095.491.095.1-.521-.491-.095zm.02-.92l-.499-.012-.02.922.499.01.5.011.02-.92-.5-.012zm.02-.181l-.496-.055-.02.18.496.055.497.055.02-.18-.497-.055zm.181-.54l-.474-.159-.181.54.474.159.475.158.18-.54-.474-.159zm-.04-.221l-.492.09.04.22.492-.09.492-.09-.04-.22-.492.09zm-.281-.34l-.386.317.281.34.386-.317.386-.318-.281-.34-.386.318zm-.22-.18l-.317.386.221.18.316-.386.317-.388-.221-.18-.316.387zm-.201-.1l-.223.446.2.1.224-.447.223-.447-.2-.1-.224.447zm-.4-.101l-.122.485.401.1.121-.485.122-.485-.401-.1-.121.485zm-.221-.18l-.316.387.22.18.317-.387.316-.387-.22-.18-.317.387zm-1.082-1.042l-.347.36 1.082 1.042.347-.36.347-.36-1.082-1.042-.347.36zm-.22-.14l-.269.422.22.14.269-.422.268-.422-.22-.14-.268.422zm-1.002-.32l-.153.476 1.002.32.153-.476.152-.476-1.002-.32-.152.476zm-.682-.46l-.28.413.682.46.28-.413.28-.415-.682-.46-.28.414zm-.22-.221l-.353.353.22.22.353-.353.354-.354-.22-.22-.354.354zm-.34-.54l-.424.266.34.54.424-.266.423-.267-.34-.54-.424.266zm.14-.221l-.422-.269-.14.22.421.27.422.268.14-.22-.421-.27zm.54-.26l-.216-.451-.541.26.217.45.216.451.541-.26-.216-.45zm.602-.16l-.129-.484-.601.16.129.483.128.484.602-.16-.13-.484zm.28.02l.036-.5-.28-.02-.036.5-.036.498.28.02.036-.499zm.06-.642l-.497-.046-.06.64.497.047.498.047.06-.64-.498-.048zm0-.16h-.5v.16h1v-.16h-.5zm-.16-.76l-.49.102.161.761.49-.103.489-.103-.16-.76-.49.102zm0-.241h-.5v.24h1v-.24H99zm.12-.28l-.46-.198-.12.28.46.198.46.197.12-.28-.46-.197zm.481-.481l-.353-.354-.481.48.353.355.354.353.48-.48-.353-.354zm.08-.12l-.416-.278-.08.12.416.278.416.277.08-.12-.416-.277zm-.02-.2l-.497.05.02.2.497-.05.498-.05-.02-.2-.498.05zm-.12-.28l-.46.196.12.28.46-.197.46-.197-.12-.28-.46.197zm-.38-.582l-.419.274.381.581.418-.274.418-.274-.38-.58-.419.273zm-.281-.34l-.386.318.28.34.386-.318.386-.318-.28-.34-.386.318zm-.22-.24l-.369.337.22.24.369-.337.368-.338-.22-.24-.369.337zm-.482-.32l-.277.415.481.32.277-.416.278-.416-.481-.32-.278.416zm-.16-.261l-.426.262.16.26.426-.262.426-.262-.16-.26-.426.262zm.02-.22l-.498-.046-.02.22.498.046.498.045.02-.22-.498-.046zm.04-.14l-.48-.138-.04.14.48.137.481.138.04-.14-.48-.138zm.481-.501l-.36-.347-.481.5.36.347.36.347.482-.501-.36-.346zm.12-.2l-.428-.258-.12.2.428.258.429.257.12-.2-.428-.258zm.1-.301l-.474-.158-.1.3.475.158.474.158.1-.3-.474-.158zm-.06-.26l-.487.112.06.26.488-.112.487-.113-.06-.26-.487.113zm-.46-1.322l-.472.164.46 1.322.473-.164.472-.165-.461-1.322-.472.165zm-.12-.48l-.486.12.12.481.486-.121.485-.122-.12-.48-.486.121zm-.08-.381l-.49.103.08.38.49-.103.489-.103-.08-.38-.49.103zm0-.621h-.5v.62h1v-.62h-.5zm-.1-.801l-.497.062.1.8.496-.061.496-.062-.1-.801-.496.062zm-.101-.26l-.467.179.1.26.467-.18.467-.179-.1-.26-.467.18zm-.12-.26l-.454.209.12.26.454-.21.454-.21-.12-.26-.454.21zm-.26-.221l-.324.382.26.22.324-.382.323-.382-.261-.22-.323.382zm-.181-.1l-.243.437.18.1.243-.437.243-.437-.18-.1-.243.437zm-.22 0v.5h.22v-1h-.22v.5zm-1.223.14l.057.497 1.222-.14-.057-.497-.057-.497-1.222.14.057.497zm-.802-.18l-.11.487.802.18.11-.487.11-.488-.802-.18-.11.488zm-.26-.02l-.038.498.26.02.038-.498.039-.499-.26-.02-.04.499zm-.561.12l.105.489.56-.12-.104-.49-.105-.488-.56.12.104.489zm-.421 0v.5h.42v-1h-.42v.5zm-.16-.08l-.224.447.16.08.224-.447.224-.448-.16-.08-.224.448zm-.16-.18l-.374.332.16.18.374-.332.373-.333-.16-.18-.374.332zm-.1-.24l-.462.191.1.24.461-.192.462-.192-.1-.24-.462.192zm-.081-.522l-.494.077.08.52.494-.076.494-.076-.08-.52-.494.075zm-.12-.38l-.477.15.12.381.477-.15.477-.151-.12-.38-.477.15zm-.26-.4l-.42.272.26.4.42-.272.419-.273-.26-.4-.42.272zm-.181-.18l-.353.353.18.18.353-.354.354-.353-.18-.18-.354.353zm-.18-.121l-.278.416.18.12.278-.416.277-.416-.18-.12-.277.416zm-1.463-.64l-.2.457 1.462.64.2-.457.201-.458-1.463-.64-.2.457zm-.08-.041l-.224.447.08.04.224-.447.223-.447-.08-.04-.223.447zm-.06-.18l-.475.158.06.18.475-.158.474-.158-.06-.18-.475.158zm-.04-.3l-.496.066.04.3.495-.066.496-.066-.04-.3-.496.065zm.04-.681l-.5-.03-.04.681.5.03.498.029.04-.681-.499-.03zm.18-.601l-.48-.144-.18.6.48.145.478.143.18-.6-.478-.144zm.24-.36l-.416-.278-.24.36.416.278.416.277.24-.36-.416-.278zm.26-.461l-.434-.246-.261.46.435.246.436.246.26-.46-.435-.246zm.101-.26l-.467-.18-.1.26.467.18.466.18.1-.261-.466-.18zm.04-.381l-.497-.053-.04.38.497.053.497.053.04-.38-.497-.053zm-.02-.46l-.5.02.02.462.5-.022.5-.022-.02-.46-.5.021zm-.26-1.863l-.496.069.26 1.862.496-.069.495-.07-.26-1.862-.496.07zm-.16-.42l-.468.177.16.42.467-.177.468-.178-.16-.421-.468.178zm-.201-.361l-.437.243.2.36.437-.243.437-.243-.2-.36-.437.243zm-.08-.28l-.481.137.08.28.48-.137.481-.138-.08-.28-.48.137zm.02-.381l-.5-.027-.02.38.5.027.499.027.02-.381-.5-.026zm.1-.24l-.462-.193-.1.24.462.193.461.192.1-.24-.461-.193zm.2-.321l-.424-.265-.2.32.424.265.424.265.2-.32-.424-.265zm.02-.18l-.497-.055-.02.18.497.055.497.055.02-.18-.497-.055zM76.665 43.748l.407-.29-.2-.281-.407.29-.407.291.2.28.407-.29zm.1.2l.447-.223-.1-.2-.447.223-.447.224.1.2.447-.224zm.2.24l.385-.32-.2-.24-.385.32-.384.32.2.24.385-.32zm.201.12l.257-.428-.2-.12-.257.429-.257.428.2.12.257-.428zm.621.201l.154-.476-.622-.2-.153.476-.153.476.62.2.154-.476zm.18.14l.307-.394-.18-.14-.307.394-.307.395.18.14.308-.395zm.12.22l.44-.239-.12-.22-.44.24-.438.239.12.22.439-.24zm.04.241l.494-.082-.04-.24-.493.082-.493.082.04.24.493-.082zm-.08.3l.484.13.08-.301-.483-.129-.483-.129-.08.3.483.13zm-.24.34l.409.29.24-.341-.408-.289-.409-.288-.24.34.408.289zm-.841.802l.344.362.842-.801-.345-.362-.344-.362-.842.8.345.363zm-.08.14l.434.248.08-.14-.434-.248-.434-.248-.08.14.433.248zm-.04.16l.484.122.04-.16-.485-.122-.485-.121-.04.16.485.121zm.16.38l.46-.193-.16-.38-.46.193-.461.194.16.38.46-.193zm.06.261l.487-.112-.06-.26-.487.112-.487.112.06.26.487-.112zm-.04.42l.498.048.04-.42-.498-.048-.498-.047-.04.42.498.048zm.02.12l.493-.081-.02-.12-.493.082-.493.082.02.12.493-.082zm.18.441l.463-.189-.18-.44-.463.189-.463.19.18.44.463-.19zm0 .22h.5v-.22h-1v.22h.5zm-.22.441l.447.224.22-.44-.447-.224-.447-.224-.22.44.447.224zm-.662.16l.118.486.661-.16-.117-.486-.118-.486-.661.16.117.486zm-1.062.06l.029.5 1.062-.06-.029-.5-.028-.499-1.062.06.028.5zm-.52-.06l-.058.497.521.06.057-.496.058-.497-.521-.06-.058.496zm-.421-.1l-.116.487.42.1.116-.486.116-.487-.42-.1-.116.486zm-.14-.08l-.249.434.14.08.249-.434.248-.434-.14-.08-.249.434zm-.281.02l.035.499.28-.02-.035-.499-.035-.498-.28.02.035.498zm-.28.08l.136.481.281-.08-.137-.48-.138-.482-.28.08.137.481zm-.482.36l.3.401.481-.36-.3-.4-.3-.4-.48.36.3.4zm-.44.401l.336.37.44-.4-.336-.37-.336-.37-.44.4.335.37zm-.181.1l.243.438.18-.1-.243-.438-.242-.437-.18.1.242.438zm-1.323.421l.152.477 1.323-.42-.152-.477-.152-.477-1.322.42.151.477zm-2.124.38l.088.493 2.125-.38-.089-.493-.088-.492-2.124.38.088.493zm-1.242.521l.193.461 1.243-.52-.194-.461-.193-.462-1.242.521.193.461zm-.421-.1l-.116.487.421.1.116-.487.116-.486-.421-.1-.116.486zm-.16-.18l-.374.332.16.18.374-.332.374-.332-.16-.18-.374.332zm-.04-.28l-.495.07.04.28.495-.07.495-.07-.04-.281-.495.07zm.06-.761l-.499-.04-.06.761.499.04.498.039.06-.761-.498-.04zm-.1-.34l-.48.14.1.34.48-.14.48-.142-.1-.34-.48.141zm-.802-.922l-.377.328.801.921.378-.328.377-.328-.802-.921-.377.328zm-.2-.38l-.443.232.2.38.443-.232.442-.233-.2-.38-.442.232zm-.16-.561l-.482.137.16.56.482-.137.48-.137-.16-.56-.48.137zm-.221-.42l-.443.231.22.42.443-.231.443-.233-.22-.42-.443.232zm-.722-.922l-.393.308.721.921.394-.308.394-.308-.722-.921-.394.308zm-.1-.14l-.406.29.1.14.406-.29.407-.29-.1-.141-.407.29zm-.02-.22l-.498.045.02.22.498-.045.498-.046-.02-.22-.498.045zm.18-.521l-.472-.164-.18.52.472.164.473.164.18-.52-.472-.164zm-.02-.2l-.497.05.02.2.498-.05.497-.05-.02-.2-.498.05zm-.26-.24l-.339.367.26.24.34-.368.339-.367-.261-.24-.339.367zm-.541-.341l-.266.423.54.34.267-.423.266-.423-.54-.34-.267.423zm-.14-.18l-.395.306.14.18.395-.306.395-.307-.14-.18-.395.306zm.02-.14l-.495-.072-.02.14.495.071.495.071.02-.14-.495-.07zm.1-.141l-.407-.29-.1.14.407.29.407.29.1-.14-.407-.29zm.561-.34l-.26-.428-.56.34.259.428.26.428.56-.341-.259-.427zm1.403-.521l-.174-.469-1.403.52.174.47.174.468 1.403-.52-.174-.47zm.34 0v-.5h-.34v1h.34v-.5zm.742.32l.198-.459-.741-.32-.199.459-.198.459.742.32.198-.459zm.14.02l.07-.495-.14-.02-.07.495-.07.495.14.02.07-.495zm.18-.04l-.108-.488-.18.04.108.488.109.488.18-.04-.108-.488zm.16-.1l-.264-.424-.16.1.264.424.265.424.16-.1-.264-.424zm.161-.24l-.416-.278-.16.24.416.278.416.278.16-.24-.416-.278zm-.08-.5l-.494.078.08.5.494-.078.494-.08-.08-.5-.494.08zm.08-.261l-.478-.147-.08.26.478.147.478.147.08-.26-.478-.147zm.12-.1l-.32-.384-.12.1.32.384.32.384.12-.1-.32-.384zm3.908-1.142l-.14-.48-3.908 1.142.14.48.14.48 3.908-1.142-.14-.48zm1.463-.16l-.055-.497-1.463.16.055.497.054.497 1.463-.16-.054-.497zm.32.06l.092-.491-.32-.06-.092.49-.092.492.32.06.093-.491zm.341.2l.254-.43-.341-.201-.254.431-.253.431.34.2.254-.43zm.461.48l.36-.345-.46-.48-.36.345-.362.346.461.481.361-.346zm.36.281l.308-.395-.361-.28-.307.395-.307.395.36.28.308-.395zm.141.16l.376-.329-.14-.16-.376.33-.377.329.14.16.377-.33zm.1.3l.475-.157-.1-.3-.475.157-.474.159.1.3.474-.158zm.12.201l.43-.257-.121-.2-.429.257-.428.257.12.2.428-.257zm.22.1l.208-.455-.22-.1-.208.455-.206.455.22.1.207-.455zm.702.18l.125-.484-.702-.18-.124.484-.125.485.702.18.124-.484zm.22.16l.295-.404-.22-.16-.295.405-.294.404.22.16.295-.404z" fill="#fff"/><path d="M102.93 12.825l.42 1.362.982 1.983.08.38-.06.26-.1.26-.08.341-.04.42.04.922.08.42.14.341.361.48.14.241.101.26.04.26v.582l-.221.98.06.361 1.002 2.343.06.28.021.281-.041.3-.12.26-.16.141-.221.04-2.264-.4-.341-.22-.621-.662-.16-.1h-.341l-.761.26-.181.12-.08.261-.1 1.482-.08.32-.12.24-.181.161-.2.06-.2-.02-.221-.1-.44-.38-.903-1.162-.56-.46-1.283-.521h-.32l-.301.12-1.263 1.442-.18.08-.18-.02-.2-.1-1.644-1.382-.461-.18-.3.04-.16.12-1.063-.941-.3-.581-.261-1.362-.762.2-.42-.12-.18-.18-.562-.661-.16-.12-.16-.04-.702.06-.24-.12-.28-.24-.221-.02-.2.04-.341.16h-.24l-.301-.12-.16-.02-.141.06-.12.14-.34.56-.161.22-.621.521-.301.38-.32.622-.201.28-.26.22-.481.26-.22.16-.362.341-.26.2-1.082.521-1.202.801-2.646.681-.52.06-.261-.04-.14-.18-.1-.52-.1-.24-.141-.081-.2-.02-.461.02-.562-.08-1.322.02-.32.1-.221-1.061-2.104-1.743-1.663-5.247-.04-.26.04-.2.1-.18.14-.16.42-.261.542-1.402.12-.16.661-.641.08-.16.04-.2v-.481l.06-.24.221-.381.38-.36.342-1.923.1-.24.16-.04.22.1 1.544 1.602.24.06.26-.06.22-.16.181-.24.16-.301.08-.34.06-.721.06-.24.101-.161.12-.1.882-.08.14-.08.2-.28.101-.401.14.36 1.022.28.421.24 1.142.862 1.082.24.642.02.48-.12.301-.34.28-.54.462-1.243.62.02 1.083-.3 3.367.24.06-.4-.02-1.622-.06-.32.02-.261.08-.16.3-.32.08-.241-.02-1.362-.46-.66-.481-.381-.12-.541.3-.28.32-.12.441-.3.14-.221.08-.4.562.52 1.483.34.26.461.34.34.422.2.34-.06.1-.48.261-.62.38-.261.342.18.14.701.28.701 1.684.02.781.4.481.762-.04.46-.24.48-.22.862.1.68.26.822.36.781.321.5.581.481.541.22.441.381.36.881v.46l-.08.462-.02.44.181.4.42.12.341-.34.281-.5.26-.34 1.243-.1 2.365.82z" fill="#ECECEC" stroke="#fff" stroke-linecap="round" stroke-linejoin="round"/><path d="M134.342 43.246l-3.126-1-.16.08-.12.16-.081.22-.06.28-.04.62-.08.281-.16.22-3.066 1.463-.161.14-.14.2-.12.58-.12.261-.141.2-.18.18-.401.2-2.645.261-.461.18-.441.32-1.142-.98-.341-.08-.14-.1-.461-.601-.12-.1-.26-.06-.321-.18-.361-.321-.3-.44-.221-.461-.16-.14-1.703-.341-.241-.16-.14-.26-.06-.281v-.941l-.04-.24-.081-.18-.16-.121-.821-.26-1.243.04-.28.12-1.884 1.862-.16.08-.121-.04-.24-.28-.201-.48-.28-1.182-.12-.16-.141-.06-1.482.42-.181.24-.14.28-.381 1.262-.16.18-.18.06-.221-.06-1.202-.82-.161-.04-.901.26h-.441l-1.162-.58-.441.04-.581.28-1.784 1.702-.24.02-1.624-.621.08-.12-.02-.2-.12-.28-.38-.582-.281-.34-.22-.24-.481-.32-.16-.261.02-.22.04-.14.48-.501.12-.2.1-.301-.06-.26-.46-1.322-.12-.48-.08-.381v-.621l-.1-.801-.101-.26-.12-.26-.26-.221-.181-.1h-.22l-1.223.14-.801-.18-.261-.02-.561.12h-.42l-.161-.08-.16-.18-.1-.24-.08-.522-.121-.38-.26-.4-.18-.18-.181-.121-1.463-.64-.08-.04-.06-.181-.04-.3.04-.681.18-.601.24-.36.26-.461.101-.26.04-.381-.02-.46-.26-1.863-.16-.42-.201-.361-.08-.28.02-.381.1-.24.2-.32.02-.181-.06-.18.16-.12.301-.04.461.18 1.643 1.381.2.1.181.02.18-.08 1.263-1.441.3-.12h.321l1.283.52.56.46.903 1.162.44.38.22.1.201.021.201-.06.18-.16.12-.24.08-.321.1-1.482.081-.26.18-.12.761-.26h.341l.16.1.622.66.34.22 2.265.4.22-.04.16-.14.121-.26.04-.3-.02-.28-.06-.28-1.002-2.344-.06-.36.22-.982v-.58l-.04-.26-.1-.261-.141-.24-.36-.481-.141-.34-.08-.421-.04-.921.04-.42.08-.341.101-.26.06-.261-.08-.38-.982-1.983-.421-1.362 3.547 1.262.34.22.381.6.221.201.32.1 2.465-.58.721.06.061.32.1.28 1.503 2.564.18.06.822-.02 1.743-.661.501.06.401.38.381.741.26.641.16.641-.08.54-.421.361-.08.3.08.281 1.263-.24 1.823-1.763 1.263.12.922.722.461.2.501-.1.36-.46.201-.602.22-.46.381-.08 1.082.02.962.24.902.52 2.525 2.684.26.881-.922.38.12.361v.14l-.22.401-.08.6v.281l-.16.32-.622.601-.28.401-.501.1-.942-.26-.481.16-.22.6-.441.381-.521.3-.461.381-.16.06-.261.18-.18.02.2.661-.601-.14-.241.741.281.821.962.18.381 1.182.14.28.381.3.22-.04.22-.18.341-.12h1.343l.28.08.221.441.02.42-.04.421.08.42.521.702 1.322.48.662.461.421.6.761 1.363.421.6.381.681.901.922.321.88.321 1.583.28.56.521.681zM187.674 77.573h-.321l-.18-.08-.16-.12-.141-.2-.1-.26-.24-1.302-.08-.3-.141-.241-.18-.22-.501-.32-.2-.221-.622-1.322-.14-.18-.521-.18-2.244.02-.201-.06-.881-.641-.281-.12-4.609.46-.26-.04-.201-.12-.16-.16-.12-.22-.121-.581-.08-.18-.22-.2-1.303-.02-.461-.522-.36-.28-.842-.22-.06-.58-.14-.502-.101-.24-.32-.42-.802-.681-.922-.441-.2-.2-.902-1.903-.16-.18-.18-.04-.161.06-.541.36-.2.04-.201-.06-.16-.18-.1-.24-.02-.3.16-1.523-.04-.2-.14-.2-.682-.58-.841-.421-1.082.36-.762-.06-1.082-.741h-.16l-.16.08-.682.52-1.503-.08-.441-.22-2.264-2.463-.22-.08-.201.04-.842.46-.2-.02-2.525-1.281-.12-.12-.08-.14-.08-.481-.06-.12-.141-.08-1.262-.18-.401-.16-.12-.16-.08-.161-.02-.2.14-1.683.06-.26.08-.22.842-1.122.06-.14-.08-.28-.822-.801-.12-.24-.06-.241-.02-.26.02-.26.08-.261.12-.22 1.764-2.484.1-.2.02-.2v-.22l-.341-1.362.02-.2.08-.18.301-.482.06-.24.06-.7.1-.321.141-.28.4-.461 2.385-1.342.681-1.001.161-.14.16-.06.18.02.421.26h.201l.2-.08.2-.18.161-.22.12-.221.08-.24.04-.22-.461-2.744.642.54.28.861.14.1.161.02.16-.02.14-.1.882-1.06 1.403-.141 2.645.48.681-.18.501-.42.882-1.222.16-.38.08-.3.201-.141.501.2.16.14.621.842v.28l-.08.14-.321.861-.06.42.081.481.3.3.461.862-.281.701-.581.52-1.262.742-.802.32-1.422.06-.321.16-.221.461.061.34 1.442 1.823.461.2.301-.04.24-.16.321-.06.381.1.821.4.401.08v.16l-.26.241-.101.26.081.26.28.281.341.38.2.521.16.561.241.56.321.462 1.923 1.902 1.062.22 1.083-.32.881-.781.541-.14 1.183-.04.961-.28.141-.201-.04-.46-.221-.321h-.24l-.241.06-.16-.06-.12-1.042.902.22 1.723 1.142-.18.841.38.461 1.884.36.441.24.942.802.34.16.702.14.36.26.121.261.2.721.16.3.602.481.42-.08.822-.721-.06-.14-.12-.02 1.182-.14 1.142.4 2.204 1.222h.682l1.182-.761.421.28.18.821-.06.701.12.56.782.442-.802.94v1.222l.521 1.402.702 1.422.3 1.342.181.34.4.28.902.08.421.121.381.32.581.681.381.24.42-.04.481-.2.461-.08.441.32.12.361.201 1.582.14.42.341.802.14.42.421 1.943.08.941-.12.761-1.223.04-.541.2-1.222 1.122-.822.04-.861-.26-.962-.48-.201-.04-.22.04-.842.44-1.302-.18-.601.38-.161.38-.08.842-.14.4-.241.24-.982.521-1.262 1.562-.661.42-.862-.18-.02.541z" fill="#ECECEC" stroke="#fff" stroke-linecap="round" stroke-linejoin="round"/></svg>