<svg width="17" height="14" viewBox="0 0 17 14" fill="none" xmlns="http://www.w3.org/2000/svg"><path d="M7.767 5v-.1H7a4.102 4.102 0 00-3.915 2.88 1.433 1.433 0 100 2.441 4.102 4.102 0 007.945-1.982l5.324-1.141.08-.017V4.9H9.566V6.233h-1.8V5zm-1.418.832c.178-.036.363-.058.551-.064V7.1H10.433V5.767h5.134v.619l-5.529 1.19-.119.026.049.112a3.233 3.233 0 11-3.619-1.882zM8.333.9h-.1v2.867H9.1V.9h-.767zm3.466.696l-.084-.053-.053.085-1.414 2.261-.053.085.085.053.566.353.085.053.053-.085 1.413-2.261.053-.085-.085-.053-.566-.353zm-6.149.032l-.053-.085-.085.053-.565.353-.085.053.053.085 1.413 2.261.053.085.085-.053.565-.353.085-.053-.053-.085L5.65 1.628zM1.767 9c0-.315.253-.567.566-.567.316 0 .567.254.567.567a.565.565 0 01-.567.567A.565.565 0 011.767 9z" fill="#fff" stroke="#fff" stroke-width=".2"/></svg>