<svg width="16" height="17" viewBox="0 0 16 17" fill="none" xmlns="http://www.w3.org/2000/svg"><path d="M6.767 6.5v-.1H6a4.102 4.102 0 00-3.915 2.88 1.433 1.433 0 100 2.441 4.102 4.102 0 007.945-1.982l5.324-1.141.08-.017V6.4H8.566V7.733h-1.8V6.5zm-1.418.832c.178-.036.363-.058.551-.064V8.6H9.433V7.267h5.134v.619l-5.529 1.19-.119.026.049.112a3.233 3.233 0 11-3.619-1.882zM7.333 2.4h-.1v2.867H8.1V2.4h-.767zm3.466.696l-.084-.053-.053.085-1.413 2.261-.053.085.084.053.566.353.085.053.053-.085 1.413-2.261.053-.085-.085-.053-.566-.353zm-6.149.032l-.053-.085-.085.053-.565.353-.085.053.053.085 1.413 2.261.053.085.085-.053.565-.353.085-.053-.053-.085L4.65 3.128zM.767 10.5c0-.315.253-.567.566-.567.316 0 .567.254.567.567a.565.565 0 01-.567.567.565.565 0 01-.566-.567z" fill="#000" stroke="#000" stroke-width=".2"/></svg>