<svg width="16" height="16" viewBox="0 0 16 16" fill="none" xmlns="http://www.w3.org/2000/svg"><path d="M11.333 6.333V4.067c0-.374 0-.56-.072-.703a.666.666 0 00-.292-.291C10.827 3 10.64 3 10.267 3H2m6.667 6.667v2.266c0 .374 0 .56-.073.703a.667.667 0 01-.291.291C8.16 13 7.973 13 7.6 13H2M2 1.333v13.334m0-5h10.933c.374 0 .56 0 .703-.073a.667.667 0 00.291-.291C14 9.16 14 8.973 14 8.6V7.4c0-.373 0-.56-.073-.703a.667.667 0 00-.291-.291c-.143-.073-.33-.073-.703-.073H2v3.334z" stroke="#102D69" stroke-width="1.15"/></svg>