<svg width="111" height="40" viewBox="0 0 111 40" fill="none" xmlns="http://www.w3.org/2000/svg"><path fill-rule="evenodd" clip-rule="evenodd" d="M24.86 16.647c-.611-.726-1.068-1.764-1.285-2.906L15.293 33.2h2.534l7.034-16.554zm4.015.594c1.032-2.387 1.552-4.196 1.323-6.845-1.055 0-1.937.37-2.555 1.07.064 1.772-.55 3.615-1.08 4.854l-7.154 16.882h2.673l6.793-15.96zm2.952-6.53c.02 2.581-.448 4.213-1.42 6.632l-6.69 15.733-.053.126h2.405l6.81-16.003a18.17 18.17 0 00.587-1.596c.16-.524.251-.99.282-1.426.051-.904-.292-2.75-1.92-3.466zm3.06 1.338c0-2.844-2.344-5.158-5.225-5.158-1.22 0-2.49.453-3.332 1.186.01.782.22 1.514.595 2.083a5.04 5.04 0 013.176-1.104c1.416 0 2.762.564 3.6 1.508.617.68.965 1.55 1.12 2.306.044-.27.067-.544.067-.821zm-9.397 3.1a5.123 5.123 0 01-1.052-3.1c0-1.017.297-1.99.863-2.832.076.863.357 1.621.853 2.307.063 1.271-.309 2.636-.664 3.624zM16.682 11.062h-2.404L18.7 21.475l1.207-2.834-3.225-7.58zM11.91 9.216H9.218l7.35 17.266 1.34-3.147-6-14.12zm-4.932 4.446h2.55l6.25 14.68-1.275 2.996-7.525-17.676zM43.267 18.99c3.283 0 4.235-1.798 4.524-3.964h-2.653c-.102.873-.425 1.747-1.684 1.747-.663 0-1.377-.235-1.377-1.36 0-.152 0-.471.067-.908.069-.487.324-2.2.358-2.502.22-1.647.748-2.268 1.939-2.268.85 0 1.207.403 1.207.99 0 .236-.017.37-.05.606h2.653c.05-.404.085-.723.085-1.075 0-1.327-1.004-2.738-3.725-2.738-2.636 0-4.286 1.008-4.763 4.501l-.272 1.966c-.102.705-.119.873-.119 1.46 0 2.268 1.514 3.545 3.81 3.545zM44.754 22.2l-2.994 8.75h-.29l-.442-8.75h-2.653l.816 11.002h4.355L47.56 22.2h-2.806zM69.29 14.236h.546l1.921 4.518h3.028L72.25 13.01l3.738-4.834 2.36 6.33-.613 4.248h2.653l.613-4.249 4.524-6.752H82.55l-2.568 4.316h-.068L78.62 7.753h-5.366l-3.112 4.199h-.528l.595-4.199h-2.636l-1.565 11.001h2.636l.647-4.518zM46.19 6.89l2.058-2.233H46.24l-1.378 1.108-1.055-1.108h-1.87l1.428 2.234h2.824zM65.345 14.841c0-1.108-.612-2.301-2.194-2.603l-1.905-.37c-.527-.1-.867-.42-.867-.89 0-.655.357-1.36 1.48-1.36.85 0 1.258.42 1.258 1.007 0 .185-.017.336-.034.47h2.62c.05-.319.067-.504.067-.79.017-1.796-1.36-2.787-3.69-2.787-2.62 0-4.304 1.226-4.304 3.964 0 1.058.561 2.368 2.262 2.704l1.582.336c.596.117.936.42.936.94 0 .471-.256 1.445-1.616 1.445-.919 0-1.31-.52-1.31-1.075 0-.202.034-.47.034-.47h-2.62c-.05.302-.067.605-.067.873.017 1.696 1.497 2.755 3.827 2.755 3.827 0 4.541-2.369 4.541-4.149zM83.726 4.657h-2.688L78.981 6.89h2.279l2.466-2.234zM67.85 24.467h4.1l.323-2.267h-6.736l-1.564 11.002h6.735l.323-2.268h-4.099l.306-2.2h4.1l.323-2.268h-4.1l.29-1.999zM91.276 28.549l1.565-4.25h.323l.34 4.25h-2.228zm-.085-6.35l-4.27 11.003h2.705l.953-2.587h3.044l.205 2.587h2.636L95.426 22.2h-4.235zM83.416 26.65h-1.752l.34-2.334h1.735c.613 0 .919.42.919.991 0 .722-.442 1.344-1.242 1.344zm-.56 4.435h-1.821l.374-2.536h1.752c.698 0 1.106.453 1.106 1.075 0 .79-.442 1.461-1.412 1.461zm2.363-3.56c.8-.236 2.058-1.025 2.058-2.906 0-1.462-1.071-2.42-2.534-2.42h-5.069L78.11 33.203h5.29c1.82 0 3.504-1.277 3.504-3.46 0-1.26-.8-2.016-1.684-2.218zM100.428 30.934l1.242-8.734h-2.636l-1.565 11.002h6.259l.306-2.268h-3.606zM75.582 22.2l-1.105 7.776c-.068.538-.442.958-1.208.958h-1.207l-.324 2.268h2.058c1.922 0 3.028-1.126 3.283-2.906l1.157-8.096h-2.654zM50.108 7.753l-1.565 11.002h6.735l.324-2.268h-4.1l.307-2.2h4.099l.323-2.268h-4.1l.29-1.998h4.1l.322-2.268h-6.735zM60.838 22.2h-2.636l-1.565 11.002h6.259l.306-2.268h-3.606l1.242-8.734zM53.56 26.92l-.237 1.68c-.272 1.897-.732 2.62-2.024 2.62-.885 0-1.497-.37-1.497-1.512 0-.386.017-.672.102-1.226l.238-1.68c.272-1.898.731-2.62 2.024-2.62.885 0 1.497.37 1.497 1.511 0 .387-.017.672-.102 1.227zm-1.224-4.955c-2.381 0-4.252.806-4.813 4.602l-.256 1.713c-.068.487-.119.974-.119 1.428 0 2.654 1.667 3.729 3.98 3.729 2.365 0 4.236-.806 4.797-4.603l.255-1.713c.068-.487.12-.974.12-1.428 0-2.653-1.65-3.728-3.964-3.728z" fill="#fff"/></svg>