<svg width="16" height="16" viewBox="0 0 16 16" fill="none" xmlns="http://www.w3.org/2000/svg"><path d="M11.332 2L7.999 4.667 4.665 2m-.133 12h6.933c1.12 0 1.68 0 2.108-.218a2 2 0 00.874-.874c.218-.428.218-.988.218-2.108V7.867c0-1.12 0-1.68-.218-2.108a2 2 0 00-.874-.874c-.428-.218-.988-.218-2.108-.218H4.532c-1.12 0-1.68 0-2.108.218a2 2 0 00-.874.874c-.218.428-.218.988-.218 2.108V10.8c0 1.12 0 1.68.218 2.108a2 2 0 00.874.874c.428.218.988.218 2.108.218z" stroke="#102D69" stroke-width="1.15"/></svg>