<svg width="16" height="16" viewBox="0 0 16 16" fill="none" xmlns="http://www.w3.org/2000/svg"><path d="M2.4 14.872c.422.128.992.128 1.96.128h7.28c.968 0 1.538 0 1.96-.128m-11.2 0a1.534 1.534 0 01-.253-.1 2.1 2.1 0 01-.918-.919C1 13.404 1 12.816 1 11.64V4.36c0-1.176 0-1.764.229-2.213a2.1 2.1 0 01.918-.918C2.596 1 3.184 1 4.36 1h7.28c1.176 0 1.764 0 2.213.229a2.1 2.1 0 01.918.918C15 2.596 15 3.184 15 4.36v7.28c0 1.176 0 1.764-.229 2.213a2.1 2.1 0 01-.918.918c-.079.04-.163.074-.253.101m-11.2 0c0-.566.004-.866.054-1.118a2.8 2.8 0 012.2-2.2c.27-.054.595-.054 1.246-.054h4.2c.65 0 .976 0 1.246.054a2.8 2.8 0 012.2 2.2c.05.252.054.552.054 1.118M10.8 6.25a2.8 2.8 0 11-5.6 0 2.8 2.8 0 015.6 0z" stroke="#fff" stroke-width="1.15"/></svg>