<svg width="171" height="37" viewBox="0 0 171 37" fill="none" xmlns="http://www.w3.org/2000/svg"><path fill-rule="evenodd" clip-rule="evenodd" d="M25.19 13.66c-.863-1.018-1.506-2.471-1.81-4.07L11.713 36.834h3.57l9.905-23.175zm5.653.83c1.454-3.342 2.186-5.874 1.864-9.583-1.486.002-2.729.52-3.599 1.497.09 2.482-.775 5.063-1.52 6.796L17.51 36.836h3.765l9.568-22.344zm4.158-9.142c.027 3.614-.631 5.899-2 9.286L23.58 36.659l-.075.176h3.386l9.591-22.403c.308-.753.603-1.49.827-2.235.225-.733.354-1.386.397-1.996.072-1.266-.41-3.85-2.705-4.853zm4.31 1.873C39.312 3.239 36.01 0 31.952 0c-1.718 0-3.508.634-4.692 1.66.013 1.095.309 2.12.838 2.917a7.124 7.124 0 014.473-1.546c1.994 0 3.89.79 5.07 2.11.869.954 1.36 2.172 1.579 3.23.061-.378.093-.762.093-1.15zm-13.235 4.34a7.144 7.144 0 01-1.482-4.34c0-1.424.419-2.785 1.216-3.965a6.297 6.297 0 001.201 3.23c.088 1.78-.435 3.691-.935 5.074z" fill="#E4003A"/><path fill-rule="evenodd" clip-rule="evenodd" d="M13.67 5.839h-3.387l6.228 14.578 1.7-3.966-4.542-10.612zM6.945 3.255h-3.79L13.51 27.427l1.887-4.405-8.45-19.767zM0 9.48h3.593l8.801 20.552-1.796 4.194L0 9.48z" fill="#fff"/><path d="M50.888 8.04h4.992l.832 16.672h.544L62.888 8.04h5.28L60.616 29h-8.192L50.888 8.04zM66.93 22.344c0-.864.096-1.792.224-2.72l.48-3.264c1.056-7.232 4.576-8.768 9.056-8.768 4.352 0 7.456 2.048 7.456 7.104 0 .864-.096 1.792-.224 2.72l-.48 3.264c-1.056 7.232-4.576 8.768-9.024 8.768-4.352 0-7.488-2.048-7.488-7.104zm4.992 0c0 2.176 1.152 2.88 2.816 2.88 2.432 0 3.296-1.376 3.808-4.992l.448-3.2c.16-1.056.192-1.6.192-2.336 0-2.176-1.152-2.88-2.816-2.88-2.432 0-3.296 1.376-3.808 4.992l-.448 3.2c-.16 1.056-.192 1.6-.192 2.336zM88.46 8.04h4.96l-2.336 16.64h6.784L97.291 29H85.515l2.944-20.96zm14.469 0H115.6l-.608 4.32h-7.712l-.544 3.808h7.712l-.608 4.32h-7.712l-.576 4.192h7.712l-.608 4.32H99.984l2.944-20.96zM115.181 29l.608-4.32h2.272c1.44 0 2.144-.8 2.272-1.824l2.08-14.816h4.992l-2.176 15.424c-.48 3.392-2.56 5.536-6.176 5.536h-3.872zm13.305-1.632c0-.512.128-1.696.8-2.304.544-.512 1.28-.704 2.432-.704 1.856 0 2.656.928 2.656 2.08 0 .512-.128 1.696-.8 2.304-.544.512-1.28.704-2.432.704-1.856 0-2.656-.928-2.656-2.08z" fill="#fff"/><path d="M140.55 29l2.336-16.64h-4.512l.608-4.32h13.984l-.576 4.32h-4.512L145.51 29h-4.96zm12.869-20.96h4.992l.832 16.672h.544l5.632-16.672h5.28L163.147 29h-8.192l-1.536-20.96z" fill="#E4003A"/></svg>